<?xml version="1.0" encoding="UTF-8"?>
<!-- Generator: visioncortex VTracer 0.6.3 -->
<svg version="1.1" xmlns="http://www.w3.org/2000/svg" width="1280" height="1280">
<path d="M0 0 C2.61 -0 5.22 -0.02 7.83 -0.04 C9.5 -0.04 11.17 -0.04 12.84 -0.05 C13.61 -0.05 14.38 -0.06 15.18 -0.07 C19.34 -0.05 22.54 0.34 26.28 2.19 C27.05 2.48 27.82 2.78 28.61 3.08 C38.98 7.11 50.74 11.9 59.28 19.19 C59.61 20.18 59.94 21.17 60.28 22.19 C61.27 22.19 62.26 22.19 63.28 22.19 C65.16 23.87 65.16 23.87 67.28 26.19 C68.17 27.03 69.06 27.88 69.97 28.75 C72.28 31.19 72.28 31.19 73.28 34.19 C73.94 34.19 74.6 34.19 75.28 34.19 C75.51 34.74 75.74 35.3 75.97 35.87 C77.22 38.34 77.22 38.34 79.61 40.37 C82.63 43.55 84.48 46.69 86.47 50.56 C86.81 51.19 87.16 51.83 87.51 52.48 C89.69 56.62 91.09 60.64 92.28 65.19 C92.79 66.44 93.3 67.69 93.85 68.94 C95.52 73.21 95.81 77.41 96.07 81.96 C96.04 84.16 96.04 84.16 97.28 85.19 C98.42 91.14 98.45 97.03 98.5 103.08 C98.52 105.19 98.55 107.3 98.58 109.41 C98.62 112.72 98.66 116.03 98.69 119.34 C98.71 122.54 98.76 125.75 98.81 128.95 C98.81 130.45 98.81 130.45 98.82 131.97 C98.83 132.89 98.85 133.81 98.87 134.75 C98.88 135.56 98.88 136.37 98.89 137.21 C99.02 137.86 99.15 138.51 99.28 139.19 C100.27 139.85 101.26 140.51 102.28 141.19 C102.94 140.86 103.6 140.53 104.28 140.19 C104.28 140.85 104.28 141.51 104.28 142.19 C104.93 142.22 105.57 142.26 106.23 142.3 C111.89 142.73 116.08 143.82 121.28 146.19 C122.67 146.51 124.07 146.8 125.47 147.06 C130.4 148.06 134.8 149.95 139.39 151.97 C142.32 153.2 145.27 154.2 148.28 155.19 C149.92 155.82 151.54 156.46 153.16 157.12 C156.31 158.4 159.47 159.64 162.66 160.81 C165.35 161.83 167.74 162.89 170.28 164.19 C173.76 165.86 177.24 167.52 180.72 169.19 C181.66 169.64 182.61 170.09 183.58 170.55 C184.95 171.21 184.95 171.21 186.34 171.87 C187.17 172.27 188 172.66 188.85 173.07 C191.3 174.19 193.78 175.21 196.28 176.19 C196.28 176.85 196.28 177.51 196.28 178.19 C196.99 178.29 197.69 178.39 198.41 178.5 C203.46 179.71 207.96 182.34 212.28 185.19 C212.61 185.85 212.94 186.51 213.28 187.19 C214.9 187.89 216.53 188.59 218.16 189.26 C222.02 190.95 225.64 193.09 229.28 195.19 C229.28 195.85 229.28 196.51 229.28 197.19 C229.85 197.47 230.41 197.74 231 198.03 C233.32 199.2 235.62 200.39 237.91 201.62 C238.69 202.03 239.46 202.45 240.26 202.87 C242.28 204.19 242.28 204.19 244.28 207.19 C246 208.39 246 208.39 247.91 209.37 C249.02 209.97 250.14 210.57 251.28 211.19 C251.28 211.85 251.28 212.51 251.28 213.19 C252.05 213.29 252.81 213.39 253.6 213.5 C256.56 214.25 257.28 215 259.28 217.19 C259.99 217.52 260.69 217.85 261.41 218.19 C263.28 219.19 263.28 219.19 264.28 222.19 C266.24 223.58 268.25 224.91 270.28 226.19 C273.1 228.14 274.34 229.27 276.28 232.19 C277.05 232.64 277.81 233.09 278.6 233.56 C281.65 235.41 283.8 237.64 286.28 240.19 C287.27 240.85 288.26 241.51 289.28 242.19 C289.28 242.85 289.28 243.51 289.28 244.19 C290.27 244.52 291.26 244.85 292.28 245.19 C292.28 245.85 292.28 246.51 292.28 247.19 C292.94 247.19 293.6 247.19 294.28 247.19 C294.28 247.85 294.28 248.51 294.28 249.19 C295.27 249.52 296.26 249.85 297.28 250.19 C297.28 250.85 297.28 251.51 297.28 252.19 C297.94 252.19 298.6 252.19 299.28 252.19 C299.28 252.85 299.28 253.51 299.28 254.19 C300.05 254.43 300.81 254.68 301.6 254.94 C304.55 256.31 305.64 257.42 307.28 260.19 C307.28 260.85 307.28 261.51 307.28 262.19 C307.94 262.19 308.6 262.19 309.28 262.19 C310.54 263.61 310.54 263.61 311.85 265.5 C312.28 266.11 312.72 266.73 313.16 267.36 C314.28 269.19 314.28 269.19 315.28 272.19 C316.27 272.52 317.26 272.85 318.28 273.19 C319.71 274.6 319.71 274.6 321.16 276.37 C321.68 277 322.19 277.63 322.72 278.27 C323.24 278.9 323.75 279.53 324.28 280.19 C324.78 280.76 325.27 281.32 325.78 281.91 C329.28 285.95 329.28 285.95 329.28 288.19 C330.27 288.52 331.26 288.85 332.28 289.19 C333.5 291.08 333.5 291.08 334.66 293.44 C336.74 297.39 339.03 300.09 342.28 303.19 C343.66 305.15 345 307.15 346.28 309.19 C346.94 310.18 347.6 311.17 348.28 312.19 C348.28 313.18 348.28 314.17 348.28 315.19 C349.27 315.52 350.26 315.85 351.28 316.19 C352.71 318.15 352.71 318.15 354.16 320.69 C354.94 322.04 354.94 322.04 355.74 323.43 C357.54 326.63 359.32 329.84 361.08 333.06 C362.19 335.01 363.37 336.87 364.6 338.75 C367.86 343.9 370.47 349.39 373.15 354.86 C374.59 357.8 376.07 360.71 377.58 363.6 C377.95 364.32 378.32 365.03 378.7 365.77 C379.41 367.14 380.12 368.51 380.85 369.87 C382.69 373.45 383.72 376.14 383.28 380.19 C383.94 380.19 384.6 380.19 385.28 380.19 C388.18 386.61 388.18 386.61 388.72 389.62 C389.28 392.17 390.12 393.9 391.35 396.19 C393 399.34 393.74 401.56 393.28 405.19 C393.94 405.19 394.6 405.19 395.28 405.19 C395.53 406.24 395.78 407.29 396.03 408.37 C397.77 415.3 399.69 422.31 402.41 428.92 C403.4 431.48 403.28 433.46 403.28 436.19 C403.94 437.18 404.6 438.17 405.28 439.19 C405.64 441.52 405.97 443.85 406.28 446.19 C406.59 447.06 406.9 447.93 407.22 448.82 C408.81 453.85 409.4 458.98 410.14 464.2 C410.66 467.73 411.2 470.94 412.38 474.33 C413.48 477.82 413.41 480.73 413.28 484.37 C412.98 489.62 412.98 489.62 415.28 494.19 C415.59 496.8 415.59 496.8 415.66 499.91 C415.72 501.58 415.72 501.58 415.77 503.29 C415.79 504.45 415.82 505.61 415.85 506.81 C415.91 509.12 415.97 511.42 416.04 513.72 C416.06 514.75 416.09 515.77 416.11 516.82 C416.02 519.14 416.02 519.14 417.28 520.19 C418.57 529.37 418.21 538.43 417.6 547.65 C417.52 549.07 417.43 550.48 417.35 551.9 C417.17 554.95 416.99 558.01 416.8 561.06 C415.35 584.91 414.14 608.76 413.37 632.64 C413.34 633.63 413.31 634.61 413.27 635.63 C412.95 645.83 412.65 656.04 412.37 666.24 C412.22 671.48 412.07 676.72 411.92 681.96 C411.89 683.01 411.86 684.05 411.83 685.12 C411.39 699.69 410.66 714.21 409.69 728.75 C408 753.91 406.92 779.03 406.89 804.25 C406.89 805.72 406.89 805.72 406.89 807.23 C406.84 867.12 419.95 907.28 462.38 950.42 C485.34 973.39 510.31 994.53 536.32 1013.97 C537.36 1014.75 538.4 1015.54 539.47 1016.34 C540.38 1017.02 541.3 1017.69 542.23 1018.39 C544.28 1020.19 544.28 1020.19 545.28 1023.19 C545.38 1025.28 545.41 1027.38 545.41 1029.48 C545.42 1031.42 545.42 1031.42 545.42 1033.41 C545.42 1034.83 545.42 1036.24 545.42 1037.66 C545.42 1039.11 545.42 1040.56 545.42 1042.01 C545.42 1045.05 545.42 1048.09 545.42 1051.13 C545.41 1055.03 545.41 1058.93 545.42 1062.83 C545.42 1065.83 545.42 1068.82 545.42 1071.82 C545.42 1073.25 545.42 1074.69 545.42 1076.13 C545.42 1078.14 545.42 1080.15 545.41 1082.15 C545.41 1083.87 545.41 1083.87 545.41 1085.62 C545.28 1088.19 545.28 1088.19 544.28 1089.19 C541.91 1089.28 539.57 1089.32 537.2 1089.31 C536.44 1089.31 535.69 1089.31 534.91 1089.31 C532.34 1089.32 529.78 1089.31 527.21 1089.31 C525.35 1089.31 523.5 1089.31 521.65 1089.32 C516.51 1089.32 511.37 1089.32 506.23 1089.31 C500.66 1089.31 495.09 1089.31 489.51 1089.32 C479.73 1089.32 469.95 1089.32 460.16 1089.32 C446.29 1089.31 432.43 1089.32 418.56 1089.32 C393.41 1089.32 368.26 1089.32 343.12 1089.32 C342.37 1089.32 341.63 1089.32 340.86 1089.32 C340.11 1089.32 339.36 1089.32 338.59 1089.32 C315.86 1089.32 293.13 1089.32 270.4 1089.32 C268.88 1089.32 267.36 1089.32 265.84 1089.32 C259.73 1089.32 253.62 1089.32 247.51 1089.32 C230.43 1089.32 213.35 1089.32 196.27 1089.32 C195.1 1089.32 195.1 1089.32 193.91 1089.32 C169.11 1089.32 144.31 1089.32 119.52 1089.32 C118.71 1089.32 117.91 1089.32 117.08 1089.32 C104.01 1089.32 90.94 1089.32 77.87 1089.32 C26.04 1089.31 -25.8 1089.31 -77.63 1089.32 C-90.69 1089.32 -103.75 1089.32 -116.81 1089.32 C-117.62 1089.32 -118.42 1089.32 -119.25 1089.32 C-144.02 1089.32 -168.79 1089.32 -193.56 1089.32 C-194.34 1089.32 -195.12 1089.32 -195.92 1089.32 C-212.98 1089.32 -230.04 1089.32 -247.1 1089.32 C-253.21 1089.32 -259.31 1089.32 -265.42 1089.32 C-266.93 1089.32 -268.45 1089.32 -269.97 1089.32 C-292.7 1089.32 -315.42 1089.32 -338.15 1089.32 C-339.27 1089.32 -339.27 1089.32 -340.41 1089.32 C-341.53 1089.32 -341.53 1089.32 -342.67 1089.32 C-367.74 1089.32 -392.81 1089.32 -417.89 1089.32 C-432.36 1089.32 -446.83 1089.32 -461.3 1089.32 C-470.95 1089.32 -480.59 1089.32 -490.24 1089.32 C-495.75 1089.31 -501.26 1089.31 -506.77 1089.32 C-511.77 1089.32 -516.77 1089.32 -521.77 1089.31 C-523.58 1089.31 -525.39 1089.31 -527.19 1089.31 C-529.63 1089.32 -532.07 1089.32 -534.5 1089.31 C-535.22 1089.31 -535.93 1089.32 -536.66 1089.32 C-541.49 1089.3 -541.49 1089.3 -543.72 1088.19 C-544.77 1085.02 -544.88 1082.69 -544.94 1079.37 C-544.96 1078.18 -544.98 1076.98 -545.01 1075.75 C-545.08 1070.28 -545.14 1064.81 -545.18 1059.34 C-545.2 1056.45 -545.24 1053.57 -545.3 1050.69 C-545.37 1047.19 -545.41 1043.7 -545.42 1040.21 C-545.43 1038.25 -545.48 1036.28 -545.53 1034.32 C-545.53 1033.1 -545.53 1031.89 -545.53 1030.65 C-545.54 1029.59 -545.55 1028.53 -545.56 1027.44 C-544.28 1022.5 -541.25 1019.77 -537.72 1016.19 C-536.88 1015.32 -536.04 1014.46 -535.18 1013.57 C-532.15 1010.47 -529.09 1007.41 -526.03 1004.35 C-524.86 1003.18 -523.69 1002.01 -522.52 1000.83 C-519.36 997.67 -516.2 994.51 -513.04 991.34 C-511.07 989.37 -509.09 987.39 -507.12 985.42 C-500.23 978.52 -493.35 971.63 -486.45 964.74 C-480.03 958.31 -473.61 951.88 -467.19 945.45 C-461.67 939.92 -456.16 934.4 -450.63 928.87 C-447.34 925.58 -444.04 922.28 -440.75 918.98 C-437.66 915.88 -434.57 912.79 -431.48 909.7 C-430.34 908.56 -429.2 907.43 -428.07 906.29 C-426.52 904.74 -424.98 903.19 -423.43 901.65 C-422.56 900.78 -421.69 899.91 -420.8 899.02 C-418.72 897.19 -418.72 897.19 -416.72 897.19 C-416.72 776.74 -416.72 656.29 -416.72 532.19 C-416.39 532.19 -416.06 532.19 -415.72 532.19 C-415.73 531.5 -415.74 530.82 -415.75 530.11 C-415.82 522.61 -415.63 515.12 -415.34 507.62 C-415.29 506.18 -415.29 506.18 -415.25 504.7 C-415.21 503.79 -415.17 502.87 -415.13 501.93 C-415.1 501.11 -415.07 500.3 -415.03 499.45 C-414.69 496.99 -413.84 495.38 -412.72 493.19 C-412.44 490.33 -412.25 487.55 -412.15 484.69 C-411.98 480.41 -411.81 476.34 -410.72 472.19 C-410.47 469.83 -410.28 467.47 -410.09 465.11 C-409.97 464.48 -409.84 463.84 -409.72 463.19 C-409.06 462.86 -408.4 462.53 -407.72 462.19 C-407.25 459.6 -407.25 459.6 -407.09 456.62 C-407.02 455.61 -406.94 454.6 -406.86 453.56 C-406.79 452.38 -406.79 452.38 -406.72 451.19 C-406.39 451.19 -406.06 451.19 -405.72 451.19 C-405.64 450.03 -405.64 450.03 -405.57 448.85 C-405.49 447.85 -405.42 446.84 -405.34 445.81 C-405.27 444.81 -405.2 443.81 -405.13 442.79 C-404.72 440.19 -404.72 440.19 -402.72 438.19 C-402.26 436.21 -402.26 436.21 -402.09 434.06 C-401.9 432.14 -401.9 432.14 -401.72 430.19 C-401.39 430.19 -401.06 430.19 -400.72 430.19 C-400.39 427.55 -400.06 424.91 -399.72 422.19 C-399.06 422.19 -398.4 422.19 -397.72 422.19 C-397.39 419.88 -397.06 417.57 -396.72 415.19 C-396.06 415.19 -395.4 415.19 -394.72 415.19 C-395.05 414.2 -395.38 413.21 -395.72 412.19 C-394.72 408.03 -393.38 404.11 -391.72 400.19 C-391.06 400.19 -390.4 400.19 -389.72 400.19 C-390.05 399.2 -390.38 398.21 -390.72 397.19 C-389.74 395.51 -388.73 393.84 -387.72 392.19 C-387.01 389.86 -386.34 387.53 -385.72 385.19 C-385.08 383.51 -384.41 381.84 -383.72 380.19 C-383.34 379.26 -382.97 378.33 -382.59 377.37 C-382.3 376.65 -382.01 375.93 -381.72 375.19 C-381.06 375.19 -380.4 375.19 -379.72 375.19 C-379.72 373.21 -379.72 371.23 -379.72 369.19 C-379.06 368.86 -378.4 368.53 -377.72 368.19 C-376.88 366.1 -376.88 366.1 -376.22 363.69 C-375.5 361.22 -375.5 361.22 -374.72 359.19 C-374.06 358.86 -373.4 358.53 -372.72 358.19 C-371.88 356.1 -371.88 356.1 -371.22 353.69 C-370.5 351.22 -370.5 351.22 -369.72 349.19 C-369.06 348.86 -368.4 348.53 -367.72 348.19 C-366.88 346.1 -366.88 346.1 -366.22 343.69 C-365.5 341.22 -365.5 341.22 -364.72 339.19 C-364.06 338.86 -363.4 338.53 -362.72 338.19 C-362.39 337.2 -362.06 336.21 -361.72 335.19 C-361.06 335.19 -360.4 335.19 -359.72 335.19 C-359.57 334.57 -359.43 333.95 -359.28 333.31 C-358.52 330.44 -357.39 328.69 -355.72 326.19 C-355.03 324.86 -354.36 323.53 -353.72 322.19 C-353.06 322.19 -352.4 322.19 -351.72 322.19 C-351.39 321.2 -351.06 320.21 -350.72 319.19 C-349.93 317.67 -349.11 316.17 -348.28 314.69 C-347.85 313.91 -347.41 313.14 -346.97 312.34 C-345.95 310.58 -344.84 308.88 -343.72 307.19 C-343.06 307.19 -342.4 307.19 -341.72 307.19 C-341.39 306.2 -341.06 305.21 -340.72 304.19 C-339.21 301.45 -337.61 299.06 -335.65 296.62 C-333.7 294.34 -333.7 294.34 -332.65 292.06 C-331.61 289.97 -330.5 288.68 -328.72 287.19 C-328.06 287.19 -327.4 287.19 -326.72 287.19 C-326.68 286.5 -326.65 285.81 -326.62 285.1 C-325.3 280.83 -322.49 278.57 -319.28 275.56 C-318.09 274.42 -316.9 273.29 -315.72 272.15 C-315.19 271.65 -314.66 271.15 -314.12 270.64 C-312.48 269.03 -312.48 269.03 -310.72 266.19 C-310.26 265.75 -309.81 265.32 -309.34 264.87 C-307.52 263.1 -307.52 263.1 -305.84 260.25 C-303.73 257.2 -301.65 255.4 -298.72 253.19 C-298.39 252.53 -298.06 251.87 -297.72 251.19 C-297.06 251.19 -296.4 251.19 -295.72 251.19 C-295.51 250.63 -295.3 250.07 -295.09 249.5 C-293.54 246.9 -291.65 245.34 -289.29 243.48 C-287.48 242.04 -287.48 242.04 -285.15 239.56 C-282.81 237.28 -280.5 235.86 -277.72 234.19 C-277.72 233.53 -277.72 232.87 -277.72 232.19 C-276.05 231.19 -274.38 230.19 -272.72 229.19 C-271.03 227.54 -269.36 225.87 -267.72 224.19 C-264.72 222.19 -264.72 222.19 -261.72 222.19 C-261.45 221.59 -261.19 220.99 -260.92 220.38 C-258.11 215.26 -252.67 212.02 -247.72 209.19 C-247.06 208.53 -246.4 207.87 -245.72 207.19 C-244.4 207.19 -243.08 207.19 -241.72 207.19 C-241.39 206.2 -241.06 205.21 -240.72 204.19 C-239.07 203.16 -237.4 202.15 -235.72 201.19 C-235.39 200.53 -235.06 199.87 -234.72 199.19 C-231.68 197.3 -230.47 197.19 -226.72 197.19 C-226.72 196.2 -226.72 195.21 -226.72 194.19 C-225.73 194.19 -224.74 194.19 -223.72 194.19 C-223.72 193.53 -223.72 192.87 -223.72 192.19 C-222.07 191.86 -220.42 191.53 -218.72 191.19 C-218.72 190.53 -218.72 189.87 -218.72 189.19 C-217.23 188.6 -217.23 188.6 -215.72 188 C-212.04 186.43 -208.76 184.44 -205.41 182.27 C-203.72 181.19 -203.72 181.19 -201.72 180.19 C-201.12 179.69 -200.52 179.2 -199.9 178.69 C-197.48 177.02 -195.6 176.59 -192.72 176.19 C-192.72 175.53 -192.72 174.87 -192.72 174.19 C-191.07 173.86 -189.42 173.53 -187.72 173.19 C-187.72 172.86 -187.72 172.53 -187.72 172.19 C-185.74 171.86 -183.76 171.53 -181.72 171.19 C-181.72 170.53 -181.72 169.87 -181.72 169.19 C-178.27 166.89 -175.78 166.65 -171.72 166.19 C-171.72 165.53 -171.72 164.87 -171.72 164.19 C-170.67 163.9 -170.67 163.9 -169.6 163.6 C-168.69 163.34 -167.78 163.08 -166.84 162.81 C-165.94 162.56 -165.03 162.3 -164.1 162.04 C-161.57 161.32 -161.57 161.32 -159.72 159.19 C-157.72 158.84 -155.72 158.51 -153.72 158.19 C-151.56 157.24 -151.56 157.24 -149.72 156.19 C-148.73 155.86 -147.74 155.53 -146.72 155.19 C-146.72 154.86 -146.72 154.53 -146.72 154.19 C-145.94 153.98 -145.17 153.78 -144.38 153.56 C-143.38 153.29 -142.37 153.03 -141.34 152.75 C-140.34 152.48 -139.34 152.21 -138.32 151.94 C-135.76 151.28 -135.76 151.28 -133.72 150.19 C-133.72 149.86 -133.72 149.53 -133.72 149.19 C-131.08 148.86 -128.44 148.53 -125.72 148.19 C-125.72 147.86 -125.72 147.53 -125.72 147.19 C-123.08 146.86 -120.44 146.53 -117.72 146.19 C-117.72 145.53 -117.72 144.87 -117.72 144.19 C-114.75 143.86 -111.78 143.53 -108.72 143.19 C-108.72 142.86 -108.72 142.53 -108.72 142.19 C-105.75 141.86 -102.78 141.53 -99.72 141.19 C-99.72 140.53 -99.72 139.87 -99.72 139.19 C-98.73 139.19 -97.74 139.19 -96.72 139.19 C-96.72 123.35 -96.72 107.51 -96.72 91.19 C-96.39 91.19 -96.06 91.19 -95.72 91.19 C-95.67 89.98 -95.62 88.78 -95.57 87.54 C-95.49 85.96 -95.42 84.39 -95.34 82.81 C-95.29 81.62 -95.29 81.62 -95.25 80.4 C-94.94 74.41 -94.94 74.41 -92.72 72.19 C-92.15 70.03 -91.66 67.86 -91.22 65.69 C-89.94 59.41 -89.94 59.41 -87.72 57.19 C-86.88 55.14 -86.19 53.06 -85.5 50.96 C-84.72 49.19 -84.72 49.19 -82.72 48.19 C-82.61 47.44 -82.51 46.7 -82.4 45.94 C-81.47 42.2 -79.53 40.74 -76.72 38.19 C-74.19 35.88 -72.77 34.3 -71.28 31.19 C-69.11 27.02 -66.26 25.1 -62.28 22.75 C-58.67 20.55 -54.64 18.03 -52.72 14.19 C-51.83 13.9 -50.94 13.61 -50.03 13.31 C-46.42 12.09 -43.83 10.35 -40.72 8.19 C-38.05 6.7 -35.66 5.92 -32.72 5.19 C-32.06 4.83 -31.4 4.48 -30.72 4.12 C-28.72 3.19 -28.72 3.19 -24.72 3.19 C-25.38 2.53 -26.04 1.87 -26.72 1.19 C-17.81 0.04 -8.96 -0 0 0 Z M-29.72 258.19 C-32 258.43 -34.29 258.62 -36.59 258.75 C-40.47 258.63 -40.47 258.63 -43.72 260.19 C-46.04 260.54 -48.38 260.84 -50.72 261.12 C-60.49 262.1 -60.49 262.1 -69.7 265.19 C-71.78 266.22 -73.57 266.68 -75.84 267.12 C-83.86 268.81 -91.48 271.42 -99.15 274.27 C-102.31 275.4 -105.48 276.32 -108.72 277.19 C-108.72 277.85 -108.72 278.51 -108.72 279.19 C-109.44 279.31 -110.16 279.43 -110.9 279.56 C-115.79 280.65 -120.05 282.8 -124.48 285.05 C-126.04 285.84 -127.6 286.62 -129.17 287.38 C-134.58 290.02 -139.67 292.92 -144.72 296.19 C-146.11 297.06 -147.51 297.94 -148.9 298.81 C-149.57 299.23 -150.23 299.64 -150.91 300.07 C-153.17 301.47 -155.44 302.82 -157.72 304.19 C-159.05 304.99 -160.38 305.81 -161.72 306.62 C-162.67 307.21 -162.67 307.21 -163.65 307.81 C-168.97 311.36 -173.78 315.7 -178.7 319.77 C-180.93 321.55 -183.16 323.24 -185.46 324.92 C-189.54 327.97 -193.17 331.31 -196.77 334.9 C-197.4 335.53 -198.03 336.15 -198.67 336.79 C-199.98 338.09 -201.29 339.39 -202.6 340.7 C-204.6 342.69 -206.61 344.67 -208.62 346.64 C-209.9 347.92 -211.18 349.19 -212.46 350.47 C-213.06 351.05 -213.66 351.64 -214.27 352.24 C-217.67 355.67 -219.57 358.35 -220.72 363.19 C-221.38 363.19 -222.04 363.19 -222.72 363.19 C-224.07 364.86 -225.35 366.6 -226.59 368.37 C-228.64 371.28 -230.68 374.14 -232.93 376.9 C-234.65 379.11 -235.31 380.45 -235.72 383.19 C-236.38 383.19 -237.04 383.19 -237.72 383.19 C-239.29 385.36 -240.73 387.53 -242.15 389.81 C-242.75 390.74 -242.75 390.74 -243.35 391.68 C-245.71 395.42 -247.79 399.2 -249.72 403.19 C-250.71 404.86 -251.71 406.52 -252.72 408.19 C-254.41 411.17 -256.08 414.17 -257.72 417.19 C-258.1 417.85 -258.48 418.52 -258.87 419.21 C-259.98 421.44 -259.98 421.44 -259.72 425.19 C-260.38 425.19 -261.04 425.19 -261.72 425.19 C-262.22 426.62 -262.72 428.06 -263.22 429.5 C-263.49 430.3 -263.77 431.1 -264.06 431.92 C-264.85 434.27 -264.85 434.27 -264.72 437.19 C-265.38 437.19 -266.04 437.19 -266.72 437.19 C-266.98 438.36 -267.25 439.54 -267.53 440.75 C-268.53 444.77 -270.01 448.41 -271.72 452.19 C-272.09 453.13 -272.46 454.08 -272.84 455.06 C-273.72 457.19 -273.72 457.19 -274.72 458.19 C-274.95 460.19 -275.17 462.2 -275.4 464.2 C-275.76 466.49 -276.65 468.13 -277.72 470.19 C-278.08 472.51 -278.41 474.85 -278.72 477.19 C-279.01 478.75 -279.32 480.31 -279.65 481.87 C-279.81 482.6 -279.96 483.32 -280.12 484.07 C-280.72 486.19 -280.72 486.19 -281.78 488.15 C-283.22 491.28 -282.76 494.17 -282.59 497.55 C-282.72 500.19 -282.72 500.19 -283.68 502.79 C-285.18 507.72 -285.14 512.56 -285.28 517.69 C-285.34 519.72 -285.4 521.75 -285.47 523.78 C-285.49 524.67 -285.52 525.57 -285.54 526.49 C-285.72 529.19 -285.72 529.19 -286.22 531.9 C-286.76 535.49 -286.84 538.89 -286.84 542.53 C-286.84 543.25 -286.84 543.97 -286.85 544.71 C-286.85 547.13 -286.85 549.54 -286.84 551.96 C-286.84 553.71 -286.84 555.46 -286.85 557.21 C-286.85 562.01 -286.85 566.82 -286.85 571.63 C-286.84 576.81 -286.85 582 -286.85 587.18 C-286.85 597.34 -286.85 607.49 -286.85 617.64 C-286.85 625.89 -286.85 634.14 -286.85 642.39 C-286.85 643.56 -286.85 644.73 -286.85 645.94 C-286.85 648.33 -286.85 650.71 -286.85 653.09 C-286.85 675.44 -286.85 697.78 -286.84 720.13 C-286.84 739.33 -286.84 758.52 -286.85 777.71 C-286.85 799.99 -286.85 822.26 -286.85 844.53 C-286.85 846.91 -286.85 849.28 -286.85 851.65 C-286.85 852.82 -286.85 853.99 -286.85 855.19 C-286.85 863.43 -286.85 871.68 -286.85 879.93 C-286.85 889.96 -286.85 900 -286.85 910.04 C-286.85 915.16 -286.84 920.29 -286.85 925.42 C-286.85 930.1 -286.85 934.79 -286.84 939.47 C-286.84 941.17 -286.84 942.88 -286.85 944.58 C-286.85 946.88 -286.85 949.17 -286.84 951.47 C-286.84 952.75 -286.84 954.04 -286.84 955.36 C-287.04 958.09 -287.04 958.09 -285.72 959.19 C-282.68 959.28 -279.66 959.32 -276.63 959.31 C-275.17 959.31 -275.17 959.31 -273.69 959.31 C-270.39 959.31 -267.1 959.31 -263.8 959.31 C-261.44 959.31 -259.07 959.31 -256.7 959.31 C-251.53 959.31 -246.35 959.31 -241.18 959.3 C-233.49 959.3 -225.8 959.3 -218.11 959.3 C-205.18 959.3 -192.24 959.3 -179.31 959.29 C-166.49 959.29 -153.68 959.28 -140.87 959.28 C-140.07 959.28 -139.28 959.28 -138.46 959.28 C-134.42 959.28 -130.38 959.28 -126.33 959.28 C-97.69 959.28 -69.05 959.27 -40.4 959.26 C-12.57 959.25 15.27 959.24 43.1 959.24 C43.96 959.24 44.82 959.24 45.7 959.24 C54.31 959.24 62.92 959.24 71.53 959.24 C89.07 959.23 106.62 959.23 124.16 959.23 C124.96 959.23 125.77 959.23 126.6 959.23 C180.5 959.22 234.39 959.2 288.28 959.19 C288.35 904.81 288.41 850.44 288.44 796.07 C288.44 789.64 288.45 783.22 288.45 776.79 C288.45 775.51 288.45 774.23 288.45 772.91 C288.47 752.23 288.49 731.54 288.52 710.86 C288.54 689.62 288.56 668.37 288.57 647.13 C288.57 634.03 288.58 620.94 288.61 607.84 C288.62 598.85 288.63 589.85 288.63 580.86 C288.62 575.68 288.63 570.5 288.64 565.32 C288.73 536.36 288.73 536.36 285.64 507.6 C284.9 502.55 284.51 497.47 284.09 492.39 C283.68 487.72 282.55 483.64 280.98 479.23 C280.13 476.74 279.67 474.28 279.28 471.69 C278.43 466.62 277.05 462 275.28 457.19 C274.96 456.29 274.64 455.39 274.31 454.46 C272.58 449.66 270.81 444.87 269 440.09 C268.5 438.76 268.02 437.43 267.54 436.09 C266.12 432.15 264.5 428.76 262.28 425.19 C261.6 423.53 260.93 421.86 260.28 420.19 C258.15 414.73 256.01 409.37 253.28 404.19 C252.62 404.19 251.96 404.19 251.28 404.19 C251.1 403.24 250.91 402.29 250.72 401.31 C249.19 395.87 245.59 391.67 242.28 387.19 C241.53 386.07 240.77 384.94 240.03 383.81 C237.79 380.4 237.79 380.4 235.28 377.19 C234.62 377.19 233.96 377.19 233.28 377.19 C233.18 376.63 233.08 376.07 232.97 375.5 C231.71 371.26 229.44 368.2 226.28 365.19 C225.95 364.53 225.62 363.87 225.28 363.19 C224.62 363.19 223.96 363.19 223.28 363.19 C223.02 362.44 222.75 361.7 222.47 360.94 C221.32 358.28 220.25 356.31 218.28 354.19 C217.29 354.19 216.3 354.19 215.28 354.19 C215.28 353.53 215.28 352.87 215.28 352.19 C214.62 352.19 213.96 352.19 213.28 352.19 C212.95 351.2 212.62 350.21 212.28 349.19 C209.23 345 205.64 341.39 201.97 337.75 C201.39 337.17 200.81 336.59 200.21 336 C196.37 332.21 192.5 328.56 188.28 325.19 C187.54 324.58 186.8 323.97 186.03 323.34 C180.64 318.96 175.11 314.85 169.44 310.85 C167.28 309.19 167.28 309.19 166.28 307.19 C162.5 304.94 162.5 304.94 158.28 304.19 C158.28 303.53 158.28 302.87 158.28 302.19 C157.58 301.81 156.88 301.44 156.16 301.05 C151.77 298.68 147.41 296.33 143.22 293.62 C136.12 289.11 128.4 285.73 120.73 282.3 C119.18 281.59 117.65 280.85 116.15 280.04 C114.17 278.98 114.17 278.98 111.28 279.19 C111.28 278.53 111.28 277.87 111.28 277.19 C110.36 276.94 109.43 276.69 108.47 276.44 C105.25 275.52 102.12 274.41 98.97 273.25 C90.66 270.19 82.27 267.87 73.66 265.83 C71.28 265.19 71.28 265.19 70.28 264.19 C68.81 263.82 67.33 263.49 65.85 263.19 C63.44 262.69 61.48 262.28 59.28 261.19 C55.91 260.87 52.54 260.67 49.16 260.47 C46.28 260.19 46.28 260.19 45.28 259.19 C42.09 258.9 38.89 258.74 35.68 258.56 C32.28 258.19 32.28 258.19 29.76 257.18 C24.89 255.79 20.27 255.9 15.23 255.92 C14.16 255.92 13.1 255.92 12.01 255.91 C9.76 255.91 7.52 255.92 5.28 255.92 C1.86 255.94 -1.56 255.92 -4.97 255.91 C-7.16 255.91 -9.34 255.92 -11.52 255.92 C-12.54 255.92 -13.56 255.91 -14.61 255.91 C-20.07 255.94 -24.54 256.46 -29.72 258.19 Z " fill="#ffffff" transform="translate(638.715087890625,-0.185302734375)"/>
<path d="M0 0 C0.89 -0 1.77 -0.01 2.68 -0.01 C3.67 -0.01 4.65 -0.01 5.67 -0.01 C6.7 -0.01 7.74 -0.01 8.81 -0.01 C12.31 -0.02 15.81 -0.02 19.31 -0.02 C21.81 -0.02 24.31 -0.02 26.81 -0.03 C32.91 -0.03 39.01 -0.04 45.12 -0.04 C50.07 -0.04 55.03 -0.04 59.99 -0.04 C74.03 -0.05 88.07 -0.06 102.11 -0.06 C103.24 -0.06 103.24 -0.06 104.4 -0.06 C105.16 -0.06 105.92 -0.06 106.7 -0.06 C119 -0.06 131.3 -0.07 143.59 -0.08 C156.21 -0.09 168.82 -0.1 181.43 -0.1 C188.52 -0.1 195.61 -0.1 202.7 -0.11 C209.36 -0.12 216.02 -0.12 222.68 -0.12 C225.13 -0.11 227.59 -0.12 230.04 -0.12 C233.37 -0.13 236.71 -0.13 240.04 -0.12 C241.02 -0.12 242 -0.13 243.01 -0.13 C243.9 -0.13 244.79 -0.12 245.71 -0.12 C246.48 -0.12 247.25 -0.12 248.04 -0.12 C249.92 0.13 249.92 0.13 251.92 2.13 C251.93 4.19 251.93 4.19 251.6 6.57 C251.45 7.74 251.45 7.74 251.3 8.94 C250.92 11.13 250.92 11.13 249.92 14.13 C249.89 17.16 249.98 20.18 250.08 23.22 C249.91 26.19 249.34 27.58 247.92 30.13 C247.56 31.51 247.25 32.91 246.98 34.32 C245.99 39.06 244.52 43.56 242.92 48.13 C242.59 49.12 242.26 50.11 241.92 51.13 C241.26 51.13 240.6 51.13 239.92 51.13 C239.8 52.11 239.8 52.11 239.67 53.11 C238.64 57.22 236.78 60.67 234.79 64.38 C234.39 65.14 233.98 65.89 233.56 66.68 C229.19 74.68 224.09 81.32 217.4 87.52 C215.81 89.09 215.81 89.09 214.88 91.21 C213.37 94.21 210.71 95.34 207.92 97.13 C206.8 98.05 205.69 98.99 204.6 99.94 C197.7 105.92 191.14 110.77 182.85 114.71 C179.44 116.36 176.2 118.21 172.95 120.15 C170.62 121.27 168.45 121.67 165.92 122.13 C164.05 122.85 162.18 123.57 160.31 124.3 C156.4 125.65 152.38 126.54 148.36 127.48 C145.99 127.89 145.99 127.89 144.92 129.13 C143.55 129.23 142.18 129.27 140.81 129.27 C139.5 129.28 139.5 129.28 138.17 129.29 C136.75 129.29 136.75 129.29 135.3 129.3 C134.33 129.3 133.36 129.3 132.36 129.31 C130.31 129.31 128.26 129.31 126.21 129.31 C123.06 129.32 119.92 129.33 116.77 129.35 C114.78 129.36 112.79 129.36 110.8 129.36 C109.85 129.37 108.91 129.37 107.94 129.38 C106.62 129.38 106.62 129.38 105.28 129.37 C104.51 129.37 103.74 129.37 102.94 129.38 C100.92 129.13 100.92 129.13 97.92 127.13 C95.68 126.56 95.68 126.56 93.23 126.19 C89.19 125.45 85.58 124.38 81.78 122.84 C79.66 121.99 79.66 121.99 76.35 121.19 C73.28 120.24 70.87 119.06 68.14 117.4 C64.49 115.31 60.68 113.51 56.89 111.68 C53.64 110.08 50.73 108.41 47.92 106.13 C47.19 105.57 46.47 105.01 45.73 104.44 C42.4 101.7 39.2 98.83 36 95.93 C33.84 93.99 33.84 93.99 30.92 92.13 C30.59 91.14 30.26 90.15 29.92 89.13 C28.93 88.47 27.94 87.81 26.92 87.13 C23.06 83.14 19.96 78.75 16.92 74.13 C16.43 73.68 15.95 73.24 15.45 72.78 C13.5 70.68 12.61 68.57 11.48 65.94 C11.05 64.97 10.62 64 10.18 63 C9.76 62.05 9.35 61.1 8.92 60.13 C6.85 54.81 6.85 54.81 2.92 51.13 C2.17 49.12 2.17 49.12 1.48 46.57 C0.57 43.34 -0.39 40.23 -1.65 37.13 C-4.52 29.51 -5.29 21.83 -5.77 13.75 C-5.82 12.97 -5.87 12.18 -5.92 11.37 C-6.1 7.75 -6.17 4.6 -5.08 1.13 C-3.55 -0.41 -2.14 0 0 0 Z " fill="#ffffff" transform="translate(517.0842733383179,1150.8713655471802)"/>
<path d="M0 0 C83.82 0 167.64 0 254 0 C254 0.33 254 0.66 254 1 C170.18 1 86.36 1 0 1 C0 0.67 0 0.34 0 0 Z " fill="#ffffff" transform="translate(511,1149)"/>
<path d="M0 0 C16.17 0 32.34 0 49 0 C49 0.33 49 0.66 49 1 C32.83 1 16.66 1 0 1 C0 0.67 0 0.34 0 0 Z " fill="#FDFDFD" transform="translate(616,257)"/>
<path d="M0 0 C0.33 0 0.66 0 1 0 C1 4.62 1 9.24 1 14 C0.67 14 0.34 14 0 14 C0 9.38 0 4.76 0 0 Z " fill="#FDFDFD" transform="translate(1055,505)"/>
<path d="M0 0 C0.66 0.33 1.32 0.66 2 1 C1.01 1.66 0.02 2.32 -1 3 C-0.67 2.01 -0.34 1.02 0 0 Z " fill="#ffffff" transform="translate(329,263)"/>
<path d="M0 0 C1.65 0 3.3 0 5 0 C5 0.33 5 0.66 5 1 C3.35 1 1.7 1 0 1 C0 0.67 0 0.34 0 0 Z " fill="#FDFDFD" transform="translate(693,262)"/>
<path d="M0 0 C0.66 0.33 1.32 0.66 2 1 C1.01 1.66 0.02 2.32 -1 3 C-0.67 2.01 -0.34 1.02 0 0 Z " fill="#ffffff" transform="translate(359,233)"/>
<path d="M0 0 C0.33 0 0.66 0 1 0 C1 1.65 1 3.3 1 5 C0.67 5 0.34 5 0 5 C0 3.35 0 1.7 0 0 Z " fill="#FDFDFD" transform="translate(735,79)"/>
<path d="M0 0 C1 4 1 4 1 4 Z " fill="#FDFDFD" transform="translate(355,506)"/>
<path d="M0 0 C4 1 4 1 4 1 Z " fill="#FDFDFD" transform="translate(680,260)"/>
<path d="M0 0 C4 1 4 1 4 1 Z " fill="#FDFDFD" transform="translate(596,260)"/>
<path d="" fill="#FDFDFD" transform="translate(0,0)"/>
<path d="" fill="#FDFDFD" transform="translate(0,0)"/>
<path d="M0 0 C2 1 2 1 2 1 Z " fill="#FDFDFD" transform="translate(676,1275)"/>
<path d="M0 0 C2 1 2 1 2 1 Z " fill="#FDFDFD" transform="translate(602,1275)"/>
<path d="M0 0 C2 1 2 1 2 1 Z " fill="#FDFDFD" transform="translate(594,1272)"/>
<path d="" fill="#FDFDFD" transform="translate(0,0)"/>
<path d="" fill="#FDFDFD" transform="translate(0,0)"/>
<path d="" fill="#FDFDFD" transform="translate(0,0)"/>
<path d="M0 0 C2 1 2 1 2 1 Z " fill="#FDFDFD" transform="translate(707,265)"/>
<path d="M0 0 C2 1 2 1 2 1 Z " fill="#FDFDFD" transform="translate(571,265)"/>
<path d="" fill="#FDFDFD" transform="translate(0,0)"/>
<path d="" fill="#FDFDFD" transform="translate(0,0)"/>
<path d="" fill="#FDFDFD" transform="translate(0,0)"/>
<path d="" fill="#FDFDFD" transform="translate(0,0)"/>
<path d="" fill="#ffffff" transform="translate(0,0)"/>
<path d="" fill="#ffffff" transform="translate(0,0)"/>
<path d="" fill="#ffffff" transform="translate(0,0)"/>
<path d="" fill="#ffffff" transform="translate(0,0)"/>
<path d="" fill="#FDFDFD" transform="translate(0,0)"/>
<path d="" fill="#FDFDFD" transform="translate(0,0)"/>
<path d="" fill="#ffffff" transform="translate(0,0)"/>
<path d="" fill="#FDFDFD" transform="translate(0,0)"/>
<path d="" fill="#ffffff" transform="translate(0,0)"/>
<path d="" fill="#FDFDFD" transform="translate(0,0)"/>
<path d="" fill="#FDFDFD" transform="translate(0,0)"/>
<path d="" fill="#ffffff" transform="translate(0,0)"/>
<path d="" fill="#ffffff" transform="translate(0,0)"/>
<path d="" fill="#FDFDFD" transform="translate(0,0)"/>
<path d="" fill="#ffffff" transform="translate(0,0)"/>
<path d="" fill="#ffffff" transform="translate(0,0)"/>
<path d="" fill="#FDFDFD" transform="translate(0,0)"/>
<path d="" fill="#FDFDFD" transform="translate(0,0)"/>
<path d="" fill="#FDFDFD" transform="translate(0,0)"/>
<path d="" fill="#FDFDFD" transform="translate(0,0)"/>
<path d="" fill="#FDFDFD" transform="translate(0,0)"/>
<path d="" fill="#FDFDFD" transform="translate(0,0)"/>
<path d="" fill="#FDFDFD" transform="translate(0,0)"/>
<path d="" fill="#FDFDFD" transform="translate(0,0)"/>
<path d="" fill="#ffffff" transform="translate(0,0)"/>
<path d="" fill="#ffffff" transform="translate(0,0)"/>
<path d="" fill="#ffffff" transform="translate(0,0)"/>
<path d="" fill="#FDFDFD" transform="translate(0,0)"/>
<path d="" fill="#ffffff" transform="translate(0,0)"/>
<path d="" fill="#ffffff" transform="translate(0,0)"/>
<path d="" fill="#ffffff" transform="translate(0,0)"/>
<path d="" fill="#ffffff" transform="translate(0,0)"/>
<path d="" fill="#ffffff" transform="translate(0,0)"/>
<path d="" fill="#ffffff" transform="translate(0,0)"/>
<path d="" fill="#FDFDFD" transform="translate(0,0)"/>
<path d="" fill="#FDFDFD" transform="translate(0,0)"/>
<path d="" fill="#FDFDFD" transform="translate(0,0)"/>
<path d="" fill="#FDFDFD" transform="translate(0,0)"/>
<path d="" fill="#FDFDFD" transform="translate(0,0)"/>
<path d="" fill="#FDFDFD" transform="translate(0,0)"/>
<path d="" fill="#FDFDFD" transform="translate(0,0)"/>
<path d="" fill="#ffffff" transform="translate(0,0)"/>
<path d="" fill="#FDFDFD" transform="translate(0,0)"/>
<path d="" fill="#FDFDFD" transform="translate(0,0)"/>
<path d="" fill="#ffffff" transform="translate(0,0)"/>
<path d="" fill="#FDFDFD" transform="translate(0,0)"/>
<path d="" fill="#FDFDFD" transform="translate(0,0)"/>
<path d="" fill="#FDFDFD" transform="translate(0,0)"/>
<path d="" fill="#ffffff" transform="translate(0,0)"/>
<path d="" fill="#ffffff" transform="translate(0,0)"/>
<path d="" fill="#ffffff" transform="translate(0,0)"/>
<path d="" fill="#ffffff" transform="translate(0,0)"/>
<path d="" fill="#ffffff" transform="translate(0,0)"/>
<path d="" fill="#ffffff" transform="translate(0,0)"/>
<path d="" fill="#ffffff" transform="translate(0,0)"/>
<path d="" fill="#ffffff" transform="translate(0,0)"/>
<path d="" fill="#ffffff" transform="translate(0,0)"/>
<path d="" fill="#ffffff" transform="translate(0,0)"/>
<path d="" fill="#ffffff" transform="translate(0,0)"/>
<path d="" fill="#ffffff" transform="translate(0,0)"/>
<path d="" fill="#ffffff" transform="translate(0,0)"/>
<path d="" fill="#ffffff" transform="translate(0,0)"/>
<path d="" fill="#ffffff" transform="translate(0,0)"/>
<path d="" fill="#ffffff" transform="translate(0,0)"/>
</svg>
