<?xml version="1.0" encoding="UTF-8"?>
<!-- Generator: visioncortex VTracer 0.6.3 -->
<svg version="1.1" xmlns="http://www.w3.org/2000/svg" width="1280" height="1280">
<path d="M0 0 C1.32 -0 1.32 -0 2.66 -0.01 C5.57 -0.01 8.48 -0.01 11.39 -0 C13.41 -0 15.43 -0.01 17.45 -0.01 C21.7 -0.01 25.94 -0.01 30.18 -0 C35.61 0 41.04 0 46.47 -0 C50.65 -0.01 54.82 -0.01 59 -0 C61 -0 63 -0 65.01 -0.01 C67.81 -0.01 70.61 -0.01 73.41 0 C74.24 -0 75.06 -0 75.91 -0.01 C80.2 0.01 84.18 0.33 88.4 1.13 C91.15 1.16 93.87 1.07 96.62 0.97 C99.4 1.13 99.4 1.13 102.27 2.1 C107.06 3.67 111.84 3.58 116.84 3.79 C120.16 4.11 122.37 4.84 125.4 6.13 C127.39 6.13 129.38 6.13 131.37 6.07 C134.55 6.16 137.37 7.19 140.4 8.13 C145.06 9.18 149.72 10.07 154.46 10.63 C155.43 10.79 156.4 10.96 157.4 11.13 C157.73 11.79 158.06 12.45 158.4 13.13 C159.54 13.07 160.67 13.01 161.84 12.94 C165.88 12.95 169.03 13.83 172.8 15.21 C175.87 16.29 178.96 17.18 182.09 18.07 C183.28 18.41 184.48 18.74 185.71 19.09 C188.15 19.78 190.59 20.46 193.03 21.13 C199.46 22.93 205.75 24.9 212.01 27.26 C214.02 27.99 216.09 28.61 218.15 29.19 C220.98 30.01 223.57 31.02 226.26 32.21 C232.54 34.9 238.97 37.26 245.4 39.57 C254 42.77 262.21 47.01 270.4 51.13 C271.69 51.77 272.97 52.42 274.26 53.06 C276.26 54.06 278.25 55.06 280.25 56.05 C283.41 57.64 286.58 59.21 289.75 60.77 C303.46 67.5 303.46 67.5 308.4 71.13 C308.4 71.79 308.4 72.45 308.4 73.13 C309.1 73.23 309.8 73.34 310.53 73.44 C313.84 74.24 316.47 75.4 319.4 77.13 C319.73 78.12 320.06 79.11 320.4 80.13 C322.23 80.7 322.23 80.7 324.4 81.13 C326.01 81.94 327.59 82.8 329.15 83.69 C330.35 84.37 330.35 84.37 331.57 85.07 C332.18 85.42 332.78 85.77 333.4 86.13 C333.4 86.79 333.4 87.45 333.4 88.13 C335.71 88.46 338.02 88.79 340.4 89.13 C340.73 90.12 341.06 91.11 341.4 92.13 C343.58 93.71 343.58 93.71 346.21 95.13 C354.85 100.03 354.85 100.03 356.4 103.13 C357.72 103.82 359.06 104.48 360.4 105.13 C361.84 106.1 363.26 107.1 364.65 108.13 C365.71 108.9 365.71 108.9 366.79 109.69 C367.32 110.17 367.85 110.64 368.4 111.13 C368.4 111.79 368.4 112.45 368.4 113.13 C369.33 113.35 369.33 113.35 370.28 113.57 C372.4 114.13 372.4 114.13 374.4 115.13 C374.4 115.79 374.4 116.45 374.4 117.13 C375.24 117.53 375.24 117.53 376.09 117.94 C378.61 119.24 381.04 120.55 383.4 122.13 C383.4 122.79 383.4 123.45 383.4 124.13 C384.39 124.46 385.38 124.79 386.4 125.13 C386.4 125.79 386.4 126.45 386.4 127.13 C386.94 127.36 387.47 127.58 388.03 127.82 C392.15 130.09 395.87 132.53 397.4 137.13 C398.39 137.13 399.38 137.13 400.4 137.13 C400.4 137.79 400.4 138.45 400.4 139.13 C401.06 139.13 401.72 139.13 402.4 139.13 C402.73 140.12 403.06 141.11 403.4 142.13 C405.78 143.74 405.78 143.74 408.4 145.13 C409.39 145.79 410.38 146.45 411.4 147.13 C411.4 147.79 411.4 148.45 411.4 149.13 C412.39 149.46 413.38 149.79 414.4 150.13 C414.4 150.79 414.4 151.45 414.4 152.13 C414.94 152.34 415.47 152.54 416.03 152.75 C419.32 154.66 421.99 157.18 424.4 160.13 C424.4 160.79 424.4 161.45 424.4 162.13 C425.06 162.13 425.72 162.13 426.4 162.13 C426.4 162.79 426.4 163.45 426.4 164.13 C427.06 164.13 427.72 164.13 428.4 164.13 C430.13 165.81 430.13 165.81 432.03 168 C432.66 168.72 433.29 169.44 433.94 170.18 C435.4 172.13 435.4 172.13 435.4 174.13 C436.24 174.47 436.24 174.47 437.09 174.82 C440.82 176.93 443.59 179.71 445.71 183.44 C447.38 186.1 449.1 187.89 451.34 190.07 C454.56 193.2 456.98 196.33 459.4 200.13 C460.41 201.33 461.43 202.52 462.46 203.69 C464.8 206.36 466.62 209.05 468.4 212.13 C470.43 214.74 472.53 217.28 474.65 219.82 C476.4 222.13 476.4 222.13 476.4 224.13 C477.06 224.13 477.72 224.13 478.4 224.13 C480.4 227.13 480.4 227.13 480.4 230.13 C481.39 230.46 482.38 230.79 483.4 231.13 C485.4 234.13 485.4 234.13 485.4 237.13 C486.06 237.13 486.72 237.13 487.4 237.13 C488.75 238.91 490 240.76 491.21 242.63 C491.93 243.73 492.64 244.83 493.37 245.96 C494.04 247 494.71 248.05 495.4 249.13 C495.89 249.89 496.39 250.65 496.9 251.43 C498.91 254.56 500.72 257.71 502.34 261.07 C503.75 263.99 505.35 266.59 507.21 269.25 C509.9 273.19 512.13 277.26 514.28 281.5 C514.59 282.11 514.9 282.72 515.22 283.34 C516.6 286.15 517.4 287.96 517.4 291.13 C518.06 291.13 518.72 291.13 519.4 291.13 C520.07 292.75 520.74 294.38 521.4 296 C521.77 296.91 522.14 297.81 522.53 298.75 C523.4 301.13 523.4 301.13 523.4 303.13 C524.06 303.13 524.72 303.13 525.4 303.13 C525.62 303.71 525.84 304.29 526.07 304.9 C527.96 309.8 530.05 314.51 532.46 319.19 C534.95 324.07 536.86 328.88 538.4 334.13 C539.43 337.56 540.46 340.23 542.31 343.32 C544.48 347.07 545.76 350.85 546.96 355 C547.39 356.42 547.81 357.83 548.23 359.24 C548.53 360.25 548.53 360.25 548.84 361.28 C549.55 363.6 550.34 365.9 551.15 368.19 C552.39 371.8 552.87 375.35 553.4 379.13 C554.06 380.12 554.72 381.11 555.4 382.13 C555.95 384.07 556.45 386.03 556.9 388 C557.58 390.94 558.22 393.7 559.4 396.48 C561.04 400.83 561.54 405.4 562.26 409.98 C562.88 413.77 563.61 416.71 565.4 420.13 C565.78 422.64 565.78 422.64 565.96 425.25 C566.18 428.83 566.18 428.83 567.4 432.13 C567.67 434.3 567.85 436.47 568.02 438.65 C568.33 441.23 568.33 441.23 569.44 443.98 C570.55 447.6 570.53 450.54 570.4 454.32 C570.1 459.57 570.1 459.57 572.4 464.13 C572.7 466.29 572.7 466.29 572.78 468.76 C572.83 470.09 572.83 470.09 572.88 471.45 C572.91 472.38 572.94 473.3 572.96 474.25 C573.02 476.09 573.09 477.93 573.16 479.76 C573.18 480.58 573.2 481.39 573.23 482.23 C573.2 484.14 573.2 484.14 574.4 485.13 C575.24 489.87 575.53 494.44 575.53 499.25 C575.53 499.93 575.53 500.6 575.54 501.29 C575.54 503.5 575.54 505.71 575.53 507.92 C575.53 509.48 575.54 511.03 575.54 512.58 C575.54 515.83 575.54 519.08 575.53 522.33 C575.53 526.47 575.53 530.6 575.54 534.73 C575.54 537.94 575.54 541.15 575.53 544.36 C575.53 545.88 575.54 547.4 575.54 548.93 C575.56 567.16 575.56 567.16 574.4 575.13 C574.07 575.46 573.74 575.79 573.4 576.13 C573.26 577.46 573.17 578.79 573.12 580.13 C573.06 581.34 573.06 581.34 573.01 582.57 C572.97 583.41 572.94 584.26 572.9 585.13 C572.83 586.8 572.76 588.46 572.68 590.13 C572.65 590.87 572.62 591.61 572.59 592.38 C572.4 594.13 572.4 594.13 571.4 595.13 C571.11 598.62 570.95 602.11 570.78 605.61 C570.42 608.92 569.63 611.09 568.4 614.13 C568.19 616.31 568.05 618.5 567.96 620.69 C566.99 637.54 566.99 637.54 563.4 641.13 C563.18 643.12 562.95 645.12 562.78 647.12 C562.4 649.13 562.4 649.13 560.4 652.13 C560.4 653.12 560.4 654.11 560.4 655.13 C560.4 658.13 560.4 658.13 558.4 661.13 C557.95 663.41 557.95 663.41 557.78 665.82 C557.66 667.03 557.66 667.03 557.55 668.27 C557.5 668.88 557.45 669.5 557.4 670.13 C556.74 670.13 556.08 670.13 555.4 670.13 C555.46 672.02 555.46 672.02 555.53 673.94 C555.64 677.42 555.46 678.04 553.4 681.13 C552.35 684.55 551.44 687.99 550.53 691.44 C549.63 694.38 548.63 697.11 547.46 699.94 C546.13 703.2 544.98 706.42 544.03 709.82 C541.21 719.55 537.19 729.02 532.48 737.98 C531.31 740.32 530.34 742.69 529.4 745.13 C528.73 746.8 528.07 748.46 527.4 750.13 C526.74 750.13 526.08 750.13 525.4 750.13 C525.3 751.18 525.19 752.23 525.09 753.32 C524.41 757.09 523.47 758.99 521.4 762.13 C521.1 762.89 520.8 763.65 520.49 764.43 C519.33 767.3 517.96 769.93 516.46 772.63 C515.96 773.55 515.46 774.47 514.94 775.41 C512.69 779.4 510.31 783.28 507.84 787.13 C506.47 789.3 505.36 791.24 504.4 793.63 C502.03 799.56 497.95 804.86 494.4 810.13 C493.78 811.06 493.16 811.99 492.53 812.94 C491.37 814.67 490.22 816.4 489.06 818.12 C482.3 827.87 482.3 827.87 476.4 838.13 C475.74 838.13 475.08 838.13 474.4 838.13 C474.15 838.67 473.91 839.2 473.65 839.75 C470.85 845.07 467.24 849.54 463.4 854.13 C462.5 855.42 461.6 856.71 460.71 858 C459.95 859.04 459.19 860.07 458.4 861.13 C457.74 861.13 457.08 861.13 456.4 861.13 C456.14 861.71 455.87 862.29 455.6 862.9 C454.35 865.22 452.98 866.93 451.21 868.88 C450.6 869.57 449.98 870.26 449.35 870.97 C448.05 872.41 446.75 873.85 445.46 875.29 C444.84 875.98 444.22 876.67 443.59 877.38 C443.03 878 442.46 878.63 441.88 879.27 C440.39 881.14 439.39 882.96 438.4 885.13 C439.16 886.08 439.93 887.03 440.71 888 C441.14 888.54 441.57 889.07 442.01 889.62 C443.52 891.38 443.52 891.38 446.4 893.13 C446.4 893.79 446.4 894.45 446.4 895.13 C446.98 895.38 447.56 895.62 448.15 895.88 C450.73 897.31 452.46 898.91 454.4 901.13 C454.4 901.79 454.4 902.45 454.4 903.13 C455 903.39 455.61 903.66 456.23 903.93 C458.51 905.19 459.57 906.28 461.15 908.32 C463.29 910.93 465.49 913.16 468.07 915.33 C472.6 919.24 476.78 923.43 480.96 927.69 C485.46 932.27 489.98 936.7 494.9 940.82 C496.85 942.52 498.51 944.39 500.15 946.38 C502.21 948.86 503.67 950.31 506.4 952.13 C506.4 952.79 506.4 953.45 506.4 954.13 C507.39 954.46 508.38 954.79 509.4 955.13 C509.4 955.79 509.4 956.45 509.4 957.13 C510.06 957.13 510.72 957.13 511.4 957.13 C511.4 957.79 511.4 958.45 511.4 959.13 C512.39 959.46 513.38 959.79 514.4 960.13 C514.4 960.79 514.4 961.45 514.4 962.13 C515.06 962.13 515.72 962.13 516.4 962.13 C516.4 962.79 516.4 963.45 516.4 964.13 C517.39 964.46 518.38 964.79 519.4 965.13 C519.4 965.79 519.4 966.45 519.4 967.13 C520.06 967.13 520.72 967.13 521.4 967.13 C521.4 967.79 521.4 968.45 521.4 969.13 C522.39 969.46 523.38 969.79 524.4 970.13 C524.4 970.79 524.4 971.45 524.4 972.13 C525.06 972.13 525.72 972.13 526.4 972.13 C526.4 972.79 526.4 973.45 526.4 974.13 C527.39 974.46 528.38 974.79 529.4 975.13 C529.4 975.79 529.4 976.45 529.4 977.13 C530.39 977.46 531.38 977.79 532.4 978.13 C532.71 978.77 533.02 979.41 533.34 980.07 C534.21 982.26 534.21 982.26 536.24 983.05 C538.64 984.25 540.11 985.6 541.99 987.51 C542.67 988.19 543.36 988.88 544.06 989.59 C544.79 990.33 545.52 991.08 546.27 991.84 C547.41 992.99 547.41 992.99 548.57 994.16 C551 996.6 553.42 999.05 555.84 1001.5 C558.25 1003.95 560.67 1006.39 563.09 1008.83 C564.6 1010.35 566.1 1011.87 567.6 1013.39 C570.45 1016.27 573.22 1018.99 576.4 1021.5 C577.06 1022.04 577.72 1022.58 578.4 1023.13 C578.4 1023.79 578.4 1024.45 578.4 1025.13 C578.98 1025.4 579.57 1025.67 580.17 1025.95 C582.41 1027.14 584.21 1028.44 586.15 1030.07 C586.76 1030.57 587.38 1031.07 588.01 1031.59 C589.4 1033.13 589.4 1033.13 589.4 1036.13 C589.96 1036.36 590.51 1036.58 591.09 1036.82 C594.04 1038.49 596.07 1040.68 598.4 1043.13 C599.06 1043.79 599.72 1044.45 600.4 1045.13 C600.73 1046.12 601.06 1047.11 601.4 1048.13 C603.91 1049.35 603.91 1049.35 606.4 1050.13 C606.4 1051.12 606.4 1052.11 606.4 1053.13 C607 1053.21 607.6 1053.29 608.21 1053.38 C611.03 1054.35 611.88 1055.62 613.4 1058.13 C613.4 1058.79 613.4 1059.45 613.4 1060.13 C614.02 1060.42 614.64 1060.71 615.28 1061 C617.82 1062.35 619.12 1063.44 620.21 1066.13 C621.8 1068.81 623.5 1069.21 626.4 1070.13 C626.4 1070.79 626.4 1071.45 626.4 1072.13 C627.06 1072.13 627.72 1072.13 628.4 1072.13 C630.03 1073.5 630.03 1073.5 631.4 1075.13 C631.4 1075.79 631.4 1076.45 631.4 1077.13 C632.06 1077.13 632.72 1077.13 633.4 1077.13 C635.03 1078.5 635.03 1078.5 636.4 1080.13 C636.4 1080.79 636.4 1081.45 636.4 1082.13 C637.06 1082.13 637.72 1082.13 638.4 1082.13 C640.03 1083.5 640.03 1083.5 641.4 1085.13 C641.4 1085.79 641.4 1086.45 641.4 1087.13 C642.36 1087.53 642.36 1087.53 643.34 1087.94 C645.4 1089.13 645.4 1089.13 646.4 1092.13 C646.98 1092.42 647.56 1092.71 648.15 1093 C651.2 1094.53 653.13 1096.61 655.4 1099.13 C655.73 1100.12 656.06 1101.11 656.4 1102.13 C657.72 1102.83 659.05 1103.5 660.4 1104.13 C662.04 1105.54 662.04 1105.54 663.65 1107.19 C664.26 1107.8 664.87 1108.42 665.5 1109.06 C666.15 1109.72 666.8 1110.39 667.47 1111.07 C668.14 1111.75 668.82 1112.44 669.51 1113.14 C671.67 1115.32 673.82 1117.5 675.96 1119.69 C678.79 1122.57 681.63 1125.45 684.47 1128.32 C685.12 1128.99 685.77 1129.65 686.44 1130.34 C687.04 1130.96 687.65 1131.57 688.28 1132.2 C688.81 1132.74 689.34 1133.29 689.89 1133.85 C691.49 1135.37 691.49 1135.37 694.4 1136.13 C695.07 1137.46 695.73 1138.8 696.4 1140.13 C697.39 1140.46 698.38 1140.79 699.4 1141.13 C700.1 1142.45 700.76 1143.78 701.4 1145.13 C702.94 1146.91 702.94 1146.91 704.71 1148.57 C705.34 1149.17 705.96 1149.78 706.6 1150.4 C707.49 1151.26 707.49 1151.26 708.4 1152.13 C709.25 1153 710.09 1153.86 710.96 1154.75 C712.78 1156.52 714.58 1158.15 716.53 1159.75 C720.87 1163.34 720.87 1163.34 722.4 1165.13 C722.4 1165.79 722.4 1166.45 722.4 1167.13 C723.61 1167.5 723.61 1167.5 724.84 1167.88 C727.4 1169.13 727.4 1169.13 728.21 1171.25 C728.28 1171.87 728.34 1172.49 728.4 1173.13 C729.39 1173.13 730.38 1173.13 731.4 1173.13 C731.4 1173.79 731.4 1174.45 731.4 1175.13 C732.06 1175.13 732.72 1175.13 733.4 1175.13 C733.4 1176.12 733.4 1177.11 733.4 1178.13 C734.39 1178.13 735.38 1178.13 736.4 1178.13 C736.4 1178.79 736.4 1179.45 736.4 1180.13 C737.39 1180.46 738.38 1180.79 739.4 1181.13 C742.09 1183.57 742.09 1183.57 744.4 1186.13 C744.4 1186.79 744.4 1187.45 744.4 1188.13 C745.06 1188.13 745.72 1188.13 746.4 1188.13 C746.4 1188.79 746.4 1189.45 746.4 1190.13 C747.39 1190.46 748.38 1190.79 749.4 1191.13 C749.4 1191.79 749.4 1192.45 749.4 1193.13 C750.39 1193.46 751.38 1193.79 752.4 1194.13 C752.4 1195.12 752.4 1196.11 752.4 1197.13 C753.14 1197.38 753.89 1197.62 754.65 1197.88 C757.63 1199.23 759.3 1200.64 761.4 1203.13 C761.4 1203.79 761.4 1204.45 761.4 1205.13 C762.04 1205.42 762.68 1205.71 763.34 1206 C765.4 1207.13 765.4 1207.13 766.4 1209.13 C766.98 1209.85 767.56 1210.57 768.15 1211.32 C769.8 1213.38 771.41 1215.44 772.96 1217.57 C773.36 1218.1 773.75 1218.64 774.16 1219.19 C774.57 1219.83 774.98 1220.47 775.4 1221.13 C776.21 1222.35 776.21 1222.35 777.03 1223.59 C779.06 1228.83 778.8 1233.81 778.71 1239.38 C778.72 1240.48 778.72 1241.58 778.72 1242.72 C778.67 1250.86 778.67 1250.86 776.4 1253.13 C775.97 1254.35 775.53 1255.56 775.09 1256.82 C773.51 1261.23 771.36 1264.49 768.4 1268.13 C767.74 1268.13 767.08 1268.13 766.4 1268.13 C766.07 1269.12 765.74 1270.11 765.4 1271.13 C761.32 1274.29 757 1276.3 752.26 1278.3 C750.43 1278.99 750.43 1278.99 749.4 1280.13 C744.93 1280.41 740.44 1280.36 735.96 1280.38 C734.7 1280.4 733.43 1280.42 732.13 1280.44 C730.92 1280.45 729.71 1280.45 728.47 1280.46 C727.35 1280.47 726.24 1280.48 725.09 1280.49 C724.2 1280.37 723.32 1280.25 722.4 1280.13 C721.74 1279.14 721.08 1278.15 720.4 1277.13 C718.75 1276.42 717.08 1275.76 715.4 1275.13 C712.65 1273.56 710.04 1271.89 707.4 1270.13 C707.4 1269.47 707.4 1268.81 707.4 1268.13 C706.56 1267.78 706.56 1267.78 705.7 1267.42 C702.84 1265.82 700.9 1263.85 698.59 1261.52 C697.68 1260.6 696.77 1259.68 695.83 1258.73 C694.87 1257.76 693.92 1256.79 692.96 1255.82 C692.01 1254.86 691.06 1253.9 690.11 1252.94 C688.35 1251.16 686.59 1249.38 684.83 1247.59 C682.37 1245.09 679.88 1242.61 677.4 1240.13 C676.35 1239.07 675.3 1238 674.24 1236.94 C673.13 1235.81 672.02 1234.69 670.9 1233.57 C670.35 1233 669.79 1232.44 669.22 1231.86 C666.72 1229.35 664.29 1227.04 661.49 1224.85 C660.8 1224.28 660.11 1223.72 659.4 1223.13 C659.4 1222.47 659.4 1221.81 659.4 1221.13 C658.82 1220.86 658.24 1220.59 657.64 1220.31 C655.39 1219.12 653.59 1217.82 651.65 1216.19 C651.04 1215.69 650.42 1215.18 649.79 1214.66 C648.4 1213.13 648.4 1213.13 648.4 1210.13 C647.84 1209.9 647.29 1209.68 646.71 1209.44 C643.76 1207.77 641.73 1205.58 639.4 1203.13 C638.74 1202.47 638.08 1201.81 637.4 1201.13 C637.07 1200.14 636.74 1199.15 636.4 1198.13 C633.9 1196.91 633.9 1196.91 631.4 1196.13 C631.4 1195.14 631.4 1194.15 631.4 1193.13 C630.8 1193.05 630.2 1192.96 629.59 1192.88 C626.77 1191.91 625.92 1190.64 624.4 1188.13 C624.4 1187.47 624.4 1186.81 624.4 1186.13 C623.84 1185.88 623.29 1185.63 622.71 1185.38 C619.98 1183.9 617.72 1182.19 615.4 1180.13 C615.4 1179.47 615.4 1178.81 615.4 1178.13 C614.74 1178.13 614.08 1178.13 613.4 1178.13 C611.78 1176.75 611.78 1176.75 610.4 1175.13 C610.4 1174.47 610.4 1173.81 610.4 1173.13 C609.74 1173.13 609.08 1173.13 608.4 1173.13 C606.78 1171.75 606.78 1171.75 605.4 1170.13 C605.4 1169.47 605.4 1168.81 605.4 1168.13 C604.74 1168.13 604.08 1168.13 603.4 1168.13 C601.78 1166.75 601.78 1166.75 600.4 1165.13 C600.4 1164.47 600.4 1163.81 600.4 1163.13 C599.44 1162.73 599.44 1162.73 598.46 1162.32 C596.4 1161.13 596.4 1161.13 595.4 1158.13 C594.74 1157.8 594.08 1157.47 593.4 1157.13 C591.4 1156.13 591.4 1156.13 590.4 1153.13 C589.82 1152.84 589.25 1152.55 588.65 1152.25 C585.67 1150.76 583.7 1148.5 581.4 1146.13 C580.16 1144.87 578.91 1143.62 577.67 1142.36 C576.98 1141.67 576.29 1140.97 575.58 1140.25 C572.47 1137.12 569.35 1133.98 566.24 1130.85 C564.59 1129.2 562.95 1127.54 561.31 1125.88 C558.93 1123.49 556.55 1121.1 554.17 1118.71 C553.44 1117.96 552.71 1117.22 551.95 1116.45 C550.92 1115.42 550.92 1115.42 549.88 1114.38 C549.28 1113.77 548.68 1113.17 548.06 1112.54 C546.34 1110.9 546.34 1110.9 543.4 1110.13 C543 1109.26 543 1109.26 542.59 1108.38 C540.88 1105.13 538.25 1103.39 535.4 1101.13 C533.73 1099.46 532.07 1097.8 530.4 1096.13 C529.72 1095.47 529.04 1094.81 528.34 1094.13 C526.4 1092.13 526.4 1092.13 524.4 1089.13 C522.35 1087.94 522.35 1087.94 520.4 1087.13 C520.4 1086.14 520.4 1085.15 520.4 1084.13 C519.78 1084.05 519.16 1083.96 518.53 1083.88 C515.71 1082.89 515.7 1081.73 514.4 1079.13 C513.53 1078.61 512.67 1078.1 511.78 1077.57 C510.99 1077.09 510.21 1076.62 509.4 1076.13 C509.4 1075.14 509.4 1074.15 509.4 1073.13 C508.41 1073.13 507.42 1073.13 506.4 1073.13 C506.4 1072.47 506.4 1071.81 506.4 1071.13 C505.74 1071.13 505.08 1071.13 504.4 1071.13 C504.4 1070.14 504.4 1069.15 504.4 1068.13 C503.41 1068.13 502.42 1068.13 501.4 1068.13 C501.4 1067.47 501.4 1066.81 501.4 1066.13 C500.41 1065.8 499.42 1065.47 498.4 1065.13 C498.4 1064.47 498.4 1063.81 498.4 1063.13 C497.74 1063.13 497.08 1063.13 496.4 1063.13 C496.4 1062.47 496.4 1061.81 496.4 1061.13 C495.44 1060.73 495.44 1060.73 494.46 1060.32 C492.4 1059.13 492.4 1059.13 491.4 1056.13 C490.41 1055.8 489.42 1055.47 488.4 1055.13 C488.4 1054.47 488.4 1053.81 488.4 1053.13 C487.84 1052.9 487.29 1052.68 486.71 1052.44 C482.61 1050.11 479.73 1046.57 476.78 1042.94 C474.52 1040.01 474.52 1040.01 471.4 1038.13 C471.4 1037.47 471.4 1036.81 471.4 1036.13 C470.41 1035.8 469.42 1035.47 468.4 1035.13 C465.71 1032.69 465.71 1032.69 463.4 1030.13 C463.4 1029.47 463.4 1028.81 463.4 1028.13 C462.6 1027.82 462.6 1027.82 461.78 1027.5 C458.46 1025.59 456 1022.95 453.35 1020.24 C452.77 1019.66 452.2 1019.07 451.6 1018.47 C449.76 1016.61 447.92 1014.75 446.09 1012.88 C444.26 1011.03 442.44 1009.18 440.61 1007.33 C439.47 1006.18 438.34 1005.03 437.21 1003.87 C433.94 1000.57 430.56 997.47 426.99 994.48 C424.64 992.48 422.49 990.41 420.4 988.13 C420.4 987.47 420.4 986.81 420.4 986.13 C418.75 985.47 417.1 984.81 415.4 984.13 C415.4 983.14 415.4 982.15 415.4 981.13 C414.68 980.9 413.96 980.68 413.21 980.44 C409.82 978.86 407.83 976.97 405.4 974.13 C405.4 973.14 405.4 972.15 405.4 971.13 C404.41 970.8 403.42 970.47 402.4 970.13 C402.4 969.47 402.4 968.81 402.4 968.13 C401.74 968.13 401.08 968.13 400.4 968.13 C400.4 967.47 400.4 966.81 400.4 966.13 C399.41 965.8 398.42 965.47 397.4 965.13 C397.4 964.47 397.4 963.81 397.4 963.13 C396.74 963.13 396.08 963.13 395.4 963.13 C395.4 962.47 395.4 961.81 395.4 961.13 C394.41 960.8 393.42 960.47 392.4 960.13 C392.4 959.47 392.4 958.81 392.4 958.13 C391.82 957.87 391.24 957.61 390.65 957.34 C384.8 954.19 380 948.87 375.4 944.13 C370.31 947.45 365.35 950.87 360.51 954.56 C358.11 956.34 355.67 958.05 353.21 959.75 C349.84 962.1 346.6 964.54 343.4 967.13 C339.86 969.78 336.42 972.25 332.4 974.13 C329.39 975.88 326.45 977.73 323.52 979.61 C322.48 980.27 322.48 980.27 321.42 980.95 C319.98 981.87 318.54 982.79 317.11 983.72 C316.42 984.16 315.73 984.6 315.02 985.05 C314.4 985.45 313.77 985.85 313.13 986.26 C311.4 987.13 311.4 987.13 308.4 987.13 C308.07 988.12 307.74 989.11 307.4 990.13 C305.5 991.39 305.5 991.39 302.98 992.64 C302.04 993.12 301.09 993.59 300.12 994.08 C299.1 994.58 298.07 995.08 297.01 995.6 C295.96 996.13 294.91 996.65 293.83 997.19 C291.61 998.3 289.38 999.4 287.15 1000.5 C283.74 1002.18 280.34 1003.87 276.94 1005.57 C274.78 1006.64 272.62 1007.72 270.45 1008.79 C269.44 1009.29 268.42 1009.8 267.37 1010.32 C262.78 1012.58 258.33 1014.68 253.4 1016.13 C251.23 1016.93 249.06 1017.74 246.9 1018.57 C245.82 1018.98 244.74 1019.39 243.62 1019.81 C240.46 1021.11 237.45 1022.59 234.4 1024.13 C232.41 1024.81 230.41 1025.48 228.4 1026.13 C227.33 1026.6 226.26 1027.08 225.15 1027.57 C221.43 1029.21 217.59 1030.31 213.69 1031.44 C211.3 1032.12 211.3 1032.12 208.71 1033.25 C206.4 1034.13 206.4 1034.13 202.71 1034.63 C199.33 1034.8 199.33 1034.8 197.4 1037.13 C195.73 1037.13 194.07 1037.13 192.4 1037.13 C191.41 1037.79 190.42 1038.45 189.4 1039.13 C184.14 1041.26 179.01 1042.43 173.4 1043.13 C173.07 1043.46 172.74 1043.79 172.4 1044.13 C170.47 1044.36 168.53 1044.59 166.59 1044.81 C164.12 1045.12 164.12 1045.12 160.71 1046.19 C157.69 1047.05 155.49 1047.13 152.4 1047.13 C151.41 1047.79 150.42 1048.45 149.4 1049.13 C146.6 1049.75 143.85 1050.29 141.03 1050.75 C140.27 1050.89 139.52 1051.02 138.74 1051.16 C135.64 1051.69 132.76 1052.13 129.61 1052.09 C127.38 1051.97 127.38 1051.97 125.54 1053.09 C122.46 1054.58 119.61 1054.53 116.21 1054.69 C111.99 1054.53 111.99 1054.53 108.4 1056.13 C106.95 1056.34 105.49 1056.5 104.03 1056.63 C102.71 1056.75 102.71 1056.75 101.35 1056.88 C99.95 1057 99.95 1057 98.53 1057.13 C96.7 1057.29 94.86 1057.46 93.03 1057.63 C92.22 1057.7 91.4 1057.77 90.56 1057.85 C88.22 1058.08 88.22 1058.08 85.4 1059.13 C82.37 1059.23 79.36 1059.28 76.33 1059.27 C74.93 1059.28 74.93 1059.28 73.51 1059.28 C70.44 1059.29 67.36 1059.3 64.28 1059.3 C62.15 1059.3 60.01 1059.3 57.88 1059.31 C53.4 1059.31 48.91 1059.32 44.43 1059.31 C38.69 1059.31 32.95 1059.33 27.21 1059.35 C22.79 1059.36 18.38 1059.36 13.97 1059.36 C11.85 1059.36 9.73 1059.36 7.62 1059.37 C4.66 1059.38 1.69 1059.38 -1.27 1059.37 C-2.14 1059.38 -3.02 1059.38 -3.92 1059.39 C-8.31 1059.37 -11.58 1059.08 -15.6 1057.13 C-18.09 1056.79 -18.09 1056.79 -20.65 1056.75 C-21.57 1056.72 -22.5 1056.68 -23.45 1056.65 C-24.89 1056.61 -24.89 1056.61 -26.35 1056.57 C-28.26 1056.51 -30.17 1056.44 -32.08 1056.38 C-32.93 1056.35 -33.77 1056.33 -34.64 1056.3 C-36.6 1056.13 -36.6 1056.13 -37.6 1055.13 C-41.09 1054.84 -44.58 1054.68 -48.08 1054.51 C-51.36 1054.16 -53.6 1053.4 -56.6 1052.13 C-57.77 1052.13 -58.95 1052.13 -60.16 1052.13 C-63.6 1052.13 -63.6 1052.13 -65.5 1051.16 C-67.96 1049.95 -69.87 1049.8 -72.6 1049.63 C-75.27 1049.47 -77.18 1049.34 -79.59 1048.13 C-82.04 1046.91 -84.06 1046.76 -86.79 1046.57 C-91.5 1046.23 -91.5 1046.23 -92.6 1045.13 C-93.97 1044.78 -95.34 1044.48 -96.72 1044.19 C-100.74 1043.33 -104.65 1042.29 -108.6 1041.13 C-110.43 1040.63 -112.26 1040.13 -114.1 1039.63 C-115.52 1039.24 -115.52 1039.24 -116.96 1038.85 C-119.07 1038.27 -121.18 1037.7 -123.29 1037.13 C-126.47 1036.17 -129.53 1035.04 -132.63 1033.85 C-134.43 1033.19 -136.26 1032.65 -138.1 1032.13 C-142.03 1031.01 -145.79 1029.6 -149.6 1028.13 C-155.51 1025.85 -155.51 1025.85 -161.6 1024.13 C-161.6 1023.47 -161.6 1022.81 -161.6 1022.13 C-162.93 1022.04 -162.93 1022.04 -164.29 1021.94 C-171.6 1020.9 -179.08 1017.77 -185.41 1014 C-187.98 1012.5 -190.15 1011.49 -192.91 1010.5 C-196.6 1009.13 -196.6 1009.13 -198.6 1007.13 C-200.65 1005.97 -202.43 1005.17 -204.72 1004.63 C-206.6 1004.13 -206.6 1004.13 -208.6 1002.13 C-210.65 1000.97 -212.43 1000.17 -214.72 999.63 C-216.6 999.13 -216.6 999.13 -218.6 997.13 C-219.91 996.43 -221.25 995.77 -222.6 995.13 C-226.6 993.13 -230.6 991.13 -234.6 989.13 C-234.6 988.47 -234.6 987.81 -234.6 987.13 C-235.18 987.01 -235.76 986.89 -236.36 986.77 C-238.73 986.09 -240.36 985.17 -242.41 983.82 C-245 982.14 -247.6 980.52 -250.29 979 C-252.2 977.92 -254.1 976.83 -255.97 975.69 C-259.16 973.79 -262.43 972.05 -265.71 970.31 C-267.6 969.13 -267.6 969.13 -268.6 967.13 C-270.26 966.12 -271.93 965.12 -273.6 964.13 C-274.88 963.18 -276.15 962.22 -277.41 961.25 C-280.84 958.63 -284.39 956.37 -288.13 954.21 C-288.61 953.85 -289.1 953.5 -289.6 953.13 C-289.6 952.47 -289.6 951.81 -289.6 951.13 C-291.93 949.92 -294.1 948.96 -296.6 948.13 C-296.6 947.47 -296.6 946.81 -296.6 946.13 C-297.16 945.88 -297.71 945.63 -298.29 945.38 C-301 943.91 -303.2 942.05 -305.6 940.13 C-306.91 939.42 -308.24 938.73 -309.6 938.13 C-309.6 937.47 -309.6 936.81 -309.6 936.13 C-310.59 935.8 -311.58 935.47 -312.6 935.13 C-312.6 934.47 -312.6 933.81 -312.6 933.13 C-313.2 932.86 -313.79 932.6 -314.41 932.32 C-316.64 931.1 -317.94 929.93 -319.66 928.07 C-323.47 924.12 -327.66 920.75 -331.95 917.34 C-334.67 915.07 -337.11 912.64 -339.6 910.13 C-340.71 909.18 -341.83 908.24 -342.97 907.32 C-346.3 904.51 -349.08 901.41 -351.89 898.09 C-353.53 896.21 -355.24 894.48 -357.04 892.75 C-359.6 890.13 -359.6 890.13 -359.6 888.13 C-360.59 887.8 -361.58 887.47 -362.6 887.13 C-362.6 886.47 -362.6 885.81 -362.6 885.13 C-363.26 885.13 -363.92 885.13 -364.6 885.13 C-364.6 884.47 -364.6 883.81 -364.6 883.13 C-365.26 883.13 -365.92 883.13 -366.6 883.13 C-366.93 882.14 -367.26 881.15 -367.6 880.13 C-368.51 879.53 -369.41 878.93 -370.35 878.32 C-373.81 875.99 -376.14 873.43 -378.6 870.13 C-379.29 869.22 -379.29 869.22 -379.99 868.29 C-382.02 865.54 -383.5 863.41 -384.6 860.13 C-385.44 859.28 -386.29 858.44 -387.16 857.57 C-387.97 856.76 -388.77 855.96 -389.6 855.13 C-389.6 854.47 -389.6 853.81 -389.6 853.13 C-390.26 853.13 -390.92 853.13 -391.6 853.13 C-392.09 851.64 -392.09 851.64 -392.6 850.13 C-393.4 849.35 -394.21 848.56 -395.04 847.75 C-397.57 845.16 -398.35 843.44 -399.6 840.13 C-400.59 839.47 -401.58 838.81 -402.6 838.13 C-403.71 836.83 -404.77 835.5 -405.79 834.13 C-406.32 833.43 -406.85 832.73 -407.39 832 C-408.6 830.13 -408.6 830.13 -408.6 828.13 C-409.59 827.8 -410.58 827.47 -411.6 827.13 C-412.29 825.07 -412.29 825.07 -412.6 823.13 C-413.26 823.13 -413.92 823.13 -414.6 823.13 C-414.85 822.43 -415.09 821.73 -415.35 821 C-417.14 816.88 -419.41 813.31 -422.6 810.13 C-423.61 808.14 -424.61 806.14 -425.6 804.13 C-426.27 802.94 -426.95 801.76 -427.64 800.59 C-428.17 799.69 -428.17 799.69 -428.71 798.77 C-429.43 797.54 -430.17 796.31 -430.9 795.08 C-433.6 790.46 -433.6 790.46 -433.6 787.13 C-434.59 787.13 -435.58 787.13 -436.6 787.13 C-438.69 784.23 -439.9 781.61 -440.6 778.13 C-441.09 776.64 -441.09 776.64 -441.6 775.13 C-442.26 774.8 -442.92 774.47 -443.6 774.13 C-444.28 772.14 -444.95 770.13 -445.6 768.13 C-446.81 765.44 -448.14 762.82 -449.47 760.19 C-449.81 759.51 -450.15 758.84 -450.5 758.14 C-452.16 754.84 -453.88 751.61 -455.76 748.43 C-457.29 745.68 -458.35 743.32 -459.22 740.32 C-460.07 737.42 -460.42 736.31 -462.6 734.13 C-463.27 732.17 -463.27 732.17 -463.91 729.75 C-465.36 724.66 -467.32 719.9 -469.4 715.03 C-471.41 710.17 -473.19 705.3 -474.16 700.13 C-474.31 699.47 -474.45 698.81 -474.6 698.13 C-475.26 697.8 -475.92 697.47 -476.6 697.13 C-477.5 693.53 -478.14 689.9 -478.82 686.25 C-479.08 685.22 -479.33 684.19 -479.6 683.13 C-480.26 682.8 -480.92 682.47 -481.6 682.13 C-481.6 681.14 -481.6 680.15 -481.6 679.13 C-481.91 678.37 -482.22 677.6 -482.54 676.82 C-483.6 674.13 -483.6 674.13 -484.05 671.37 C-484.62 668.01 -485.49 664.89 -486.47 661.63 C-488.25 655.54 -489.67 649.44 -490.95 643.22 C-491.44 640.86 -492.01 638.57 -492.66 636.25 C-493.9 631.55 -494.32 626.68 -494.81 621.85 C-495.14 618.91 -495.52 616.32 -496.63 613.57 C-497.88 610.42 -497.95 607.63 -498.1 604.25 C-498.32 600.42 -498.56 597.25 -499.66 593.57 C-500.91 589 -500.7 584.73 -500.57 580.02 C-500.45 577.06 -500.45 577.06 -501.6 574.13 C-501.7 571.36 -501.74 568.61 -501.73 565.84 C-501.73 564.99 -501.73 564.15 -501.73 563.27 C-501.74 560.47 -501.74 557.67 -501.73 554.87 C-501.73 552.92 -501.73 550.97 -501.73 549.02 C-501.74 544.93 -501.73 540.84 -501.73 536.74 C-501.72 531.51 -501.73 526.28 -501.73 521.05 C-501.74 517.02 -501.74 512.99 -501.73 508.96 C-501.73 507.04 -501.73 505.11 -501.74 503.18 C-501.74 500.48 -501.73 497.77 -501.73 495.07 C-501.73 494.28 -501.73 493.49 -501.73 492.68 C-501.72 487.74 -501.26 483.02 -500.6 478.13 C-500.57 474.71 -500.66 471.31 -500.76 467.89 C-500.6 465.13 -500.6 465.13 -498.6 463.13 C-498.26 461.23 -498.26 461.23 -498.26 459.07 C-498.23 458.27 -498.2 457.47 -498.17 456.65 C-498.14 455.82 -498.12 454.99 -498.1 454.13 C-498.06 452.48 -498 450.84 -497.94 449.19 C-497.92 448.46 -497.91 447.73 -497.89 446.98 C-497.6 445.13 -497.6 445.13 -495.6 443.13 C-495.17 440.11 -495.17 440.11 -495.04 436.69 C-494.69 430.41 -494.69 430.41 -493.6 427.13 C-493.34 424.79 -493.16 422.44 -492.98 420.09 C-492.79 419.12 -492.79 419.12 -492.6 418.13 C-491.94 417.8 -491.28 417.47 -490.6 417.13 C-490.17 414.84 -490.17 414.84 -490.04 412.19 C-489.69 407.32 -489.69 407.32 -488.6 405.13 C-488.33 402.8 -488.15 400.47 -487.98 398.13 C-487.85 397.47 -487.73 396.81 -487.6 396.13 C-486.94 395.8 -486.28 395.47 -485.6 395.13 C-485.19 392.81 -484.85 390.47 -484.6 388.13 C-484.27 388.13 -483.94 388.13 -483.6 388.13 C-483.48 386.85 -483.35 385.57 -483.22 384.25 C-482.85 380.38 -482.85 380.38 -480.6 378.13 C-480.45 377.1 -480.31 376.07 -480.16 375 C-479.54 370.69 -478.23 367.14 -476.6 363.13 C-475.07 359.3 -473.71 355.78 -473.04 351.69 C-472.89 350.85 -472.75 350 -472.6 349.13 C-471.94 348.8 -471.28 348.47 -470.6 348.13 C-469.94 345.6 -469.94 345.6 -469.6 343.13 C-468.94 343.13 -468.28 343.13 -467.6 343.13 C-467.6 340.82 -467.6 338.51 -467.6 336.13 C-466.94 335.8 -466.28 335.47 -465.6 335.13 C-464.94 332.6 -464.94 332.6 -464.6 330.13 C-464.27 330.13 -463.94 330.13 -463.6 330.13 C-463.48 329.16 -463.35 328.19 -463.22 327.19 C-463.02 326.18 -462.81 325.17 -462.6 324.13 C-461.94 323.8 -461.28 323.47 -460.6 323.13 C-459.76 321.08 -459.76 321.08 -459.1 318.69 C-457.82 314.35 -457.82 314.35 -455.6 312.13 C-454.95 309.56 -454.95 309.56 -454.6 307.13 C-454.27 307.13 -453.94 307.13 -453.6 307.13 C-453.27 305.48 -452.94 303.83 -452.6 302.13 C-451.94 302.13 -451.28 302.13 -450.6 302.13 C-450.45 301.18 -450.31 300.23 -450.16 299.25 C-449.5 295.58 -448.31 292.84 -445.6 290.13 C-444.92 288.47 -444.26 286.8 -443.6 285.13 C-442.95 283.79 -442.29 282.45 -441.6 281.13 C-441.27 281.46 -440.94 281.79 -440.6 282.13 C-440.41 281.58 -440.21 281.02 -440.01 280.45 C-439.75 279.73 -439.49 279 -439.22 278.25 C-438.84 277.18 -438.84 277.18 -438.45 276.07 C-437.6 274.13 -437.6 274.13 -435.6 272.13 C-434.76 270.08 -434.08 268.01 -433.38 265.91 C-432.6 264.13 -432.6 264.13 -430.6 263.13 C-430.27 262.14 -429.94 261.15 -429.6 260.13 C-428.94 260.13 -428.28 260.13 -427.6 260.13 C-427.45 259.51 -427.31 258.89 -427.16 258.25 C-426.4 255.39 -425.27 253.64 -423.6 251.13 C-423.6 250.47 -423.6 249.81 -423.6 249.13 C-422.94 249.13 -422.28 249.13 -421.6 249.13 C-421.6 248.47 -421.6 247.81 -421.6 247.13 C-420.94 247.13 -420.28 247.13 -419.6 247.13 C-419.27 246.14 -418.94 245.15 -418.6 244.13 C-417.81 242.62 -417 241.12 -416.16 239.63 C-415.73 238.86 -415.3 238.08 -414.85 237.29 C-413.83 235.53 -412.73 233.82 -411.6 232.13 C-410.94 232.13 -410.28 232.13 -409.6 232.13 C-409.27 231.14 -408.94 230.15 -408.6 229.13 C-407.03 226.15 -405.52 224.05 -403.1 221.69 C-400.46 218.99 -399.21 216.51 -397.6 213.13 C-396.04 211.25 -396.04 211.25 -394.6 210.13 C-393.94 210.13 -393.28 210.13 -392.6 210.13 C-392.6 209.14 -392.6 208.15 -392.6 207.13 C-391.61 207.13 -390.62 207.13 -389.6 207.13 C-389.93 206.14 -390.26 205.15 -390.6 204.13 C-389.84 203.43 -389.07 202.73 -388.29 202 C-385.53 199.36 -385.53 199.36 -384.34 196.38 C-382.15 192.29 -379.34 189.47 -376.04 186.25 C-375.45 185.66 -374.86 185.07 -374.25 184.46 C-369.87 180.13 -369.87 180.13 -367.6 180.13 C-367.6 179.14 -367.6 178.15 -367.6 177.13 C-366.61 177.13 -365.62 177.13 -364.6 177.13 C-364.54 176.41 -364.48 175.69 -364.41 174.94 C-363.34 171.22 -361.39 169.81 -358.6 167.13 C-357.66 166.18 -356.73 165.22 -355.8 164.27 C-353.13 161.53 -350.45 158.8 -347.76 156.07 C-346.61 154.9 -345.45 153.72 -344.31 152.54 C-342.64 150.82 -340.96 149.12 -339.28 147.42 C-338.52 146.63 -338.52 146.63 -337.74 145.81 C-336.27 144.34 -336.27 144.34 -333.6 142.13 C-332.28 142.13 -330.96 142.13 -329.6 142.13 C-329.93 141.14 -330.26 140.15 -330.6 139.13 C-329.28 139.13 -327.96 139.13 -326.6 139.13 C-326.35 138.55 -326.1 137.97 -325.84 137.38 C-324.43 134.83 -322.82 133.15 -320.72 131.13 C-319.71 130.14 -319.71 130.14 -318.67 129.13 C-317.64 128.14 -317.64 128.14 -316.6 127.13 C-315.9 126.39 -315.19 125.64 -314.47 124.88 C-312.6 123.13 -312.6 123.13 -310.6 123.13 C-310.27 122.14 -309.94 121.15 -309.6 120.13 C-307.62 119.09 -305.61 118.1 -303.6 117.13 C-302.73 116.43 -301.87 115.73 -300.97 115 C-298.6 113.13 -298.6 113.13 -296.41 112.63 C-295.81 112.46 -295.22 112.3 -294.6 112.13 C-294.29 111.49 -293.98 110.85 -293.66 110.19 C-292.6 108.13 -292.6 108.13 -289.97 106.88 C-289.19 106.63 -288.41 106.38 -287.6 106.13 C-287.6 105.47 -287.6 104.81 -287.6 104.13 C-285.95 103.1 -284.28 102.1 -282.6 101.13 C-281.73 100.41 -280.87 99.69 -279.97 98.94 C-277.6 97.13 -277.6 97.13 -274.6 97.13 C-274.26 96.2 -274.26 96.2 -273.91 95.25 C-272.22 92.52 -270.61 92.08 -267.6 91.13 C-267.6 90.47 -267.6 89.81 -267.6 89.13 C-264.51 87.36 -263.37 87.13 -259.6 87.13 C-259.6 86.47 -259.6 85.81 -259.6 85.13 C-250.89 80.13 -250.89 80.13 -246.6 79.13 C-246.6 78.47 -246.6 77.81 -246.6 77.13 C-246.02 76.86 -245.44 76.59 -244.85 76.32 C-242.55 75.2 -242.55 75.2 -240.6 73.5 C-238.6 72.13 -238.6 72.13 -234.6 72.13 C-234.6 71.47 -234.6 70.81 -234.6 70.13 C-227.85 66.25 -227.85 66.25 -225.6 65.13 C-225 64.66 -224.4 64.18 -223.79 63.69 C-221.46 62.03 -219.26 61.17 -216.6 60.13 C-215.77 59.59 -214.95 59.06 -214.1 58.5 C-211.33 56.98 -209.71 56.86 -206.6 57.13 C-206.27 56.14 -205.94 55.15 -205.6 54.13 C-202.6 52.13 -202.6 52.13 -199.6 52.13 C-199.27 51.47 -198.94 50.81 -198.6 50.13 C-198.6 50.79 -198.6 51.45 -198.6 52.13 C-197.94 51.47 -197.28 50.81 -196.6 50.13 C-193.15 48.09 -189.45 47.17 -185.6 46.13 C-185.6 45.47 -185.6 44.81 -185.6 44.13 C-184.86 44.01 -184.11 43.88 -183.35 43.75 C-180.78 43.17 -178.89 42.39 -176.6 41.13 C-175.94 40.8 -175.28 40.47 -174.6 40.13 C-174.6 39.8 -174.6 39.47 -174.6 39.13 C-170.27 37.55 -166.17 36.68 -161.6 36.13 C-161.6 35.47 -161.6 34.81 -161.6 34.13 C-160.05 33.97 -160.05 33.97 -158.47 33.82 C-154.59 33.13 -152.07 31.94 -148.6 30.13 C-143.96 28.61 -139.44 27.72 -134.6 27.13 C-134.6 26.47 -134.6 25.81 -134.6 25.13 C-123.08 21.87 -123.08 21.87 -117.6 21.13 C-117.6 20.47 -117.6 19.81 -117.6 19.13 C-116.89 19.07 -116.18 19.01 -115.45 18.95 C-114.53 18.86 -113.61 18.78 -112.66 18.69 C-111.74 18.61 -110.83 18.53 -109.88 18.45 C-107.64 18.37 -107.64 18.37 -106.6 17.13 C-105.44 16.99 -104.29 16.84 -103.1 16.69 C-101.94 16.51 -100.79 16.32 -99.6 16.13 C-99.27 15.47 -98.94 14.81 -98.6 14.13 C-96.31 13.72 -96.31 13.72 -93.54 13.5 C-92.62 13.43 -91.7 13.35 -90.75 13.28 C-89.69 13.2 -89.69 13.2 -88.6 13.13 C-88.6 12.8 -88.6 12.47 -88.6 12.13 C-87.82 12.08 -87.03 12.03 -86.23 11.98 C-84.71 11.87 -84.71 11.87 -83.16 11.75 C-82.15 11.68 -81.14 11.62 -80.1 11.54 C-79.28 11.41 -78.45 11.27 -77.6 11.13 C-77.27 10.47 -76.94 9.81 -76.6 9.13 C-72.31 9.13 -68.02 9.13 -63.6 9.13 C-63.27 8.47 -62.94 7.81 -62.6 7.13 C-60.17 6.79 -60.17 6.79 -57.16 6.63 C-52.88 6.58 -52.88 6.58 -49.6 4.13 C-47.75 3.84 -47.75 3.84 -45.54 3.79 C-44.74 3.76 -43.94 3.73 -43.12 3.7 C-41.44 3.65 -39.76 3.61 -38.08 3.56 C-37.28 3.53 -36.48 3.5 -35.66 3.47 C-34.93 3.45 -34.2 3.44 -33.45 3.42 C-31.35 3.28 -31.35 3.28 -29.6 1.13 C-27.77 0.92 -27.77 0.92 -25.57 0.97 C-24.78 0.98 -23.99 0.99 -23.17 1 C-22.34 1.02 -21.51 1.04 -20.66 1.07 C-19.03 1.1 -17.39 1.13 -15.76 1.16 C-14.67 1.18 -14.67 1.18 -13.56 1.21 C-9.03 1.02 -4.68 -0.01 0 0 Z M15.46 82.66 C9.58 83.56 3.65 83.56 -2.29 83.69 C-4.79 83.75 -7.29 83.82 -9.8 83.88 C-10.89 83.91 -11.98 83.93 -13.11 83.96 C-15.54 83.85 -15.54 83.85 -16.6 85.13 C-19.97 85.37 -23.32 85.53 -26.7 85.65 C-30.47 85.83 -32.39 85.99 -35.6 88.13 C-38.27 88.47 -38.27 88.47 -41.35 88.63 C-46.06 88.87 -50.08 89.8 -54.6 91.13 C-58.02 91.84 -61.46 92.41 -64.9 92.98 C-68.48 93.62 -71.41 94.41 -74.6 96.13 C-76.93 96.48 -79.26 96.82 -81.6 97.13 C-81.93 97.46 -82.26 97.79 -82.6 98.13 C-84.59 98.35 -86.59 98.58 -88.59 98.75 C-90.91 99.05 -90.91 99.05 -93.6 101.13 C-95.27 101.46 -96.93 101.8 -98.6 102.13 C-100.6 102.84 -102.58 103.61 -104.56 104.38 C-107.52 105.47 -110.56 106.26 -113.6 107.13 C-117.47 108.47 -121.23 109.97 -124.97 111.63 C-128.72 113.18 -132.47 114.36 -136.36 115.48 C-138.12 115.99 -139.86 116.55 -141.6 117.13 C-141.6 117.79 -141.6 118.45 -141.6 119.13 C-142.68 119.32 -142.68 119.32 -143.79 119.5 C-149.47 120.77 -154.44 123.51 -159.6 126.13 C-161.95 127.32 -164.31 128.51 -166.66 129.69 C-167.81 130.27 -168.95 130.85 -170.13 131.45 C-172.48 132.59 -174.86 133.66 -177.27 134.68 C-180.01 135.87 -182.36 137.11 -184.85 138.75 C-187.19 140.3 -188.9 141.23 -191.6 142.13 C-192.05 142.59 -192.5 143.04 -192.96 143.51 C-195.03 145.55 -197.21 146.66 -199.79 148 C-203.93 150.21 -207.94 152.52 -211.89 155.04 C-213.33 155.96 -214.81 156.83 -216.29 157.69 C-218.65 159.1 -218.65 159.1 -220.85 160.94 C-223.13 162.76 -225.41 164.35 -227.85 165.94 C-231.88 168.59 -235.67 171.46 -239.45 174.46 C-241.47 176.03 -243.54 177.49 -245.66 178.94 C-246.63 179.66 -247.6 180.39 -248.6 181.13 C-248.6 181.79 -248.6 182.45 -248.6 183.13 C-249.41 183.29 -250.23 183.44 -251.07 183.61 C-256.18 185.81 -259.31 189.5 -263.1 193.5 C-270.87 201.65 -270.87 201.65 -274.49 204.04 C-279.54 207.43 -283.63 211.83 -287.91 216.13 C-288.83 217.03 -289.75 217.93 -290.69 218.86 C-291.57 219.74 -292.44 220.61 -293.34 221.5 C-294.13 222.3 -294.93 223.09 -295.74 223.9 C-297.56 226.09 -298.22 227.35 -298.6 230.13 C-299.26 230.13 -299.92 230.13 -300.6 230.13 C-302.1 231.61 -302.1 231.61 -303.66 233.57 C-307.08 237.63 -310.79 241.25 -314.68 244.86 C-316.9 247.49 -317.71 249.83 -318.6 253.13 C-319.26 253.13 -319.92 253.13 -320.6 253.13 C-321.96 254.81 -323.24 256.55 -324.47 258.32 C-327.08 262.02 -329.76 265.6 -332.6 269.13 C-335.3 272.77 -337.95 276.45 -340.6 280.13 C-341.1 280.82 -341.6 281.51 -342.12 282.22 C-345.78 287.28 -348.87 292.59 -351.97 298 C-353.97 301.45 -355.99 304.8 -358.35 308 C-360.48 310.96 -362 313.86 -363.6 317.13 C-364.32 318.16 -365.04 319.19 -365.79 320.25 C-367.95 323.13 -367.95 323.13 -367.6 327.13 C-368.26 327.13 -368.92 327.13 -369.6 327.13 C-371.02 330.45 -371.99 333.57 -372.6 337.13 C-373.26 337.13 -373.92 337.13 -374.6 337.13 C-376.02 340.45 -376.99 343.57 -377.6 347.13 C-378.26 347.13 -378.92 347.13 -379.6 347.13 C-379.6 348.78 -379.6 350.43 -379.6 352.13 C-380.26 352.13 -380.92 352.13 -381.6 352.13 C-383.9 357.74 -386.07 363.34 -387.89 369.12 C-388.6 371.13 -388.6 371.13 -389.6 373.09 C-390.69 375.31 -391.32 377.44 -391.97 379.82 C-393.22 384.11 -394.83 388.06 -396.69 392.12 C-399.03 397.28 -400.13 402.51 -401.13 408.06 C-401.6 410.13 -401.6 410.13 -402.6 411.13 C-402.97 412.6 -403.29 414.08 -403.6 415.57 C-404.09 417.97 -404.5 419.93 -405.6 422.13 C-405.83 424.08 -406.06 426.04 -406.29 428 C-406.75 431.13 -407.72 434.09 -408.6 437.13 C-409.62 442.14 -410.49 447.18 -411.16 452.25 C-411.6 455.13 -411.6 455.13 -412.6 456.13 C-412.81 458.1 -412.97 460.09 -413.1 462.07 C-413.49 467.91 -413.49 467.91 -414.6 470.13 C-414.81 471.64 -414.97 473.15 -415.1 474.66 C-415.18 475.56 -415.26 476.45 -415.35 477.37 C-415.52 479.25 -415.68 481.14 -415.85 483.03 C-415.93 483.92 -416.01 484.81 -416.1 485.73 C-416.17 486.55 -416.24 487.37 -416.32 488.21 C-416.6 490.13 -416.6 490.13 -417.6 491.13 C-417.7 493.56 -417.74 495.96 -417.73 498.39 C-417.73 499.15 -417.73 499.91 -417.73 500.69 C-417.74 503.21 -417.74 505.73 -417.73 508.25 C-417.73 510 -417.73 511.74 -417.73 513.49 C-417.74 517.15 -417.73 520.81 -417.73 524.48 C-417.72 529.18 -417.73 533.88 -417.73 538.59 C-417.74 542.19 -417.74 545.8 -417.73 549.4 C-417.73 551.14 -417.73 552.87 -417.74 554.61 C-417.74 557.03 -417.73 559.45 -417.73 561.87 C-417.73 562.6 -417.73 563.32 -417.73 564.07 C-418.01 567.38 -418.01 567.38 -416.6 570.13 C-416.38 571.59 -416.23 573.06 -416.1 574.53 C-416.02 575.42 -415.93 576.31 -415.85 577.23 C-415.77 578.17 -415.68 579.1 -415.6 580.07 C-415.44 581.91 -415.27 583.75 -415.1 585.59 C-414.99 586.83 -414.99 586.83 -414.88 588.08 C-414.7 590.19 -414.7 590.19 -413.6 592.13 C-413.32 595.08 -413.15 598.03 -412.98 600.99 C-412.58 604.27 -411.66 607.01 -410.6 610.13 C-410.22 612.27 -409.89 614.41 -409.6 616.57 C-408.92 621.25 -408 625.6 -406.6 630.13 C-403.62 641.29 -403.62 641.29 -403.04 646.13 C-402.77 649.05 -402.77 649.05 -401.6 651.13 C-400.6 653.13 -400.6 653.13 -400.29 656.13 C-399.73 660.82 -397.73 664.91 -395.86 669.2 C-394.31 672.81 -392.95 676.45 -391.6 680.13 C-391.34 680.8 -391.09 681.46 -390.82 682.15 C-389.6 685.32 -388.52 688.42 -387.6 691.69 C-386.54 695.33 -385.11 698.66 -383.6 702.13 C-382.91 704.12 -382.24 706.12 -381.6 708.13 C-380.94 708.13 -380.28 708.13 -379.6 708.13 C-379.48 708.85 -379.35 709.57 -379.22 710.32 C-378.61 713.09 -377.71 715.53 -376.6 718.13 C-375.94 718.13 -375.28 718.13 -374.6 718.13 C-374.52 718.76 -374.44 719.4 -374.36 720.05 C-373.28 724.44 -371.36 728.32 -369.41 732.38 C-369.01 733.23 -368.6 734.08 -368.18 734.96 C-365.74 740 -363.19 744.8 -359.89 749.34 C-356.27 754.36 -353.4 759.93 -350.32 765.29 C-348.7 768.08 -348.7 768.08 -346.94 770.31 C-345.6 772.13 -345.6 772.13 -344.6 775.13 C-343.94 775.13 -343.28 775.13 -342.6 775.13 C-342.37 775.81 -342.15 776.49 -341.91 777.19 C-340.29 780.83 -338.27 784.16 -335.6 787.13 C-334.94 787.13 -334.28 787.13 -333.6 787.13 C-333.39 787.98 -333.19 788.82 -332.97 789.69 C-331.51 793.36 -329.81 795.45 -327.19 798.32 C-325.58 800.15 -324.22 802.05 -322.85 804.07 C-322.11 805.08 -321.36 806.09 -320.6 807.13 C-319.94 807.13 -319.28 807.13 -318.6 807.13 C-318.35 807.85 -318.1 808.57 -317.85 809.32 C-316.48 812.41 -314.88 814.64 -312.6 817.13 C-311.94 817.13 -311.28 817.13 -310.6 817.13 C-310.37 817.67 -310.15 818.2 -309.91 818.75 C-307.09 823.85 -302.87 828.21 -298.6 832.13 C-297.94 832.13 -297.28 832.13 -296.6 832.13 C-296.1 833.61 -296.1 833.61 -295.6 835.13 C-294.94 835.13 -294.28 835.13 -293.6 835.13 C-293.37 835.67 -293.15 836.2 -292.91 836.75 C-291.13 839.98 -289.12 842.43 -286.6 845.13 C-285.61 845.13 -284.62 845.13 -283.6 845.13 C-283.27 846.12 -282.94 847.11 -282.6 848.13 C-281.29 849.48 -279.95 850.82 -278.6 852.13 C-277.61 853.61 -277.61 853.61 -276.6 855.13 C-275.61 855.13 -274.62 855.13 -273.6 855.13 C-273.6 855.79 -273.6 856.45 -273.6 857.13 C-272.98 857.21 -272.36 857.29 -271.72 857.38 C-269.6 858.13 -269.6 858.13 -268.68 859.99 C-267.47 862.38 -266.25 863.48 -264.16 865.13 C-262.03 866.87 -260.5 868.27 -258.85 870.5 C-258.23 871.31 -258.23 871.31 -257.6 872.13 C-256.61 872.13 -255.62 872.13 -254.6 872.13 C-254.27 873.12 -253.94 874.11 -253.6 875.13 C-251.95 875.83 -250.28 876.5 -248.6 877.13 C-248.27 877.79 -247.94 878.45 -247.6 879.13 C-246.61 879.46 -245.62 879.79 -244.6 880.13 C-244.27 881.12 -243.94 882.11 -243.6 883.13 C-241.2 884.82 -239.22 885.99 -236.35 886.63 C-235.77 886.79 -235.19 886.96 -234.6 887.13 C-234.27 888.12 -233.94 889.11 -233.6 890.13 C-232.24 891.08 -230.88 892.02 -229.48 892.89 C-227.23 894.37 -225.15 896.02 -223.04 897.69 C-219.99 900.08 -216.99 902.25 -213.6 904.13 C-212.75 904.69 -211.91 905.24 -211.04 905.82 C-208.47 907.45 -208.47 907.45 -204.6 907.13 C-204.27 908.12 -203.94 909.11 -203.6 910.13 C-202.61 910.13 -201.62 910.13 -200.6 910.13 C-200.6 910.79 -200.6 911.45 -200.6 912.13 C-200.03 912.39 -199.47 912.66 -198.88 912.93 C-198.15 913.29 -197.42 913.64 -196.66 914 C-195.57 914.53 -195.57 914.53 -194.45 915.06 C-192.6 916.13 -192.6 916.13 -191.6 918.13 C-189.89 919.19 -189.89 919.19 -187.85 920.13 C-187.17 920.46 -186.5 920.79 -185.8 921.13 C-184.34 921.79 -182.86 922.41 -181.35 922.98 C-176.76 924.9 -172.46 927.38 -168.1 929.76 C-163.36 932.32 -158.66 934.3 -153.6 936.13 C-151.93 937.13 -150.27 938.13 -148.6 939.13 C-146.73 939.85 -144.85 940.57 -142.97 941.25 C-140.16 942.29 -137.42 943.46 -134.66 944.63 C-129.7 946.71 -124.72 948.5 -119.6 950.13 C-113.16 952.24 -106.77 954.42 -100.41 956.75 C-95.16 958.64 -90.06 960.06 -84.6 961.13 C-75.37 963.17 -66.15 965.31 -57.16 968.25 C-52.94 969.29 -48.85 969.55 -44.52 969.85 C-41.4 970.15 -38.6 970.81 -35.59 971.66 C-32.49 972.39 -29.36 972.62 -26.19 972.88 C-24.24 973.07 -22.3 973.33 -20.37 973.63 C-15.25 974.31 -10.14 974.47 -4.98 974.65 C-0.71 974.83 3.33 975.27 7.52 976.14 C13.21 977.2 18.67 977.4 24.44 977.36 C25.45 977.36 26.45 977.36 27.49 977.36 C29.6 977.36 31.71 977.35 33.82 977.34 C37.02 977.32 40.23 977.31 43.44 977.31 C45.5 977.31 47.57 977.3 49.63 977.3 C50.57 977.3 51.52 977.3 52.5 977.29 C58.21 977.25 63.74 976.85 69.4 976.13 C69.4 975.8 69.4 975.47 69.4 975.13 C77.65 974.8 85.9 974.47 94.4 974.13 C94.4 973.8 94.4 973.47 94.4 973.13 C95.45 973.08 96.5 973.03 97.58 972.98 C98.96 972.91 100.33 972.83 101.71 972.75 C102.4 972.72 103.09 972.69 103.81 972.66 C107.47 972.45 109.28 972.21 112.4 970.13 C114.99 969.83 117.49 969.62 120.09 969.5 C121.14 969.45 121.14 969.45 122.22 969.39 C123.94 969.29 125.67 969.21 127.4 969.13 C127.4 968.8 127.4 968.47 127.4 968.13 C129.32 967.94 129.32 967.94 131.28 967.75 C134.75 967.44 134.75 967.44 137.4 965.13 C139.31 964.75 139.31 964.75 141.46 964.57 C145.17 964.57 145.17 964.57 146.4 963.13 C148.69 962.85 150.97 962.68 153.27 962.51 C155.61 962.3 155.61 962.3 157.4 960.13 C159.78 959.72 159.78 959.72 162.53 959.5 C163.44 959.43 164.35 959.35 165.28 959.28 C165.98 959.23 166.68 959.18 167.4 959.13 C167.4 958.47 167.4 957.81 167.4 957.13 C170.04 957.13 172.68 957.13 175.4 957.13 C175.73 956.47 176.06 955.81 176.4 955.13 C178.72 954.42 181.06 953.75 183.4 953.13 C186.67 952.06 186.67 952.06 189.4 950.13 C191.73 949.76 194.06 949.43 196.4 949.13 C196.4 948.47 196.4 947.81 196.4 947.13 C197.35 947.17 198.3 947.21 199.28 947.25 C202.5 947.48 202.5 947.48 204.4 945.13 C206.72 944.43 209.06 943.76 211.4 943.13 C214.12 942.16 216.42 941.12 218.9 939.63 C221.35 938.16 223.75 937.19 226.4 936.13 C227.18 935.63 227.97 935.14 228.78 934.63 C231.88 932.85 234.94 932.01 238.4 931.13 C238.4 930.8 238.4 930.47 238.4 930.13 C239.51 929.94 239.51 929.94 240.65 929.75 C243.23 929.17 245.15 928.5 247.4 927.13 C247.73 926.47 248.06 925.81 248.4 925.13 C250.06 924.77 251.73 924.44 253.4 924.13 C256 923.11 257.38 922.15 259.34 920.13 C261.6 917.94 263.48 917.2 266.4 916.13 C267.06 915.47 267.72 914.81 268.4 914.13 C269.25 913.8 270.09 913.47 270.96 913.13 C273.55 912.38 273.55 912.38 274.4 910.13 C276.49 908.93 278.57 908.07 280.84 907.25 C283.8 905.96 285.91 904.16 288.4 902.13 C289.39 901.8 290.38 901.47 291.4 901.13 C291.69 900.47 291.98 899.81 292.28 899.13 C292.65 898.47 293.02 897.81 293.4 897.13 C294.16 896.99 294.93 896.84 295.71 896.69 C299.41 895.92 300.8 893.79 303.4 891.13 C304.25 890.8 305.09 890.47 305.96 890.13 C308.61 889.28 308.61 889.28 310.34 886.69 C312.75 883.69 314.97 882.81 318.4 881.13 C319.25 880.28 320.09 879.44 320.96 878.57 C323.4 876.13 323.4 876.13 325.84 875.25 C329.08 873.83 330.46 871.92 332.66 869.21 C334.67 866.81 336.78 864.56 338.96 862.32 C339.69 861.57 340.41 860.82 341.16 860.05 C343.51 858.04 345.54 857.22 348.4 856.13 C349.61 854.72 350.82 853.31 351.95 851.84 C354.2 849.19 356.84 847.04 359.48 844.79 C363.55 841.28 367.28 837.52 370.4 833.13 C370.4 832.14 370.4 831.15 370.4 830.13 C370.99 829.88 371.58 829.63 372.19 829.37 C374.68 827.97 375.98 826.52 377.78 824.32 C380.75 820.8 383.8 817.99 387.4 815.13 C389.51 813.32 390.31 812.39 391.28 809.75 C392.4 807.13 392.4 807.13 394.96 804.63 C397.54 801.99 398.09 800.73 398.4 797.13 C399.06 797.13 399.72 797.13 400.4 797.13 C403.02 794.84 405.05 793.02 406.34 789.75 C408.22 785.12 411.9 781.63 415.4 778.13 C415.4 777.47 415.4 776.81 415.4 776.13 C416.06 775.8 416.72 775.47 417.4 775.13 C420.11 771.06 421.86 766.76 423.4 762.13 C424.06 762.13 424.72 762.13 425.4 762.13 C426.08 760.46 426.08 760.46 426.78 758.75 C428.4 755.13 428.4 755.13 430.4 753.13 C430.4 752.14 430.4 751.15 430.4 750.13 C431.06 750.13 431.72 750.13 432.4 750.13 C432.4 749.14 432.4 748.15 432.4 747.13 C433.39 747.13 434.38 747.13 435.4 747.13 C436.67 744.85 437.42 743.03 437.9 740.44 C438.07 739.68 438.23 738.92 438.4 738.13 C439.06 737.8 439.72 737.47 440.4 737.13 C441.77 734.87 442.42 733.05 442.9 730.44 C443.07 729.68 443.23 728.92 443.4 728.13 C444.06 727.8 444.72 727.47 445.4 727.13 C445.76 725.47 446.09 723.8 446.4 722.13 C447.98 718.34 447.98 718.34 450.4 717.13 C450.76 715.47 451.09 713.8 451.4 712.13 C452.98 708.34 452.98 708.34 455.4 707.13 C455.4 704.82 455.4 702.51 455.4 700.13 C456.06 700.13 456.72 700.13 457.4 700.13 C457.52 699.35 457.65 698.56 457.78 697.75 C458.4 695.13 458.4 695.13 460.4 693.13 C461.05 690.56 461.05 690.56 461.4 688.13 C461.73 688.13 462.06 688.13 462.4 688.13 C462.52 687.02 462.65 685.9 462.78 684.75 C463.4 681.13 463.4 681.13 465.4 679.13 C465.4 677.81 465.4 676.49 465.4 675.13 C466.06 675.13 466.72 675.13 467.4 675.13 C467.52 674 467.65 672.86 467.78 671.69 C467.98 670.52 468.19 669.34 468.4 668.13 C469.06 667.8 469.72 667.47 470.4 667.13 C471.06 664.1 471.06 664.1 471.4 661.13 C471.73 661.13 472.06 661.13 472.4 661.13 C472.45 660.53 472.5 659.92 472.55 659.3 C472.62 658.5 472.7 657.7 472.78 656.88 C472.85 656.09 472.92 655.3 472.99 654.49 C473.42 652.03 474.26 650.34 475.4 648.13 C475.79 645.8 476.13 643.47 476.4 641.13 C476.73 641.13 477.06 641.13 477.4 641.13 C477.45 640.43 477.5 639.73 477.55 639.01 C477.62 638.1 477.7 637.19 477.78 636.25 C477.88 634.9 477.88 634.9 477.99 633.51 C478.4 631.13 478.4 631.13 480.4 629.13 C480.82 627.19 480.82 627.19 480.96 625.07 C481.4 621.13 481.4 621.13 482.4 620.13 C482.69 617.09 482.85 614.06 483.02 611.01 C483.4 608.13 483.4 608.13 485.4 605.13 C485.67 602.83 485.85 600.51 485.96 598.19 C486.16 594.35 486.42 590.84 487.4 587.13 C487.62 585.22 487.8 583.3 487.96 581.38 C488.05 580.39 488.13 579.41 488.22 578.4 C488.28 577.65 488.34 576.9 488.4 576.13 C488.73 576.13 489.06 576.13 489.4 576.13 C490.26 566.04 490.58 556.02 490.6 545.9 C490.61 544.78 490.61 544.78 490.61 543.64 C490.63 539.68 490.64 535.73 490.64 531.78 C490.65 528.56 490.66 525.35 490.68 522.13 C491.03 498.92 491.03 498.92 488.15 475.94 C487.15 470.87 486.63 465.79 486.14 460.65 C485.73 456.8 484.86 453.7 483.4 450.13 C483.24 448.36 483.14 446.59 483.09 444.82 C482.69 438.84 481.16 433.7 479.27 428.07 C477.6 423.02 476.62 418.07 475.86 412.8 C475.29 409.5 474.32 406.48 473.18 403.34 C472.35 400.98 471.65 398.6 470.96 396.19 C469.68 391.86 468.08 387.73 466.37 383.55 C465.48 381.32 464.7 379.1 463.96 376.82 C460.21 365.27 455.42 354.14 450.21 343.19 C449.82 342.37 449.43 341.55 449.03 340.7 C445.26 332.79 441.35 324.95 437.4 317.13 C436.73 315.8 436.07 314.46 435.4 313.13 C434.74 313.13 434.08 313.13 433.4 313.13 C433.23 312.26 433.23 312.26 433.05 311.38 C432.35 308.94 431.35 307.24 429.96 305.13 C428.67 303.16 427.46 301.25 426.43 299.13 C425.3 296.92 423.89 295.11 422.4 293.13 C421.08 290.83 419.83 288.49 418.58 286.15 C417.44 284 417.44 284 415.4 282.13 C414.91 281.26 414.41 280.4 413.9 279.5 C413.41 278.72 412.91 277.94 412.4 277.13 C411.74 277.13 411.08 277.13 410.4 277.13 C410.25 276.29 410.25 276.29 410.09 275.44 C409.25 272.61 408.11 270.53 406.4 268.13 C405.75 267.83 405.1 267.54 404.42 267.23 C401.9 265.85 401.44 264.69 400.34 262.07 C399.49 259.93 399.49 259.93 398.4 258.13 C397.41 257.8 396.42 257.47 395.4 257.13 C395.4 256.14 395.4 255.15 395.4 254.13 C394.74 254.13 394.08 254.13 393.4 254.13 C393.4 253.47 393.4 252.81 393.4 252.13 C392.74 251.8 392.08 251.47 391.4 251.13 C390.89 250.14 390.37 249.15 389.84 248.13 C387.43 243.69 383.96 240.5 380.33 237.05 C378.4 235.13 378.4 235.13 377.4 233.13 C376.74 233.13 376.08 233.13 375.4 233.13 C375.4 232.47 375.4 231.81 375.4 231.13 C374.74 231.13 374.08 231.13 373.4 231.13 C373.07 230.14 372.74 229.15 372.4 228.13 C371.74 228.13 371.08 228.13 370.4 228.13 C370.13 227.57 369.86 227.02 369.59 226.44 C368.28 223.9 367.03 221.48 365.4 219.13 C364.41 219.13 363.42 219.13 362.4 219.13 C362.4 218.47 362.4 217.81 362.4 217.13 C361.11 215.75 359.77 214.42 358.4 213.13 C357.5 212.2 357.5 212.2 356.59 211.25 C354.69 209.41 352.76 207.63 350.78 205.88 C350.19 205.36 349.6 204.84 348.99 204.3 C347.46 202.93 347.46 202.93 345.4 203.13 C345.4 202.47 345.4 201.81 345.4 201.13 C343.85 199.52 343.85 199.52 341.84 197.88 C341.11 197.26 340.39 196.65 339.64 196.02 C338.53 195.08 338.53 195.08 337.4 194.13 C336.73 193.54 336.07 192.95 335.38 192.34 C334.46 191.52 334.46 191.52 333.53 190.69 C332.69 189.95 332.69 189.95 331.85 189.2 C330.43 187.93 330.43 187.93 328.4 188.13 C328.4 187.47 328.4 186.81 328.4 186.13 C326.53 184.35 326.53 184.35 324.15 182.57 C323.36 181.95 322.57 181.33 321.76 180.69 C319.55 179.23 317.99 178.56 315.4 178.13 C315.4 177.47 315.4 176.81 315.4 176.13 C311.91 172.97 308.46 170.52 304.4 168.13 C302.73 166.8 301.06 165.47 299.4 164.13 C295.73 161.2 295.73 161.2 291.4 160.13 C291.4 159.47 291.4 158.81 291.4 158.13 C288.9 156.37 288.9 156.37 285.78 154.63 C284.73 154.02 283.69 153.41 282.61 152.79 C279.58 151.22 276.66 150.11 273.4 149.13 C273.4 148.47 273.4 147.81 273.4 147.13 C272.76 146.83 272.12 146.52 271.46 146.21 C270.16 145.58 270.16 145.58 268.84 144.94 C267.99 144.54 267.14 144.13 266.27 143.71 C264.03 142.48 262.18 141.26 260.15 139.74 C256.03 136.73 251.59 134.67 246.96 132.57 C245.34 131.82 243.72 131.07 242.09 130.31 C241.31 129.95 240.53 129.59 239.72 129.22 C237.45 128.15 235.22 127.01 232.99 125.85 C229.61 123.91 229.61 123.91 226.4 124.13 C226.4 123.47 226.4 122.81 226.4 122.13 C221.59 119.84 221.59 119.84 216.4 119.13 C216.4 118.47 216.4 117.81 216.4 117.13 C215.27 116.88 214.13 116.63 212.96 116.38 C209.71 115.58 206.81 114.48 203.78 113.07 C200.3 111.45 197.24 110.57 193.4 110.13 C191.73 109.8 190.07 109.47 188.4 109.13 C188.4 108.47 188.4 107.81 188.4 107.13 C187.52 106.86 186.64 106.6 185.73 106.32 C184.57 105.97 183.41 105.62 182.21 105.25 C181.07 104.91 179.92 104.56 178.73 104.2 C175.89 103.29 173.17 102.24 170.4 101.13 C166.58 100.04 162.65 99.43 158.74 98.73 C156.4 98.13 156.4 98.13 153.4 96.13 C151.07 95.76 148.74 95.43 146.4 95.13 C144.83 94.84 143.27 94.52 141.71 94.19 C140.99 94.04 140.26 93.89 139.51 93.73 C137.4 93.13 137.4 93.13 135.46 92.1 C132.98 90.93 130.93 90.76 128.21 90.57 C123.5 90.23 123.5 90.23 122.4 89.13 C119.2 88.84 116 88.68 112.8 88.51 C109.4 88.13 106.63 87.22 103.4 86.13 C101.32 85.88 99.24 85.69 97.15 85.57 C91.6 85.23 91.6 85.23 89.4 84.13 C87.38 84 85.35 83.93 83.33 83.88 C82.1 83.85 80.88 83.82 79.61 83.78 C77.03 83.72 74.45 83.67 71.87 83.61 C70.02 83.56 70.02 83.56 68.14 83.51 C67.02 83.48 65.89 83.46 64.73 83.43 C61.4 83.13 61.4 83.13 57.91 82.12 C54.29 81.1 51.32 80.87 47.58 80.86 C46.3 80.86 45.02 80.86 43.71 80.86 C42.39 80.86 41.07 80.87 39.71 80.88 C38.41 80.87 37.12 80.86 35.78 80.86 C28.81 80.87 22.3 81.37 15.46 82.66 Z " fill="#ffffff" transform="translate(501.598876953125,-0.12939453125)"/>
<path d="M0 0 C15.51 0 31.02 0 47 0 C47 0.33 47 0.66 47 1 C31.49 1 15.98 1 0 1 C0 0.67 0 0.34 0 0 Z " fill="#FDFDFD" transform="translate(510,1060)"/>
<path d="M0 0 C9.9 0 19.8 0 30 0 C30 0.33 30 0.66 30 1 C20.1 1 10.2 1 0 1 C0 0.67 0 0.34 0 0 Z " fill="#FDFDFD" transform="translate(526,82)"/>
<path d="M0 0 C0.33 0 0.66 0 1 0 C1 4.95 1 9.9 1 15 C0.67 15 0.34 15 0 15 C0 10.05 0 5.1 0 0 Z " fill="#FDFDFD" transform="translate(85,554)"/>
<path d="M0 0 C0.33 0 0.66 0 1 0 C1 4.95 1 9.9 1 15 C0.67 15 0.34 15 0 15 C0 10.05 0 5.1 0 0 Z " fill="#FDFDFD" transform="translate(85,491)"/>
<path d="M0 0 C3.96 0 7.92 0 12 0 C12 0.33 12 0.66 12 1 C8.04 1 4.08 1 0 1 C0 0.67 0 0.34 0 0 Z " fill="#FDFDFD" transform="translate(474,1057)"/>
<path d="M0 0 C0.33 0 0.66 0 1 0 C1 3.3 1 6.6 1 10 C0.67 10 0.34 10 0 10 C0 6.7 0 3.4 0 0 Z " fill="#FDFDFD" transform="translate(1075,474)"/>
<path d="M0 0 C0.33 0 0.66 0 1 0 C1 2.64 1 5.28 1 8 C0.67 8 0.34 8 0 8 C0 5.36 0 2.72 0 0 Z " fill="#FDFDFD" transform="translate(1075,576)"/>
<path d="M0 0 C1.98 0 3.96 0 6 0 C6 0.33 6 0.66 6 1 C4.02 1 2.04 1 0 1 C0 0.67 0 0.34 0 0 Z " fill="#FDFDFD" transform="translate(599,87)"/>
<path d="M0 0 C1.65 0 3.3 0 5 0 C5 0.33 5 0.66 5 1 C3.35 1 1.7 1 0 1 C0 0.67 0 0.34 0 0 Z " fill="#FDFDFD" transform="translate(596,1057)"/>
<path d="M0 0 C1.65 0 3.3 0 5 0 C5 0.33 5 0.66 5 1 C3.35 1 1.7 1 0 1 C0 0.67 0 0.34 0 0 Z " fill="#FDFDFD" transform="translate(459,1055)"/>
<path d="M0 0 C0.66 0.33 1.32 0.66 2 1 C1.01 1.66 0.02 2.32 -1 3 C-0.67 2.01 -0.34 1.02 0 0 Z " fill="#ffffff" transform="translate(849,853)"/>
<path d="M0 0 C0.66 0.33 1.32 0.66 2 1 C1.01 1.66 0.02 2.32 -1 3 C-0.67 2.01 -0.34 1.02 0 0 Z " fill="#ffffff" transform="translate(869,833)"/>
<path d="M0 0 C4 1 4 1 4 1 Z " fill="#FDFDFD" transform="translate(611,1055)"/>
<path d="M0 0 C4 1 4 1 4 1 Z " fill="#FDFDFD" transform="translate(430,1050)"/>
<path d="M0 0 C1 4 1 4 1 4 Z " fill="#FDFDFD" transform="translate(1070,614)"/>
<path d="M0 0 C4 1 4 1 4 1 Z " fill="#FDFDFD" transform="translate(620,90)"/>
<path d="M0 0 C4 1 4 1 4 1 Z " fill="#FDFDFD" transform="translate(474,87)"/>
<path d="M0 0 C4 1 4 1 4 1 Z " fill="#FDFDFD" transform="translate(587,85)"/>
<path d="M0 0 C4 1 4 1 4 1 Z " fill="#FDFDFD" transform="translate(486,85)"/>
<path d="M0 0 C3 1 3 1 3 1 Z " fill="#FDFDFD" transform="translate(634,1052)"/>
<path d="" fill="#FDFDFD" transform="translate(0,0)"/>
<path d="" fill="#FDFDFD" transform="translate(0,0)"/>
<path d="" fill="#FDFDFD" transform="translate(0,0)"/>
<path d="M0 0 C3 1 3 1 3 1 Z " fill="#FDFDFD" transform="translate(454,90)"/>
<path d="M0 0 C2 1 2 1 2 1 Z " fill="#FDFDFD" transform="translate(666,1045)"/>
<path d="M0 0 C2 1 2 1 2 1 Z " fill="#FDFDFD" transform="translate(389,1040)"/>
<path d="M0 0 C2 1 2 1 2 1 Z " fill="#FDFDFD" transform="translate(701,1035)"/>
<path d="M0 0 C2 1 2 1 2 1 Z " fill="#FDFDFD" transform="translate(372,1035)"/>
<path d="M0 0 C2 1 2 1 2 1 Z " fill="#FDFDFD" transform="translate(364,1032)"/>
<path d="M0 0 C2 1 2 1 2 1 Z " fill="#FDFDFD" transform="translate(349,1027)"/>
<path d="" fill="#FDFDFD" transform="translate(0,0)"/>
<path d="" fill="#FDFDFD" transform="translate(0,0)"/>
<path d="" fill="#FDFDFD" transform="translate(0,0)"/>
<path d="" fill="#FDFDFD" transform="translate(0,0)"/>
<path d="" fill="#FDFDFD" transform="translate(0,0)"/>
<path d="" fill="#FDFDFD" transform="translate(0,0)"/>
<path d="" fill="#FDFDFD" transform="translate(0,0)"/>
<path d="M0 0 C2 1 2 1 2 1 Z " fill="#FDFDFD" transform="translate(664,100)"/>
<path d="M0 0 C2 1 2 1 2 1 Z " fill="#FDFDFD" transform="translate(411,100)"/>
<path d="M0 0 C2 1 2 1 2 1 Z " fill="#FDFDFD" transform="translate(644,95)"/>
<path d="M0 0 C2 1 2 1 2 1 Z " fill="#FDFDFD" transform="translate(431,95)"/>
<path d="" fill="#FDFDFD" transform="translate(0,0)"/>
<path d="" fill="#FDFDFD" transform="translate(0,0)"/>
<path d="" fill="#FDFDFD" transform="translate(0,0)"/>
<path d="" fill="#FDFDFD" transform="translate(0,0)"/>
<path d="" fill="#FDFDFD" transform="translate(0,0)"/>
<path d="" fill="#FDFDFD" transform="translate(0,0)"/>
<path d="" fill="#FDFDFD" transform="translate(0,0)"/>
<path d="" fill="#FDFDFD" transform="translate(0,0)"/>
<path d="" fill="#FDFDFD" transform="translate(0,0)"/>
<path d="" fill="#FDFDFD" transform="translate(0,0)"/>
<path d="" fill="#FDFDFD" transform="translate(0,0)"/>
<path d="" fill="#FDFDFD" transform="translate(0,0)"/>
<path d="" fill="#FDFDFD" transform="translate(0,0)"/>
<path d="" fill="#FDFDFD" transform="translate(0,0)"/>
<path d="" fill="#FDFDFD" transform="translate(0,0)"/>
<path d="" fill="#FDFDFD" transform="translate(0,0)"/>
<path d="" fill="#FDFDFD" transform="translate(0,0)"/>
<path d="" fill="#FDFDFD" transform="translate(0,0)"/>
<path d="" fill="#FDFDFD" transform="translate(0,0)"/>
<path d="" fill="#FDFDFD" transform="translate(0,0)"/>
<path d="" fill="#FDFDFD" transform="translate(0,0)"/>
<path d="" fill="#FDFDFD" transform="translate(0,0)"/>
<path d="" fill="#FDFDFD" transform="translate(0,0)"/>
<path d="" fill="#ffffff" transform="translate(0,0)"/>
<path d="" fill="#ffffff" transform="translate(0,0)"/>
<path d="" fill="#FDFDFD" transform="translate(0,0)"/>
<path d="" fill="#FDFDFD" transform="translate(0,0)"/>
<path d="" fill="#FDFDFD" transform="translate(0,0)"/>
<path d="" fill="#FDFDFD" transform="translate(0,0)"/>
<path d="" fill="#ffffff" transform="translate(0,0)"/>
<path d="" fill="#FDFDFD" transform="translate(0,0)"/>
<path d="" fill="#FDFDFD" transform="translate(0,0)"/>
<path d="" fill="#ffffff" transform="translate(0,0)"/>
<path d="" fill="#ffffff" transform="translate(0,0)"/>
<path d="" fill="#ffffff" transform="translate(0,0)"/>
<path d="" fill="#ffffff" transform="translate(0,0)"/>
<path d="" fill="#ffffff" transform="translate(0,0)"/>
<path d="" fill="#ffffff" transform="translate(0,0)"/>
<path d="" fill="#ffffff" transform="translate(0,0)"/>
<path d="" fill="#ffffff" transform="translate(0,0)"/>
<path d="" fill="#ffffff" transform="translate(0,0)"/>
<path d="" fill="#ffffff" transform="translate(0,0)"/>
<path d="" fill="#ffffff" transform="translate(0,0)"/>
<path d="" fill="#ffffff" transform="translate(0,0)"/>
<path d="" fill="#ffffff" transform="translate(0,0)"/>
<path d="" fill="#ffffff" transform="translate(0,0)"/>
<path d="" fill="#ffffff" transform="translate(0,0)"/>
<path d="" fill="#ffffff" transform="translate(0,0)"/>
<path d="" fill="#ffffff" transform="translate(0,0)"/>
<path d="" fill="#ffffff" transform="translate(0,0)"/>
<path d="" fill="#ffffff" transform="translate(0,0)"/>
<path d="" fill="#ffffff" transform="translate(0,0)"/>
<path d="" fill="#ffffff" transform="translate(0,0)"/>
<path d="" fill="#ffffff" transform="translate(0,0)"/>
<path d="" fill="#ffffff" transform="translate(0,0)"/>
<path d="" fill="#ffffff" transform="translate(0,0)"/>
<path d="" fill="#ffffff" transform="translate(0,0)"/>
<path d="" fill="#ffffff" transform="translate(0,0)"/>
<path d="" fill="#ffffff" transform="translate(0,0)"/>
<path d="" fill="#ffffff" transform="translate(0,0)"/>
<path d="" fill="#ffffff" transform="translate(0,0)"/>
<path d="" fill="#FDFDFD" transform="translate(0,0)"/>
<path d="" fill="#ffffff" transform="translate(0,0)"/>
<path d="" fill="#ffffff" transform="translate(0,0)"/>
<path d="" fill="#ffffff" transform="translate(0,0)"/>
<path d="" fill="#FDFDFD" transform="translate(0,0)"/>
<path d="" fill="#FDFDFD" transform="translate(0,0)"/>
<path d="" fill="#FDFDFD" transform="translate(0,0)"/>
<path d="" fill="#ffffff" transform="translate(0,0)"/>
<path d="" fill="#FDFDFD" transform="translate(0,0)"/>
<path d="" fill="#FDFDFD" transform="translate(0,0)"/>
<path d="" fill="#ffffff" transform="translate(0,0)"/>
<path d="" fill="#FDFDFD" transform="translate(0,0)"/>
<path d="" fill="#FDFDFD" transform="translate(0,0)"/>
<path d="" fill="#FDFDFD" transform="translate(0,0)"/>
<path d="" fill="#ffffff" transform="translate(0,0)"/>
<path d="" fill="#FDFDFD" transform="translate(0,0)"/>
<path d="" fill="#FDFDFD" transform="translate(0,0)"/>
<path d="" fill="#FDFDFD" transform="translate(0,0)"/>
<path d="" fill="#ffffff" transform="translate(0,0)"/>
<path d="" fill="#FDFDFD" transform="translate(0,0)"/>
<path d="" fill="#ffffff" transform="translate(0,0)"/>
<path d="" fill="#FDFDFD" transform="translate(0,0)"/>
<path d="" fill="#ffffff" transform="translate(0,0)"/>
<path d="" fill="#FDFDFD" transform="translate(0,0)"/>
<path d="" fill="#ffffff" transform="translate(0,0)"/>
<path d="" fill="#FDFDFD" transform="translate(0,0)"/>
<path d="" fill="#FDFDFD" transform="translate(0,0)"/>
<path d="" fill="#FDFDFD" transform="translate(0,0)"/>
<path d="" fill="#ffffff" transform="translate(0,0)"/>
<path d="" fill="#ffffff" transform="translate(0,0)"/>
<path d="" fill="#FDFDFD" transform="translate(0,0)"/>
<path d="" fill="#FDFDFD" transform="translate(0,0)"/>
<path d="" fill="#FDFDFD" transform="translate(0,0)"/>
<path d="" fill="#FDFDFD" transform="translate(0,0)"/>
<path d="" fill="#FDFDFD" transform="translate(0,0)"/>
<path d="" fill="#ffffff" transform="translate(0,0)"/>
<path d="" fill="#FDFDFD" transform="translate(0,0)"/>
<path d="" fill="#FDFDFD" transform="translate(0,0)"/>
<path d="" fill="#ffffff" transform="translate(0,0)"/>
<path d="" fill="#FDFDFD" transform="translate(0,0)"/>
<path d="" fill="#FDFDFD" transform="translate(0,0)"/>
<path d="" fill="#ffffff" transform="translate(0,0)"/>
<path d="" fill="#ffffff" transform="translate(0,0)"/>
<path d="" fill="#FDFDFD" transform="translate(0,0)"/>
<path d="" fill="#ffffff" transform="translate(0,0)"/>
<path d="" fill="#ffffff" transform="translate(0,0)"/>
<path d="" fill="#ffffff" transform="translate(0,0)"/>
<path d="" fill="#ffffff" transform="translate(0,0)"/>
<path d="" fill="#ffffff" transform="translate(0,0)"/>
<path d="" fill="#ffffff" transform="translate(0,0)"/>
<path d="" fill="#ffffff" transform="translate(0,0)"/>
<path d="" fill="#FDFDFD" transform="translate(0,0)"/>
<path d="" fill="#ffffff" transform="translate(0,0)"/>
<path d="" fill="#FDFDFD" transform="translate(0,0)"/>
<path d="" fill="#FDFDFD" transform="translate(0,0)"/>
<path d="" fill="#FDFDFD" transform="translate(0,0)"/>
<path d="" fill="#FDFDFD" transform="translate(0,0)"/>
<path d="" fill="#FDFDFD" transform="translate(0,0)"/>
<path d="" fill="#FDFDFD" transform="translate(0,0)"/>
<path d="" fill="#FDFDFD" transform="translate(0,0)"/>
<path d="" fill="#FDFDFD" transform="translate(0,0)"/>
<path d="" fill="#ffffff" transform="translate(0,0)"/>
<path d="" fill="#FDFDFD" transform="translate(0,0)"/>
<path d="" fill="#FDFDFD" transform="translate(0,0)"/>
<path d="" fill="#ffffff" transform="translate(0,0)"/>
<path d="" fill="#FDFDFD" transform="translate(0,0)"/>
<path d="" fill="#FDFDFD" transform="translate(0,0)"/>
<path d="" fill="#ffffff" transform="translate(0,0)"/>
<path d="" fill="#FDFDFD" transform="translate(0,0)"/>
<path d="" fill="#ffffff" transform="translate(0,0)"/>
<path d="" fill="#FDFDFD" transform="translate(0,0)"/>
<path d="" fill="#ffffff" transform="translate(0,0)"/>
<path d="" fill="#ffffff" transform="translate(0,0)"/>
<path d="" fill="#ffffff" transform="translate(0,0)"/>
<path d="" fill="#ffffff" transform="translate(0,0)"/>
<path d="" fill="#ffffff" transform="translate(0,0)"/>
<path d="" fill="#ffffff" transform="translate(0,0)"/>
<path d="" fill="#ffffff" transform="translate(0,0)"/>
<path d="" fill="#ffffff" transform="translate(0,0)"/>
<path d="" fill="#ffffff" transform="translate(0,0)"/>
<path d="" fill="#ffffff" transform="translate(0,0)"/>
<path d="" fill="#ffffff" transform="translate(0,0)"/>
<path d="" fill="#ffffff" transform="translate(0,0)"/>
<path d="" fill="#ffffff" transform="translate(0,0)"/>
<path d="" fill="#ffffff" transform="translate(0,0)"/>
<path d="" fill="#ffffff" transform="translate(0,0)"/>
<path d="" fill="#ffffff" transform="translate(0,0)"/>
<path d="" fill="#ffffff" transform="translate(0,0)"/>
<path d="" fill="#ffffff" transform="translate(0,0)"/>
<path d="" fill="#ffffff" transform="translate(0,0)"/>
<path d="" fill="#ffffff" transform="translate(0,0)"/>
<path d="" fill="#ffffff" transform="translate(0,0)"/>
<path d="" fill="#ffffff" transform="translate(0,0)"/>
<path d="" fill="#ffffff" transform="translate(0,0)"/>
</svg>
