<?xml version="1.0" encoding="UTF-8"?>
<!-- Generator: visioncortex VTracer 0.6.3 -->
<svg version="1.1" xmlns="http://www.w3.org/2000/svg" width="1280" height="1280">
<path d="M0 0 C35.22 -0.01 70.44 -0.02 105.65 -0.03 C106.34 -0.03 107.03 -0.03 107.74 -0.03 C181.57 -0.05 255.4 -0.07 329.23 -0.08 C330.87 -0.08 332.51 -0.09 334.15 -0.09 C368.56 -0.09 402.98 -0.1 437.39 -0.1 C454.68 -0.1 471.96 -0.11 489.25 -0.11 C491.86 -0.11 494.47 -0.11 497.07 -0.11 C537.24 -0.12 577.4 -0.12 617.56 -0.14 C618.86 -0.14 618.86 -0.14 620.18 -0.14 C634.11 -0.14 648.04 -0.15 661.97 -0.15 C702.07 -0.16 742.18 -0.18 782.29 -0.18 C783.52 -0.18 783.52 -0.18 784.78 -0.18 C802.88 -0.18 820.98 -0.19 839.07 -0.19 C846.36 -0.19 853.64 -0.19 860.92 -0.19 C861.71 -0.19 862.51 -0.19 863.33 -0.19 C889.02 -0.19 914.72 -0.2 940.41 -0.21 C966.28 -0.22 992.16 -0.23 1018.03 -0.23 C1021.6 -0.23 1025.17 -0.23 1028.75 -0.23 C1029.45 -0.23 1030.15 -0.23 1030.87 -0.23 C1041.97 -0.23 1053.08 -0.23 1064.19 -0.24 C1075.1 -0.25 1086.01 -0.25 1096.92 -0.24 C1102.76 -0.24 1108.6 -0.24 1114.44 -0.25 C1119.75 -0.26 1125.05 -0.26 1130.36 -0.25 C1132.27 -0.25 1134.19 -0.25 1136.1 -0.25 C1138.69 -0.26 1141.28 -0.26 1143.87 -0.25 C1144.61 -0.25 1145.36 -0.26 1146.12 -0.26 C1150.47 -0.23 1153.95 0.44 1158 2 C1159.61 2.43 1159.61 2.43 1161.25 2.88 C1165.94 4.28 1170.6 5.84 1175 8 C1175.33 8.66 1175.66 9.32 1176 10 C1177.38 10.87 1178.81 11.67 1180.25 12.44 C1181.47 13.1 1181.47 13.1 1182.72 13.78 C1184.39 14.67 1186.07 15.56 1187.75 16.44 C1190.79 18.55 1192.68 21.12 1195 24 C1195.66 24.33 1196.32 24.66 1197 25 C1197.43 25.74 1197.87 26.49 1198.31 27.25 C1199.89 30.09 1199.89 30.09 1202.38 32.19 C1205.95 36.02 1207.79 40.29 1210 45 C1210.71 46.33 1211.41 47.67 1212.12 49 C1214.07 52.86 1215.25 56.84 1216.39 61 C1216.82 62.98 1216.82 62.98 1218 64 C1218.29 68.64 1218.31 73.29 1218.35 77.94 C1218.37 79.5 1218.39 81.06 1218.43 82.62 C1218.69 92.91 1217.86 100.67 1213 110 C1212.45 111.29 1211.9 112.58 1211.38 113.88 C1210.01 116.97 1208.54 119.99 1207 123 C1206.34 123 1205.68 123 1205 123 C1204.87 124.1 1204.87 124.1 1204.74 125.23 C1203.85 128.58 1202.61 129.89 1200.17 132.33 C1199.34 133.18 1198.51 134.02 1197.65 134.88 C1196.72 135.8 1195.8 136.72 1194.85 137.66 C1193.86 138.65 1192.87 139.65 1191.88 140.64 C1189.16 143.38 1186.42 146.12 1183.68 148.85 C1180.7 151.81 1177.74 154.79 1174.77 157.77 C1169.57 162.99 1164.35 168.2 1159.14 173.41 C1151.38 181.15 1143.63 188.91 1135.89 196.66 C1122.06 210.52 1108.22 224.36 1094.38 238.2 C1082.26 250.31 1070.14 262.43 1058.03 274.55 C1056.41 276.17 1054.78 277.79 1053.16 279.42 C1050.71 281.86 1048.27 284.31 1045.82 286.76 C1023.08 309.52 1000.33 332.27 977.57 355.02 C976.28 356.31 976.28 356.31 974.97 357.62 C967.99 364.59 961.02 371.56 954.05 378.53 C926.86 405.7 899.67 432.89 872.5 460.09 C841.99 490.64 811.47 521.17 780.94 551.69 C777.68 554.95 774.43 558.2 771.18 561.45 C770.37 562.26 769.57 563.06 768.75 563.88 C756.64 575.99 744.54 588.1 732.44 600.21 C718.68 613.99 704.92 627.75 691.14 641.51 C683.42 649.21 675.72 656.92 668.02 664.63 C662.88 669.79 657.73 674.93 652.57 680.07 C649.64 683 646.7 685.93 643.78 688.87 C641.11 691.55 638.44 694.22 635.76 696.87 C634.35 698.28 632.95 699.7 631.55 701.12 C626.13 706.46 621 710.04 614 713 C612.48 713.7 610.96 714.41 609.44 715.12 C607.98 715.79 606.49 716.41 605 717 C603.8 717.53 602.6 718.05 601.36 718.6 C594.53 720.84 587.33 720.41 580.21 720.34 C577.74 720.31 575.27 720.32 572.8 720.32 C571.21 720.32 569.63 720.31 568.05 720.3 C567.31 720.3 566.58 720.3 565.82 720.3 C561.76 720.25 558.67 719.75 555 718 C553.36 717.53 551.71 717.07 550.06 716.62 C545.69 715.35 542.66 713.68 539 711 C538.01 710.67 537.02 710.34 536 710 C536 709.34 536 708.68 536 708 C534.95 707.94 534.95 707.94 533.88 707.88 C530.32 706.79 528.85 705.1 526.43 702.38 C524.93 700.74 524.93 700.74 522 700 C521.34 699.34 520.68 698.68 520 698 C520 697.01 520 696.02 520 695 C519.42 694.91 518.85 694.82 518.25 694.73 C515.39 693.8 514.06 692.44 511.94 690.31 C511.13 689.52 510.33 688.72 509.5 687.89 C508.61 687.01 507.73 686.12 506.82 685.2 C505.87 684.25 504.92 683.3 503.97 682.36 C501.33 679.73 498.71 677.1 496.08 674.47 C493.24 671.61 490.38 668.77 487.52 665.92 C482.51 660.92 477.5 655.91 472.5 650.9 C465.06 643.45 457.62 636.01 450.17 628.57 C436.87 615.29 423.58 602 410.3 588.7 C398.67 577.07 387.04 565.44 375.41 553.81 C374.25 552.65 374.25 552.65 373.07 551.47 C369.94 548.35 366.82 545.22 363.69 542.09 C334.33 512.74 304.98 483.39 275.63 454.02 C249.54 427.92 223.44 401.81 197.33 375.72 C168.02 346.43 138.72 317.13 109.42 287.82 C106.3 284.7 103.18 281.58 100.06 278.46 C99.29 277.69 98.52 276.92 97.73 276.13 C86.1 264.5 74.48 252.88 62.85 241.26 C49.63 228.05 36.42 214.83 23.21 201.61 C15.81 194.2 8.41 186.8 1 179.4 C-3.94 174.47 -8.87 169.53 -13.8 164.59 C-16.62 161.77 -19.43 158.95 -22.26 156.14 C-24.82 153.58 -27.38 151.02 -29.93 148.45 C-31.29 147.09 -32.66 145.73 -34.03 144.37 C-34.82 143.57 -35.62 142.76 -36.44 141.94 C-37.13 141.24 -37.83 140.55 -38.54 139.84 C-40 138 -40 138 -40 135 C-40.99 134.67 -41.98 134.34 -43 134 C-46.35 132.33 -47.5 128.93 -49.23 125.7 C-49.67 124.89 -50.11 124.08 -50.56 123.25 C-51.18 122.08 -51.18 122.08 -51.82 120.89 C-52.87 118.85 -52.87 118.85 -55 118 C-57.29 112.43 -59.13 106.72 -61 101 C-61.33 100.01 -61.66 99.02 -62 98 C-62.12 95.51 -62.19 93.04 -62.2 90.55 C-62.21 89.82 -62.21 89.09 -62.22 88.33 C-62.23 86.79 -62.24 85.24 -62.24 83.69 C-62.25 81.34 -62.28 78.99 -62.31 76.64 C-62.32 75.13 -62.32 73.62 -62.33 72.11 C-62.34 71.42 -62.35 70.73 -62.37 70.01 C-62.34 64.67 -61.01 60.86 -59 56 C-58.46 53.57 -58.46 53.57 -58.31 51.5 C-58.21 50.35 -58.11 49.19 -58 48 C-57.34 48 -56.68 48 -56 48 C-55.92 47.46 -55.84 46.93 -55.75 46.38 C-54.74 43.17 -52.87 40.78 -51 38 C-50.72 37.21 -50.44 36.42 -50.15 35.61 C-48.77 32.47 -47.02 30.64 -44.61 28.21 C-43.73 27.33 -42.86 26.45 -41.96 25.55 C-40.59 24.19 -40.59 24.19 -39.19 22.81 C-38.28 21.9 -37.38 20.98 -36.45 20.04 C-35.57 19.17 -34.7 18.29 -33.79 17.39 C-32.99 16.6 -32.2 15.8 -31.37 14.98 C-28.95 12.96 -26.95 12.05 -24 11 C-21.99 9.68 -19.99 8.34 -18 7 C-17.01 6.67 -16.02 6.34 -15 6 C-15 5.67 -15 5.34 -15 5 C-9.25 3.88 -9.25 3.88 -7 5 C-7 4.34 -7 3.68 -7 3 C-3.53 2.5 -3.53 2.5 0 2 C0 1.34 0 0.68 0 0 Z " fill="#ffffff" transform="translate(62,279)"/>
<path d="M0 0 C5.94 0 11.88 0 18 0 C18 0.33 18 0.66 18 1 C12.06 1 6.12 1 0 1 C0 0.67 0 0.34 0 0 Z " fill="#FDFDFD" transform="translate(631,1000)"/>
<path d="" fill="#FDFDFD" transform="translate(0,0)"/>
<path d="" fill="#FDFDFD" transform="translate(0,0)"/>
<path d="" fill="#FDFDFD" transform="translate(0,0)"/>
<path d="" fill="#FDFDFD" transform="translate(0,0)"/>
<path d="" fill="#FDFDFD" transform="translate(0,0)"/>
<path d="" fill="#FDFDFD" transform="translate(0,0)"/>
<path d="" fill="#ffffff" transform="translate(0,0)"/>
<path d="" fill="#ffffff" transform="translate(0,0)"/>
<path d="" fill="#ffffff" transform="translate(0,0)"/>
<path d="" fill="#FDFDFD" transform="translate(0,0)"/>
<path d="" fill="#ffffff" transform="translate(0,0)"/>
<path d="" fill="#ffffff" transform="translate(0,0)"/>
<path d="" fill="#ffffff" transform="translate(0,0)"/>
</svg>
