<?xml version="1.0" encoding="UTF-8"?>
<!-- Generator: visioncortex VTracer 0.6.3 -->
<svg version="1.1" xmlns="http://www.w3.org/2000/svg" width="1280" height="1280">
<path d="M0 0 C0.86 -0 1.72 -0.01 2.6 -0.01 C3.54 -0.01 4.48 -0 5.44 -0 C6.43 -0 7.42 -0.01 8.44 -0.01 C11.73 -0.01 15.01 -0.01 18.29 -0.01 C20.56 -0.01 22.84 -0.01 25.11 -0.01 C29.88 -0.01 34.66 -0.01 39.43 -0 C45.55 0 51.68 -0 57.8 -0.01 C62.5 -0.01 67.2 -0.01 71.9 -0.01 C74.16 -0.01 76.41 -0.01 78.67 -0.01 C81.82 -0.01 84.98 -0.01 88.13 -0 C89.54 -0.01 89.54 -0.01 90.97 -0.01 C91.83 -0.01 92.69 -0 93.57 0 C94.32 0 95.07 0 95.83 0 C97.79 0.13 97.79 0.13 100.79 1.13 C103.54 1.31 106.28 1.45 109.04 1.56 C119.99 2.09 130.68 3.41 141.42 5.7 C143.94 6.15 146.42 6.38 148.97 6.56 C156.19 7.13 165.3 7.88 171.79 11.13 C173.02 11.23 174.26 11.33 175.54 11.44 C180.92 11.98 185.91 13.51 191.06 15.09 C193.88 15.87 196.58 16.5 199.44 17.05 C205.51 18.22 211.45 19.82 217.41 21.44 C218.55 21.75 219.69 22.06 220.87 22.38 C231.61 25.31 242.37 28.3 252.74 32.38 C255.53 33.4 258.38 34.22 261.22 35.06 C265.74 36.43 269.95 37.99 274.21 39.99 C277.7 41.53 281.27 42.82 284.85 44.13 C289.7 45.91 294.38 47.77 298.95 50.21 C301.1 51.28 303.29 52.14 305.54 53 C310.51 54.94 315.2 57.31 319.94 59.74 C322.41 60.94 324.83 61.96 327.41 62.88 C330.79 64.13 330.79 64.13 332.79 66.13 C334.1 66.67 335.44 67.17 336.79 67.63 C339.53 68.55 340.69 69.03 342.79 71.13 C344.86 71.77 344.86 71.77 346.79 72.13 C346.79 72.79 346.79 73.45 346.79 74.13 C347.51 74.23 348.23 74.33 348.97 74.44 C352.09 75.2 354.2 76.4 356.91 78.13 C359.6 79.82 361.76 81.12 364.79 82.13 C364.79 82.79 364.79 83.45 364.79 84.13 C367.26 84.62 367.26 84.62 369.79 85.13 C369.79 85.79 369.79 86.45 369.79 87.13 C370.35 87.24 370.92 87.35 371.51 87.47 C374.06 88.21 375.99 89.27 378.27 90.64 C379.12 91.15 379.98 91.66 380.86 92.19 C381.74 92.72 382.63 93.26 383.54 93.81 C384.41 94.33 385.27 94.85 386.17 95.38 C391.04 98.32 395.65 101.4 400.1 104.94 C401.89 106.32 401.89 106.32 404.79 107.13 C404.79 107.79 404.79 108.45 404.79 109.13 C405.36 109.23 405.94 109.34 406.53 109.45 C409.11 110.22 410.74 111.33 412.9 112.93 C413.68 113.49 414.45 114.06 415.24 114.64 C416.04 115.23 416.84 115.83 417.66 116.44 C419.24 117.6 420.82 118.77 422.4 119.93 C423.15 120.48 423.9 121.03 424.67 121.6 C426.53 122.94 428.42 124.19 430.36 125.42 C431.16 125.98 431.96 126.55 432.79 127.13 C432.79 127.79 432.79 128.45 432.79 129.13 C434.11 129.46 435.43 129.79 436.79 130.13 C436.79 130.79 436.79 131.45 436.79 132.13 C437.41 132.44 438.02 132.75 438.66 133.06 C440.04 133.75 441.41 134.44 442.79 135.13 C442.79 135.79 442.79 136.45 442.79 137.13 C443.5 137.37 444.22 137.62 444.96 137.88 C448.1 139.27 450.43 140.97 453.1 143.13 C454.42 144.18 454.42 144.18 455.78 145.25 C456.44 145.87 457.1 146.49 457.79 147.13 C457.79 147.79 457.79 148.45 457.79 149.13 C458.36 149.4 458.93 149.66 459.52 149.94 C461.87 151.17 463.91 152.55 466.04 154.13 C466.74 154.64 467.45 155.16 468.18 155.69 C468.71 156.16 469.24 156.64 469.79 157.13 C469.79 157.79 469.79 158.45 469.79 159.13 C470.78 159.46 471.77 159.79 472.79 160.13 C472.79 160.79 472.79 161.45 472.79 162.13 C473.67 162.53 473.67 162.53 474.57 162.93 C476.85 164.16 478.42 165.46 480.28 167.24 C481.25 168.15 481.25 168.15 482.23 169.08 C482.89 169.72 483.55 170.35 484.22 171 C488.3 174.89 492.33 178.68 496.79 182.13 C498.6 183.75 498.6 183.75 499.79 185.13 C499.79 185.79 499.79 186.45 499.79 187.13 C500.45 187.13 501.11 187.13 501.79 187.13 C503.2 188.56 503.2 188.56 504.85 190.56 C508.36 194.72 512.14 198.49 516.06 202.24 C517.79 204.13 517.79 204.13 517.79 206.13 C518.45 206.13 519.11 206.13 519.79 206.13 C524.79 211.6 524.79 211.6 524.79 214.13 C525.78 214.46 526.77 214.79 527.79 215.13 C527.79 215.79 527.79 216.45 527.79 217.13 C528.45 217.13 529.11 217.13 529.79 217.13 C531.73 219.24 531.73 219.24 533.91 222 C534.64 222.91 535.36 223.81 536.11 224.74 C537.79 227.13 537.79 227.13 537.79 229.13 C538.45 229.13 539.11 229.13 539.79 229.13 C541.58 231.22 543.26 233.31 544.91 235.5 C545.38 236.11 545.85 236.71 546.33 237.33 C549.79 241.87 549.79 241.87 549.79 244.13 C550.45 244.13 551.11 244.13 551.79 244.13 C553.29 245.81 553.29 245.81 554.91 248 C555.45 248.72 555.99 249.44 556.54 250.18 C557.79 252.13 557.79 252.13 557.79 254.13 C558.45 254.13 559.11 254.13 559.79 254.13 C561.02 255.54 561.02 255.54 562.4 257.53 C562.9 258.25 563.41 258.97 563.93 259.72 C564.46 260.49 564.99 261.27 565.54 262.06 C566.08 262.84 566.62 263.62 567.17 264.42 C568.72 266.65 570.25 268.89 571.79 271.13 C572.49 272.14 573.19 273.15 573.91 274.19 C577.79 279.85 577.79 279.85 577.79 282.13 C578.45 282.13 579.11 282.13 579.79 282.13 C580.31 283.06 580.83 284 581.37 284.97 C584.24 289.99 587.4 294.83 590.54 299.69 C595.24 307.04 599.8 314.42 604.06 322.03 C605.79 325.14 607.6 328.19 609.41 331.25 C612.82 337.08 615.83 343.06 618.79 349.13 C619.6 350.73 620.41 352.34 621.22 353.94 C623.67 358.82 625.97 363.77 628.26 368.73 C629.77 371.98 631.31 375.2 632.97 378.38 C634.92 382.19 636.29 386.17 637.66 390.22 C638.57 392.58 639.57 394.71 640.72 396.95 C642.8 401.02 644.33 405.17 645.79 409.5 C648.23 416.59 650.85 423.55 653.77 430.46 C654.98 433.63 655.87 436.85 656.79 440.13 C657.48 442.33 658.19 444.54 658.89 446.74 C661.81 455.81 664.4 464.9 666.79 474.13 C667.33 476.09 667.87 478.04 668.41 480 C669.48 483.9 670.41 487.8 671.25 491.75 C671.88 494.56 672.62 497.34 673.35 500.13 C674.45 504.48 675.15 508.66 675.54 513.12 C675.92 516.23 676.89 519.13 677.79 522.13 C680.66 534.28 681.82 546.82 683.09 559.22 C683.42 562.35 683.79 565.14 684.79 568.13 C684.92 569.58 685.01 571.04 685.07 572.51 C685.12 573.76 685.12 573.76 685.18 575.05 C685.25 576.81 685.32 578.58 685.39 580.34 C685.43 581.18 685.47 582.02 685.51 582.88 C685.54 583.65 685.57 584.41 685.6 585.2 C685.68 587.21 685.68 587.21 686.79 589.13 C686.88 590.49 686.91 591.86 686.91 593.23 C686.92 594.51 686.92 594.51 686.92 595.83 C686.92 596.77 686.92 597.71 686.92 598.69 C686.92 599.68 686.92 600.67 686.92 601.69 C686.93 604.98 686.92 608.27 686.92 611.56 C686.92 613.84 686.92 616.12 686.92 618.4 C686.92 623.18 686.92 627.97 686.92 632.75 C686.91 638.89 686.92 645.03 686.92 651.17 C686.92 655.88 686.92 660.58 686.92 665.29 C686.92 667.56 686.92 669.82 686.92 672.09 C686.93 675.25 686.92 678.41 686.92 681.57 C686.92 682.98 686.92 682.98 686.92 684.43 C686.92 685.29 686.92 686.14 686.91 687.03 C686.91 687.78 686.91 688.52 686.91 689.29 C686.79 691.13 686.79 691.13 685.79 693.13 C685.65 694.54 685.56 695.96 685.51 697.37 C685.47 698.21 685.43 699.05 685.39 699.91 C685.36 700.79 685.32 701.66 685.29 702.56 C685.22 704.29 685.15 706.02 685.07 707.75 C685.02 708.9 685.02 708.9 684.98 710.07 C684.79 712.13 684.79 712.13 683.79 715.13 C683.59 716.5 683.43 717.87 683.29 719.25 C683.16 720.44 683.16 720.44 683.04 721.64 C682.95 722.46 682.87 723.28 682.79 724.13 C682.62 725.75 682.46 727.38 682.29 729 C682.21 729.72 682.14 730.44 682.07 731.18 C681.79 733.13 681.79 733.13 680.79 736.13 C680.63 737.69 680.51 739.25 680.41 740.81 C679.99 745.84 679.22 750.74 678.29 755.69 C678.09 756.74 678.09 756.74 677.89 757.82 C676.92 762.86 676.92 762.86 675.79 765.13 C675.68 766.36 675.58 767.6 675.47 768.88 C674.93 774.25 673.38 779.19 671.83 784.35 C670.41 789.47 669.45 794.62 668.5 799.85 C667.85 802.83 666.93 805.31 665.79 808.13 C665.11 810.71 664.46 813.28 663.85 815.88 C662.07 823.19 659.9 830.21 657.22 837.25 C655.87 840.83 654.81 844.44 653.79 848.13 C651.82 854.92 649.78 861.49 646.78 867.9 C645.68 870.37 644.76 872.88 643.85 875.44 C640.54 884.69 636.65 893.52 632.18 902.27 C630.95 904.8 629.9 907.31 628.91 909.94 C627 914.9 624.53 919.51 621.99 924.17 C619.46 928.83 617.07 933.55 614.72 938.31 C611.91 944.01 608.91 949.54 605.62 954.99 C604.04 957.7 602.54 960.44 601.06 963.21 C597.66 969.47 593.91 975.48 590.1 981.5 C588.78 983.59 587.47 985.68 586.15 987.78 C585.58 988.68 585 989.59 584.41 990.53 C583.3 992.31 582.23 994.13 581.2 995.96 C580.74 996.68 580.27 997.39 579.79 998.13 C579.13 998.13 578.47 998.13 577.79 998.13 C577.58 998.78 577.37 999.43 577.15 1000.1 C575.25 1004.31 572.61 1007.84 569.91 1011.56 C568.85 1013.04 567.79 1014.52 566.73 1016 C566.23 1016.7 565.72 1017.4 565.2 1018.12 C563.92 1019.94 562.72 1021.78 561.53 1023.66 C560.95 1024.48 560.38 1025.29 559.79 1026.13 C559.13 1026.13 558.47 1026.13 557.79 1026.13 C557.54 1026.66 557.29 1027.2 557.04 1027.75 C555.48 1030.71 553.75 1033.42 551.79 1036.13 C551.13 1036.13 550.47 1036.13 549.79 1036.13 C549.54 1036.84 549.29 1037.56 549.04 1038.29 C547.65 1041.44 545.94 1043.77 543.79 1046.44 C543.09 1047.32 542.38 1048.21 541.66 1049.12 C541.04 1049.78 540.42 1050.44 539.79 1051.13 C539.13 1051.13 538.47 1051.13 537.79 1051.13 C537.55 1051.67 537.31 1052.21 537.07 1052.77 C535.44 1055.76 533.44 1058.24 531.29 1060.88 C530.49 1061.86 529.7 1062.85 528.88 1063.86 C528.19 1064.61 527.5 1065.36 526.79 1066.13 C526.13 1066.13 525.47 1066.13 524.79 1066.13 C524.52 1066.71 524.26 1067.3 523.98 1067.91 C522.76 1070.19 521.45 1071.76 519.67 1073.62 C518.76 1074.59 518.76 1074.59 517.83 1075.57 C517.2 1076.23 516.56 1076.89 515.91 1077.56 C512.03 1081.64 508.24 1085.67 504.79 1090.13 C503.16 1091.94 503.16 1091.94 501.79 1093.13 C501.13 1093.13 500.47 1093.13 499.79 1093.13 C499.79 1093.79 499.79 1094.45 499.79 1095.13 C498.35 1096.54 498.35 1096.54 496.35 1098.19 C493.18 1100.88 490.2 1103.66 487.29 1106.63 C479.06 1114.94 479.06 1114.94 474.79 1118.13 C474.13 1118.13 473.47 1118.13 472.79 1118.13 C472.46 1119.12 472.13 1120.11 471.79 1121.13 C471.13 1121.13 470.47 1121.13 469.79 1121.13 C469.79 1121.79 469.79 1122.45 469.79 1123.13 C467.67 1125.07 467.67 1125.07 464.91 1127.25 C464.01 1127.98 463.1 1128.7 462.17 1129.45 C459.79 1131.13 459.79 1131.13 457.79 1131.13 C457.79 1131.79 457.79 1132.45 457.79 1133.13 C455.7 1134.92 453.61 1136.6 451.41 1138.25 C450.81 1138.72 450.21 1139.19 449.58 1139.67 C445.05 1143.13 445.05 1143.13 442.79 1143.13 C442.79 1143.79 442.79 1144.45 442.79 1145.13 C441.11 1146.63 441.11 1146.63 438.91 1148.25 C437.83 1149.06 437.83 1149.06 436.73 1149.88 C434.79 1151.13 434.79 1151.13 432.79 1151.13 C432.79 1151.79 432.79 1152.45 432.79 1153.13 C431.14 1154.47 431.14 1154.47 428.84 1155.99 C428.01 1156.55 427.18 1157.11 426.33 1157.68 C425.45 1158.26 424.57 1158.84 423.66 1159.44 C416.79 1163.95 416.79 1163.95 410.36 1169.04 C407.79 1171.13 407.79 1171.13 404.79 1171.13 C404.79 1171.79 404.79 1172.45 404.79 1173.13 C403.85 1173.65 402.91 1174.17 401.95 1174.71 C396.92 1177.58 392.09 1180.74 387.22 1183.88 C379.88 1188.58 372.5 1193.14 364.89 1197.39 C361.74 1199.15 358.64 1200.98 355.54 1202.81 C341.3 1211.13 341.3 1211.13 336.79 1211.13 C336.79 1211.79 336.79 1212.45 336.79 1213.13 C330.16 1216.13 330.16 1216.13 326.79 1216.13 C326.79 1216.79 326.79 1217.45 326.79 1218.13 C326.2 1218.35 325.62 1218.57 325.02 1218.79 C320.14 1220.68 315.45 1222.75 310.79 1225.13 C305.55 1227.79 300.28 1230.05 294.79 1232.13 C285.86 1235.48 285.86 1235.48 277.1 1239.25 C273.24 1241.01 269.34 1242.19 265.27 1243.34 C262.07 1244.35 259.1 1245.7 256.09 1247.16 C253.06 1248.43 249.95 1249.24 246.79 1250.13 C244.58 1250.82 242.38 1251.53 240.18 1252.23 C229.36 1255.71 218.52 1258.92 207.41 1261.31 C203.99 1261.74 203.99 1261.74 202.79 1263.13 C201.36 1263.46 199.92 1263.74 198.47 1264 C194.51 1264.76 190.63 1265.66 186.72 1266.69 C182.37 1267.81 178.19 1268.49 173.72 1268.88 C170.94 1269.23 168.44 1270.23 165.79 1271.13 C153.28 1273.89 140.42 1275.13 127.69 1276.43 C124.57 1276.76 121.77 1277.13 118.79 1278.13 C117.33 1278.26 115.87 1278.35 114.41 1278.41 C113.15 1278.46 113.15 1278.46 111.87 1278.52 C110.1 1278.59 108.34 1278.66 106.57 1278.73 C105.73 1278.77 104.9 1278.81 104.03 1278.85 C103.27 1278.88 102.5 1278.91 101.71 1278.94 C99.7 1279.02 99.7 1279.02 97.79 1280.13 C96.42 1280.22 95.05 1280.25 93.69 1280.25 C92.4 1280.26 92.4 1280.26 91.09 1280.26 C90.14 1280.26 89.2 1280.26 88.23 1280.26 C87.24 1280.26 86.24 1280.26 85.22 1280.26 C81.93 1280.27 78.64 1280.26 75.35 1280.26 C73.07 1280.26 70.79 1280.26 68.51 1280.26 C63.73 1280.26 58.95 1280.26 54.17 1280.26 C48.03 1280.25 41.89 1280.25 35.75 1280.26 C31.04 1280.26 26.33 1280.26 21.62 1280.26 C19.36 1280.26 17.09 1280.26 14.83 1280.26 C11.67 1280.27 8.51 1280.26 5.35 1280.26 C3.93 1280.26 3.93 1280.26 2.49 1280.26 C1.63 1280.26 0.77 1280.26 -0.11 1280.25 C-0.86 1280.25 -1.61 1280.25 -2.38 1280.25 C-4.21 1280.13 -4.21 1280.13 -6.21 1279.13 C-7.62 1278.99 -9.04 1278.9 -10.46 1278.85 C-11.3 1278.81 -12.13 1278.77 -13 1278.73 C-13.87 1278.7 -14.75 1278.66 -15.65 1278.63 C-17.38 1278.56 -19.11 1278.49 -20.83 1278.41 C-21.99 1278.36 -21.99 1278.36 -23.16 1278.32 C-25.21 1278.13 -25.21 1278.13 -28.21 1277.13 C-30.75 1276.83 -33.29 1276.56 -35.84 1276.31 C-43.73 1275.49 -51.56 1274.37 -59.4 1273.13 C-60.46 1272.96 -61.53 1272.79 -62.62 1272.62 C-67.96 1271.76 -73.03 1270.67 -78.21 1269.13 C-80.33 1268.83 -80.33 1268.83 -82.28 1268.75 C-87.54 1268.25 -92.39 1266.69 -97.44 1265.17 C-102.56 1263.75 -107.71 1262.79 -112.94 1261.84 C-115.92 1261.19 -118.4 1260.27 -121.21 1259.13 C-123.79 1258.45 -126.37 1257.8 -128.96 1257.19 C-136.28 1255.41 -143.3 1253.24 -150.34 1250.56 C-153.92 1249.21 -157.52 1248.15 -161.21 1247.13 C-167.87 1245.22 -174.23 1243.33 -180.35 1240.05 C-182.3 1239.09 -184.2 1238.41 -186.28 1237.75 C-196.38 1234.53 -206.02 1230.35 -215.44 1225.5 C-218.04 1224.21 -220.64 1223.11 -223.34 1222.06 C-231.84 1218.76 -239.79 1214.31 -247.81 1210 C-251.03 1208.28 -254.25 1206.59 -257.53 1205 C-261.36 1203.12 -264.97 1200.9 -268.61 1198.67 C-271.09 1197.2 -273.6 1195.84 -276.15 1194.5 C-281.57 1191.58 -286.76 1188.35 -291.96 1185.06 C-292.77 1184.56 -293.57 1184.05 -294.4 1183.53 C-298.04 1181.21 -301.62 1178.86 -305.1 1176.32 C-308.04 1174.02 -308.04 1174.02 -311.21 1173.13 C-311.21 1172.47 -311.21 1171.81 -311.21 1171.13 C-311.9 1170.89 -312.58 1170.65 -313.29 1170.41 C-316.82 1168.86 -319.88 1166.82 -323.03 1164.63 C-323.62 1164.22 -324.22 1163.82 -324.84 1163.4 C-326.33 1162.37 -327.78 1161.25 -329.21 1160.13 C-329.21 1159.47 -329.21 1158.81 -329.21 1158.13 C-329.75 1158.04 -330.29 1157.96 -330.84 1157.88 C-334.09 1156.85 -336.5 1155.16 -339.21 1153.13 C-339.21 1152.47 -339.21 1151.81 -339.21 1151.13 C-339.75 1150.88 -340.29 1150.63 -340.84 1150.38 C-343.8 1148.82 -346.51 1147.09 -349.21 1145.13 C-349.21 1144.47 -349.21 1143.81 -349.21 1143.13 C-349.93 1142.88 -350.64 1142.63 -351.38 1142.38 C-354.53 1140.99 -356.85 1139.28 -359.53 1137.13 C-360.41 1136.43 -361.29 1135.72 -362.2 1135 C-362.87 1134.38 -363.53 1133.76 -364.21 1133.13 C-364.21 1132.47 -364.21 1131.81 -364.21 1131.13 C-364.75 1130.89 -365.3 1130.65 -365.85 1130.41 C-368.85 1128.78 -371.32 1126.78 -373.96 1124.63 C-374.95 1123.83 -375.93 1123.04 -376.95 1122.22 C-378.07 1121.18 -378.07 1121.18 -379.21 1120.13 C-379.21 1119.47 -379.21 1118.81 -379.21 1118.13 C-379.75 1117.9 -380.29 1117.67 -380.84 1117.44 C-384.04 1115.67 -386.5 1113.59 -389.21 1111.13 C-389.21 1110.47 -389.21 1109.81 -389.21 1109.13 C-389.76 1108.91 -390.3 1108.7 -390.86 1108.47 C-394.02 1106.66 -396.34 1104.17 -398.84 1101.56 C-402.18 1097.9 -402.18 1097.9 -406.21 1095.13 C-406.21 1094.47 -406.21 1093.81 -406.21 1093.13 C-406.87 1093.13 -407.53 1093.13 -408.21 1093.13 C-409.62 1091.69 -409.62 1091.69 -411.28 1089.69 C-413.96 1086.52 -416.75 1083.54 -419.71 1080.63 C-428.03 1072.4 -428.03 1072.4 -431.21 1068.13 C-431.21 1067.47 -431.21 1066.81 -431.21 1066.13 C-432.2 1065.8 -433.19 1065.47 -434.21 1065.13 C-435.82 1063.39 -437.35 1061.59 -438.84 1059.75 C-440.03 1058.29 -440.03 1058.29 -441.25 1056.79 C-443.21 1054.13 -443.21 1054.13 -444.21 1051.13 C-444.87 1051.13 -445.53 1051.13 -446.21 1051.13 C-448.01 1049.04 -449.68 1046.95 -451.34 1044.75 C-452.04 1043.85 -452.04 1043.85 -452.76 1042.92 C-456.21 1038.39 -456.21 1038.39 -456.21 1036.13 C-456.87 1036.13 -457.53 1036.13 -458.21 1036.13 C-459.72 1034.45 -459.72 1034.45 -461.34 1032.25 C-462.15 1031.17 -462.15 1031.17 -462.97 1030.07 C-464.21 1028.13 -464.21 1028.13 -464.21 1026.13 C-464.87 1026.13 -465.53 1026.13 -466.21 1026.13 C-467.55 1024.49 -467.55 1024.49 -469.08 1022.22 C-469.63 1021.39 -470.19 1020.57 -470.77 1019.71 C-471.35 1018.84 -471.93 1017.97 -472.53 1017.06 C-473.67 1015.36 -474.81 1013.67 -475.95 1011.97 C-476.77 1010.73 -476.77 1010.73 -477.61 1009.48 C-479.08 1007.33 -480.59 1005.23 -482.13 1003.13 C-484.21 1000.13 -484.21 1000.13 -484.21 998.13 C-484.87 998.13 -485.53 998.13 -486.21 998.13 C-486.73 997.2 -487.25 996.27 -487.78 995.31 C-490.72 990.16 -493.95 985.19 -497.15 980.19 C-498.95 977.37 -500.76 974.55 -502.55 971.73 C-503.61 970.06 -504.69 968.41 -505.77 966.76 C-506.45 965.7 -506.45 965.7 -507.15 964.62 C-507.75 963.71 -507.75 963.71 -508.37 962.78 C-509.21 961.13 -509.21 961.13 -509.21 958.13 C-509.87 958.13 -510.53 958.13 -511.21 958.13 C-511.55 957.43 -511.89 956.74 -512.24 956.03 C-515.16 950.13 -518.16 944.3 -521.28 938.5 C-526.03 929.63 -530.46 920.66 -534.69 911.52 C-536.21 908.26 -537.75 905.02 -539.4 901.81 C-542.16 896.36 -544.26 890.63 -546.44 884.92 C-549.22 877.61 -549.22 877.61 -552.34 870.44 C-554.1 866.58 -555.27 862.68 -556.43 858.61 C-557.44 855.41 -558.79 852.44 -560.25 849.43 C-561.52 846.39 -562.33 843.3 -563.21 840.13 C-564.19 836.93 -565.2 833.75 -566.21 830.56 C-566.6 829.33 -566.6 829.33 -567 828.07 C-568.09 824.64 -569.18 821.21 -570.34 817.81 C-571.1 815.48 -571.71 813.21 -572.21 810.81 C-572.38 810.06 -572.54 809.3 -572.71 808.51 C-573.06 806.87 -573.4 805.23 -573.75 803.58 C-574.01 802.37 -574.01 802.37 -574.28 801.13 C-574.43 800.38 -574.59 799.64 -574.75 798.88 C-575.06 797.11 -575.06 797.11 -576.21 796.13 C-576.45 794.17 -576.68 792.2 -576.9 790.24 C-577.32 787.4 -578.25 784.83 -579.21 782.13 C-580.39 777.9 -581.29 773.93 -581.71 769.56 C-582.1 765.57 -583.06 761.98 -584.21 758.13 C-585.66 752.04 -586.44 746.06 -586.94 739.83 C-587.2 737.29 -587.62 734.87 -588.15 732.38 C-590.41 721.67 -591.43 710.94 -591.87 700.03 C-592.01 696.84 -592.2 694.17 -593.21 691.13 C-593.3 689.72 -593.34 688.32 -593.34 686.91 C-593.34 686.06 -593.35 685.2 -593.35 684.31 C-593.35 683.38 -593.34 682.44 -593.34 681.47 C-593.34 680.48 -593.35 679.49 -593.35 678.47 C-593.35 675.19 -593.35 671.91 -593.35 668.63 C-593.35 666.35 -593.35 664.08 -593.35 661.8 C-593.35 657.03 -593.35 652.26 -593.34 647.49 C-593.34 641.36 -593.34 635.24 -593.35 629.12 C-593.35 624.42 -593.35 619.72 -593.35 615.02 C-593.35 612.76 -593.35 610.5 -593.35 608.24 C-593.35 605.09 -593.35 601.94 -593.34 598.78 C-593.34 597.84 -593.35 596.91 -593.35 595.94 C-593.35 595.08 -593.34 594.22 -593.34 593.34 C-593.34 592.59 -593.34 591.85 -593.34 591.08 C-593.21 589.13 -593.21 589.13 -592.21 586.13 C-592.03 583.37 -591.89 580.63 -591.78 577.88 C-591.25 566.93 -589.94 556.24 -587.65 545.52 C-587.17 542.89 -586.93 540.29 -586.71 537.63 C-586.19 531.1 -585.02 524.84 -583.15 518.56 C-582.42 515.89 -582.02 513.72 -581.78 511 C-580.27 495.18 -580.27 495.18 -577.21 492.13 C-576.98 490.19 -576.75 488.26 -576.53 486.32 C-575.94 482.24 -574.76 478.41 -573.15 474.63 C-572.08 472.06 -572.08 472.06 -571.78 468.88 C-571.24 465.3 -570.35 462.3 -569.17 458.92 C-567.94 455.32 -566.83 451.69 -565.71 448.06 C-564.26 443.38 -562.75 438.74 -560.96 434.17 C-559.94 431.38 -559.12 428.54 -558.28 425.69 C-556.87 421.06 -555.26 416.73 -553.21 412.36 C-552.1 409.88 -551.18 407.37 -550.28 404.81 C-545.55 391.58 -539.64 378.84 -533.29 366.31 C-532.39 364.49 -531.57 362.62 -530.78 360.75 C-526.84 351.62 -522.05 342.86 -517.37 334.09 C-515.26 330.13 -513.2 326.15 -511.21 322.13 C-510.55 322.13 -509.89 322.13 -509.21 322.13 C-509.1 321.55 -508.98 320.98 -508.86 320.39 C-508.16 317.93 -507.17 316.11 -505.84 313.92 C-505.35 313.12 -504.87 312.31 -504.36 311.47 C-503.84 310.62 -503.32 309.76 -502.78 308.88 C-502.24 308 -501.71 307.12 -501.15 306.21 C-500.05 304.4 -498.95 302.59 -497.84 300.78 C-496.31 298.28 -494.78 295.77 -493.26 293.25 C-492.37 291.79 -491.48 290.33 -490.59 288.88 C-490.17 288.19 -489.76 287.51 -489.34 286.8 C-488.35 285.21 -487.29 283.66 -486.21 282.13 C-485.55 282.13 -484.89 282.13 -484.21 282.13 C-484.11 281.55 -484 280.98 -483.89 280.38 C-483.12 277.8 -482.01 276.17 -480.41 274.01 C-479.85 273.24 -479.28 272.47 -478.7 271.67 C-478.11 270.87 -477.51 270.07 -476.9 269.25 C-475.74 267.67 -474.57 266.09 -473.41 264.51 C-472.86 263.76 -472.31 263.02 -471.74 262.25 C-470.4 260.38 -469.15 258.49 -467.92 256.56 C-467.36 255.75 -466.79 254.95 -466.21 254.13 C-465.55 254.13 -464.89 254.13 -464.21 254.13 C-463.88 252.81 -463.55 251.49 -463.21 250.13 C-462.55 250.13 -461.89 250.13 -461.21 250.13 C-460.9 249.51 -460.59 248.89 -460.28 248.25 C-459.59 246.88 -458.9 245.5 -458.21 244.13 C-457.55 244.13 -456.89 244.13 -456.21 244.13 C-455.84 243.05 -455.84 243.05 -455.46 241.96 C-454.07 238.81 -452.37 236.49 -450.21 233.81 C-449.51 232.93 -448.81 232.05 -448.09 231.14 C-447.47 230.47 -446.85 229.81 -446.21 229.13 C-445.55 229.13 -444.89 229.13 -444.21 229.13 C-443.86 228.31 -443.86 228.31 -443.49 227.49 C-441.87 224.49 -439.86 222.02 -437.71 219.38 C-436.92 218.39 -436.12 217.41 -435.31 216.39 C-434.62 215.64 -433.92 214.9 -433.21 214.13 C-432.55 214.13 -431.89 214.13 -431.21 214.13 C-430.95 213.54 -430.68 212.95 -430.4 212.34 C-429.2 210.11 -427.95 208.56 -426.2 206.74 C-425.61 206.11 -425.02 205.49 -424.41 204.85 C-423.79 204.2 -423.17 203.55 -422.53 202.88 C-421.25 201.54 -419.99 200.2 -418.72 198.86 C-418.11 198.22 -417.5 197.57 -416.88 196.91 C-414.3 194.14 -411.85 191.27 -409.45 188.35 C-408.21 187.13 -408.21 187.13 -406.21 187.13 C-406.21 186.47 -406.21 185.81 -406.21 185.13 C-404.78 183.72 -404.78 183.72 -402.78 182.06 C-398.62 178.56 -394.85 174.77 -391.1 170.85 C-389.21 169.13 -389.21 169.13 -387.21 169.13 C-387.21 168.47 -387.21 167.81 -387.21 167.13 C-381.74 162.13 -381.74 162.13 -379.21 162.13 C-378.88 161.14 -378.55 160.15 -378.21 159.13 C-376.48 157.52 -374.68 155.99 -372.84 154.5 C-371.86 153.71 -370.88 152.91 -369.88 152.09 C-367.21 150.13 -367.21 150.13 -364.21 149.13 C-364.21 148.47 -364.21 147.81 -364.21 147.13 C-362.12 145.33 -360.03 143.66 -357.84 142 C-357.23 141.53 -356.63 141.07 -356.01 140.58 C-351.47 137.13 -351.47 137.13 -349.21 137.13 C-349.21 136.47 -349.21 135.81 -349.21 135.13 C-347.53 133.62 -347.53 133.62 -345.34 132 C-344.62 131.46 -343.9 130.92 -343.16 130.37 C-341.21 129.13 -341.21 129.13 -339.21 129.13 C-339.21 128.47 -339.21 127.81 -339.21 127.13 C-337.8 125.89 -337.8 125.89 -335.81 124.52 C-335.09 124.01 -334.37 123.51 -333.62 122.99 C-332.85 122.46 -332.07 121.92 -331.28 121.38 C-330.11 120.57 -330.11 120.57 -328.92 119.74 C-326.69 118.2 -324.45 116.66 -322.21 115.13 C-320.7 114.08 -320.7 114.08 -319.15 113 C-313.49 109.13 -313.49 109.13 -311.21 109.13 C-311.21 108.47 -311.21 107.81 -311.21 107.13 C-308.98 105.53 -308.98 105.53 -305.88 103.64 C-305.32 103.3 -304.77 102.97 -304.2 102.62 C-302.42 101.53 -300.63 100.45 -298.84 99.38 C-297.67 98.67 -296.5 97.96 -295.33 97.24 C-293.05 95.85 -290.75 94.47 -288.46 93.09 C-286.39 91.84 -284.33 90.58 -282.27 89.31 C-281.39 88.77 -280.52 88.23 -279.61 87.67 C-278.85 87.2 -278.09 86.73 -277.31 86.25 C-275.27 85.16 -273.48 84.57 -271.21 84.13 C-271.21 83.47 -271.21 82.81 -271.21 82.13 C-270.52 81.79 -269.83 81.45 -269.12 81.1 C-263.22 78.18 -257.38 75.18 -251.59 72.06 C-242.72 67.31 -233.74 62.87 -224.61 58.65 C-221.36 57.14 -218.14 55.6 -214.96 53.94 C-211.15 51.99 -207.17 50.62 -203.12 49.25 C-200.76 48.34 -198.63 47.35 -196.39 46.19 C-192.32 44.11 -188.17 42.58 -183.84 41.13 C-177.55 38.96 -171.36 36.67 -165.21 34.13 C-161.26 32.51 -157.33 31.29 -153.21 30.13 C-151.71 29.63 -150.21 29.13 -148.71 28.63 C-144.91 27.34 -141.07 26.23 -137.21 25.13 C-135.75 24.63 -134.29 24.13 -132.84 23.63 C-129.13 22.37 -125.44 21.46 -121.6 20.66 C-118.9 20.06 -116.25 19.32 -113.59 18.56 C-109.47 17.42 -105.45 16.71 -101.21 16.13 C-99.2 15.49 -97.2 14.82 -95.21 14.13 C-89.69 12.6 -84.2 11.6 -78.55 10.69 C-74.94 10.08 -71.36 9.36 -67.78 8.63 C-57 6.45 -46.23 4.94 -35.3 3.82 C-31.24 3.42 -31.24 3.42 -27.23 2.62 C-25.11 2.1 -23.17 1.94 -20.99 1.85 C-19.81 1.79 -19.81 1.79 -18.61 1.73 C-16.97 1.66 -15.32 1.59 -13.68 1.52 C-12.9 1.48 -12.11 1.45 -11.3 1.41 C-10.23 1.36 -10.23 1.36 -9.14 1.32 C-5.94 1 -3.28 0 0 0 Z M5.79 92.13 C4.25 92.24 2.72 92.32 1.18 92.37 C0.35 92.4 -0.49 92.44 -1.34 92.47 C-2.64 92.52 -2.64 92.52 -3.96 92.56 C-10.11 92.83 -15.95 93.23 -21.95 94.66 C-24.61 95.21 -27.2 95.39 -29.9 95.56 C-35.89 95.99 -41.62 97.14 -47.49 98.38 C-50.89 99.06 -54.27 99.59 -57.71 100.06 C-63.75 100.95 -69.5 102.48 -75.37 104.12 C-79.25 105.14 -83.09 105.94 -87.03 106.69 C-96.74 107.95 -96.74 107.95 -105.21 112.13 C-106.18 112.23 -107.15 112.33 -108.15 112.44 C-112.22 112.97 -115.66 114.44 -119.42 116.03 C-122.4 117.2 -125.4 118.15 -128.46 119.06 C-137.87 121.89 -147.15 125.05 -156.08 129.17 C-158.39 130.21 -160.73 131.14 -163.09 132.06 C-166.77 133.52 -170.37 135.09 -173.96 136.75 C-177.66 138.46 -181.3 139.96 -185.21 141.13 C-185.21 141.79 -185.21 142.45 -185.21 143.13 C-185.95 143.25 -186.68 143.38 -187.44 143.5 C-190.1 144.1 -192.2 144.91 -194.65 146.09 C-195.46 146.48 -196.27 146.87 -197.11 147.27 C-197.95 147.67 -198.79 148.08 -199.65 148.5 C-200.48 148.9 -201.32 149.3 -202.18 149.71 C-206.54 151.81 -210.89 153.95 -215.21 156.13 C-215.21 156.79 -215.21 157.45 -215.21 158.13 C-215.8 158.25 -216.38 158.38 -216.98 158.51 C-219.2 159.12 -220.93 159.92 -222.94 161.03 C-223.66 161.42 -224.37 161.81 -225.1 162.21 C-226.24 162.85 -226.24 162.85 -227.4 163.5 C-228.2 163.95 -228.99 164.39 -229.81 164.85 C-238.18 169.59 -246.23 174.76 -254.21 180.13 C-254.87 180.57 -255.54 181.02 -256.22 181.47 C-269.95 190.73 -283.69 200.18 -296.46 210.74 C-298.21 212.13 -298.21 212.13 -300.21 213.13 C-300.21 213.79 -300.21 214.45 -300.21 215.13 C-300.75 215.36 -301.3 215.6 -301.85 215.85 C-304.85 217.47 -307.32 219.48 -309.96 221.63 C-310.95 222.42 -311.93 223.22 -312.95 224.03 C-313.69 224.72 -314.44 225.42 -315.21 226.13 C-315.21 226.79 -315.21 227.45 -315.21 228.13 C-315.79 228.4 -316.37 228.66 -316.96 228.94 C-319.27 230.16 -321.23 231.43 -323.21 233.13 C-323.21 233.79 -323.21 234.45 -323.21 235.13 C-323.81 235.4 -324.41 235.67 -325.02 235.95 C-327.18 237.11 -328.56 238.25 -330.27 239.99 C-330.82 240.55 -331.37 241.11 -331.94 241.68 C-332.51 242.26 -333.07 242.84 -333.65 243.44 C-334.21 244.01 -334.77 244.58 -335.35 245.16 C-336.46 246.29 -337.57 247.42 -338.67 248.55 C-341.92 251.87 -345.22 255.14 -348.54 258.39 C-349.71 259.53 -350.87 260.67 -352.03 261.81 C-352.92 262.69 -352.92 262.69 -353.84 263.57 C-355.33 265.05 -356.78 266.59 -358.21 268.13 C-358.21 268.79 -358.21 269.45 -358.21 270.13 C-358.87 270.13 -359.53 270.13 -360.21 270.13 C-363.85 273.61 -363.85 273.61 -365.21 278.13 C-365.87 278.13 -366.53 278.13 -367.21 278.13 C-368.78 279.82 -370.27 281.58 -371.71 283.38 C-372.51 284.35 -373.3 285.33 -374.12 286.33 C-375.8 288.58 -377.09 290.57 -378.21 293.13 C-378.87 293.13 -379.53 293.13 -380.21 293.13 C-381.85 295.06 -381.85 295.06 -383.59 297.63 C-386.46 301.69 -389.39 305.7 -392.4 309.66 C-406.47 328.16 -419.04 347.68 -430.96 367.63 C-431.39 368.34 -431.82 369.05 -432.27 369.79 C-434.62 373.69 -434.62 373.69 -435.21 378.13 C-435.87 378.13 -436.53 378.13 -437.21 378.13 C-437.57 378.88 -437.57 378.88 -437.93 379.65 C-445.75 396.27 -445.75 396.27 -449.9 404.44 C-453.31 411.21 -456.3 418.13 -459.21 425.13 C-459.66 426.18 -460.1 427.24 -460.56 428.32 C-462.84 433.77 -465.08 439.22 -467.25 444.71 C-467.89 446.31 -468.54 447.9 -469.21 449.48 C-471.71 455.46 -473.49 461.51 -475.21 467.76 C-476.06 470.62 -477.03 473.27 -478.21 476 C-480.78 482.14 -482.19 488.58 -483.71 495.03 C-484.52 498.4 -485.37 501.76 -486.21 505.13 C-486.54 506.46 -486.88 507.79 -487.21 509.13 C-487.88 511.8 -488.56 514.46 -489.25 517.13 C-491.64 526.4 -493.56 535.69 -495.21 545.13 C-495.4 546.13 -495.58 547.13 -495.77 548.17 C-497 555.08 -497.8 562.01 -498.52 568.99 C-499.11 574.75 -499.11 574.75 -499.72 577.09 C-500.26 579.32 -500.4 581.39 -500.49 583.68 C-500.53 584.54 -500.57 585.41 -500.61 586.29 C-500.66 587.63 -500.66 587.63 -500.71 589 C-500.78 590.77 -500.86 592.54 -500.93 594.31 C-500.96 595.09 -500.99 595.87 -501.02 596.67 C-501.21 599.13 -501.21 599.13 -501.72 601.84 C-502.24 605.33 -502.34 608.62 -502.34 612.14 C-502.34 612.81 -502.35 613.49 -502.35 614.18 C-502.35 616.39 -502.35 618.6 -502.35 620.81 C-502.35 622.36 -502.35 623.91 -502.35 625.45 C-502.35 628.69 -502.35 631.92 -502.34 635.16 C-502.34 639.29 -502.34 643.43 -502.35 647.56 C-502.35 650.76 -502.35 653.95 -502.35 657.14 C-502.35 658.66 -502.35 660.19 -502.35 661.71 C-502.35 663.85 -502.35 665.98 -502.34 668.12 C-502.34 669.33 -502.34 670.54 -502.34 671.79 C-502.22 674.99 -501.8 677.98 -501.21 681.13 C-501.1 682.65 -501.02 684.18 -500.97 685.7 C-500.94 686.53 -500.9 687.36 -500.87 688.21 C-500.84 689.07 -500.81 689.93 -500.78 690.81 C-500.5 697.22 -500.03 703.37 -498.69 709.66 C-497.97 713.38 -497.72 717.13 -497.46 720.91 C-497.34 723.17 -497.34 723.17 -496.21 725.13 C-495.87 727.06 -495.56 729 -495.28 730.94 C-495.01 732.7 -495.01 732.7 -494.74 734.5 C-494.41 736.78 -494.09 739.06 -493.78 741.35 C-492.76 748.64 -491.14 755.55 -489.12 762.62 C-488.22 766.11 -487.72 769.56 -487.21 773.13 C-486.88 773.46 -486.55 773.79 -486.21 774.13 C-485.76 776.13 -485.31 778.13 -484.87 780.13 C-482.87 789.2 -480.88 798.1 -477.21 806.65 C-476.05 809.52 -475.16 812.42 -474.28 815.38 C-471.45 824.79 -468.29 834.06 -464.17 842.99 C-463.13 845.3 -462.2 847.64 -461.28 850 C-459.48 854.56 -457.47 858.99 -455.42 863.43 C-454.34 865.85 -453.39 868.27 -452.46 870.75 C-450.27 876.38 -447.37 881.61 -444.51 886.92 C-441.83 891.9 -439.4 896.91 -437.21 902.13 C-436.55 902.13 -435.89 902.13 -435.21 902.13 C-435.09 902.71 -434.96 903.29 -434.83 903.89 C-434.22 906.11 -433.42 907.85 -432.31 909.86 C-431.92 910.57 -431.53 911.28 -431.13 912.01 C-430.7 912.77 -430.28 913.53 -429.84 914.31 C-429.39 915.11 -428.95 915.9 -428.49 916.72 C-423.76 925.09 -418.58 933.15 -413.21 941.13 C-412.83 941.69 -412.45 942.26 -412.06 942.84 C-402.86 956.46 -393.17 969.78 -383.04 982.72 C-381.21 985.13 -381.21 985.13 -380.21 987.13 C-379.55 987.13 -378.89 987.13 -378.21 987.13 C-377.86 987.94 -377.86 987.94 -377.49 988.77 C-375.87 991.76 -373.86 994.24 -371.71 996.88 C-370.92 997.86 -370.12 998.85 -369.31 999.86 C-368.27 1000.98 -368.27 1000.98 -367.21 1002.13 C-366.55 1002.13 -365.89 1002.13 -365.21 1002.13 C-364.95 1002.72 -364.68 1003.31 -364.4 1003.92 C-363.2 1006.15 -361.95 1007.69 -360.2 1009.52 C-359.32 1010.45 -359.32 1010.45 -358.41 1011.41 C-357.79 1012.06 -357.17 1012.71 -356.53 1013.38 C-355.25 1014.72 -353.97 1016.07 -352.69 1017.42 C-351.78 1018.39 -351.78 1018.39 -350.85 1019.37 C-348.95 1021.41 -347.13 1023.5 -345.34 1025.63 C-341.97 1029.54 -338.16 1032.81 -334.21 1036.13 C-332.73 1037.39 -331.25 1038.66 -329.78 1039.94 C-329.12 1040.5 -328.46 1041.07 -327.78 1041.65 C-326.21 1043.13 -326.21 1043.13 -325.21 1045.13 C-324.55 1045.13 -323.89 1045.13 -323.21 1045.13 C-323.21 1045.79 -323.21 1046.45 -323.21 1047.13 C-319.73 1050.76 -319.73 1050.76 -315.21 1052.13 C-315.21 1052.79 -315.21 1053.45 -315.21 1054.13 C-313.25 1055.99 -313.25 1055.99 -310.65 1058 C-309.66 1058.79 -308.67 1059.58 -307.65 1060.4 C-306.83 1061.05 -306.83 1061.05 -305.99 1061.71 C-304.05 1063.25 -302.13 1064.82 -300.21 1066.39 C-298.86 1067.49 -297.5 1068.59 -296.15 1069.69 C-295.5 1070.23 -294.84 1070.76 -294.17 1071.32 C-291.08 1074.15 -291.08 1074.15 -287.21 1075.13 C-287.21 1075.79 -287.21 1076.45 -287.21 1077.13 C-285.6 1078.5 -285.6 1078.5 -283.48 1079.85 C-282.68 1080.38 -281.89 1080.92 -281.07 1081.47 C-280.21 1082.04 -279.35 1082.6 -278.46 1083.19 C-272.91 1086.91 -267.42 1090.64 -262.15 1094.75 C-254.59 1100.53 -246.38 1105.27 -238.21 1110.13 C-236.38 1111.23 -234.55 1112.33 -232.71 1113.44 C-231.6 1114.1 -231.6 1114.1 -230.46 1114.78 C-228.8 1115.78 -227.14 1116.79 -225.5 1117.82 C-224.6 1118.37 -223.7 1118.93 -222.78 1119.5 C-221.57 1120.26 -221.57 1120.26 -220.34 1121.03 C-218.17 1122.36 -218.17 1122.36 -215.21 1122.13 C-215.21 1122.79 -215.21 1123.45 -215.21 1124.13 C-214.67 1124.38 -214.14 1124.63 -213.58 1124.89 C-211.1 1126.05 -208.63 1127.21 -206.15 1128.38 C-205.3 1128.77 -204.46 1129.17 -203.58 1129.58 C-199.77 1131.37 -196.02 1133.18 -192.38 1135.31 C-189.76 1136.81 -187.35 1137.97 -184.53 1139 C-180.75 1140.45 -177.23 1142.12 -173.65 1144 C-168.04 1146.87 -162.32 1148.98 -156.35 1150.95 C-152.02 1152.39 -148.02 1154.12 -143.98 1156.26 C-141.17 1157.64 -138.24 1158.33 -135.21 1159.13 C-128.98 1160.94 -122.83 1162.8 -116.84 1165.31 C-112.94 1166.93 -109.41 1167.59 -105.21 1168.13 C-102.97 1168.81 -100.77 1169.59 -98.56 1170.37 C-95.41 1171.39 -92.21 1172.05 -88.96 1172.7 C-87.21 1173.13 -87.21 1173.13 -86.21 1174.13 C-84.59 1174.46 -82.97 1174.74 -81.34 1175 C-77.44 1175.67 -73.7 1176.51 -69.9 1177.63 C-64.36 1179.21 -58.8 1179.98 -53.08 1180.7 C-50.21 1181.13 -50.21 1181.13 -48.21 1182.13 C-46.55 1182.33 -44.88 1182.49 -43.21 1182.63 C-38.44 1183.02 -38.44 1183.02 -36.21 1184.13 C-34.8 1184.33 -33.39 1184.49 -31.97 1184.63 C-31.13 1184.71 -30.29 1184.79 -29.43 1184.88 C-28.55 1184.96 -27.68 1185.04 -26.78 1185.13 C-25.05 1185.29 -23.32 1185.46 -21.59 1185.63 C-20.82 1185.7 -20.06 1185.77 -19.27 1185.85 C-17.21 1186.13 -17.21 1186.13 -14.21 1187.13 C-12.73 1187.26 -11.24 1187.35 -9.76 1187.41 C-8.46 1187.46 -8.46 1187.46 -7.13 1187.52 C-6.23 1187.56 -5.33 1187.59 -4.4 1187.63 C-2.62 1187.7 -0.85 1187.77 0.93 1187.85 C2.11 1187.89 2.11 1187.89 3.32 1187.94 C5.79 1188.13 5.79 1188.13 8.5 1188.63 C11.99 1189.16 15.29 1189.25 18.81 1189.26 C19.83 1189.26 19.83 1189.26 20.86 1189.26 C23.08 1189.27 25.29 1189.26 27.51 1189.26 C29.06 1189.26 30.61 1189.26 32.16 1189.26 C35.4 1189.26 38.63 1189.26 41.87 1189.26 C46.02 1189.25 50.16 1189.25 54.31 1189.26 C57.5 1189.26 60.7 1189.26 63.89 1189.26 C65.42 1189.26 66.95 1189.26 68.48 1189.26 C70.62 1189.27 72.75 1189.26 74.89 1189.26 C76.1 1189.26 77.32 1189.25 78.57 1189.25 C81.44 1189.14 83.99 1188.76 86.79 1188.13 C88.36 1188.01 89.94 1187.93 91.52 1187.88 C92.4 1187.85 93.29 1187.82 94.2 1187.78 C96.03 1187.72 97.86 1187.66 99.69 1187.61 C105.13 1187.4 110.21 1186.75 115.53 1185.59 C118.44 1184.99 121.32 1184.75 124.29 1184.56 C128.19 1184.4 128.19 1184.4 131.79 1183.13 C134.44 1182.85 137.1 1182.68 139.77 1182.51 C143.25 1182.07 146.41 1181.09 149.79 1180.13 C152.65 1179.59 155.53 1179.18 158.41 1178.75 C165.15 1177.7 171.5 1176.17 177.99 1174.03 C181.04 1173.04 184.08 1172.34 187.22 1171.68 C196.13 1169.76 204.84 1167.74 213.23 1164.13 C216.37 1162.9 219.54 1162.02 222.79 1161.13 C228.66 1159.5 234.19 1157.5 239.79 1155.13 C241.41 1154.48 243.04 1153.83 244.66 1153.19 C249.41 1151.29 254.12 1149.33 258.83 1147.35 C262.28 1145.92 265.76 1144.56 269.24 1143.22 C272.09 1142 274.83 1140.62 277.59 1139.23 C281.41 1137.31 285.29 1135.51 289.16 1133.69 C295.75 1130.58 302.31 1127.44 308.79 1124.13 C308.79 1123.47 308.79 1122.81 308.79 1122.13 C309.36 1122.01 309.94 1121.89 310.53 1121.76 C312.92 1121.09 314.77 1120.16 316.92 1118.93 C318.11 1118.25 318.11 1118.25 319.31 1117.57 C337.5 1106.98 354.78 1095.52 371.79 1083.13 C372.85 1082.36 373.91 1081.59 375 1080.79 C376.75 1079.52 378.5 1078.25 380.24 1076.97 C382.12 1075.61 384 1074.27 385.9 1072.94 C386.91 1072.21 387.93 1071.49 388.97 1070.75 C389.9 1070.1 390.82 1069.46 391.77 1068.79 C392.43 1068.24 393.1 1067.69 393.79 1067.13 C393.79 1066.47 393.79 1065.81 393.79 1065.13 C394.6 1064.77 394.6 1064.77 395.43 1064.41 C398.42 1062.78 400.9 1060.78 403.54 1058.63 C404.52 1057.83 405.51 1057.04 406.52 1056.22 C407.27 1055.53 408.02 1054.84 408.79 1054.13 C408.79 1053.47 408.79 1052.81 408.79 1052.13 C409.38 1051.86 409.97 1051.59 410.58 1051.32 C412.81 1050.12 414.35 1048.86 416.18 1047.12 C416.8 1046.53 417.42 1045.94 418.07 1045.33 C418.72 1044.71 419.37 1044.08 420.04 1043.44 C421.39 1042.16 422.73 1040.88 424.08 1039.61 C424.73 1039 425.37 1038.39 426.03 1037.77 C428.07 1035.87 430.16 1034.05 432.29 1032.25 C435.49 1029.5 438.19 1026.48 440.91 1023.25 C443.79 1019.99 446.93 1017.02 450.06 1014.01 C452.01 1012.31 452.01 1012.31 451.79 1010.13 C452.45 1010.13 453.11 1010.13 453.79 1010.13 C457.42 1006.65 457.42 1006.65 458.79 1002.13 C459.45 1002.13 460.11 1002.13 460.79 1002.13 C462.35 1000.43 463.84 998.67 465.29 996.88 C466.08 995.9 466.88 994.93 467.69 993.92 C469.37 991.68 470.67 989.68 471.79 987.13 C472.45 987.13 473.11 987.13 473.79 987.13 C475.43 985.19 475.43 985.19 477.16 982.63 C480.04 978.56 482.96 974.56 485.98 970.6 C496.03 957.37 505.27 943.62 514.22 929.63 C515.08 928.3 515.08 928.3 515.94 926.95 C519.34 921.59 522.47 916.14 525.48 910.55 C526.94 907.85 528.5 905.24 530.1 902.63 C534.08 895.86 537.34 888.8 540.65 881.69 C542.39 877.94 544.22 874.25 546.1 870.56 C548.23 866.35 550.09 862.1 551.79 857.69 C552.91 854.81 554.09 851.97 555.29 849.13 C560.35 837 564.99 824.87 568.78 812.27 C569.71 809.36 570.79 806.57 571.97 803.75 C573.59 799.86 574.25 796.32 574.79 792.13 C575.45 789.92 576.21 787.75 576.97 785.57 C581.12 773.21 583.86 760.27 586.41 747.5 C586.74 745.92 586.74 745.92 587.07 744.31 C588.22 738.57 589.11 732.92 589.55 727.07 C589.79 725.13 589.79 725.13 590.79 723.13 C590.99 721.72 591.15 720.3 591.29 718.88 C591.41 717.63 591.41 717.63 591.54 716.34 C591.66 715.03 591.66 715.03 591.79 713.69 C591.95 711.96 592.12 710.23 592.29 708.51 C592.36 707.74 592.43 706.97 592.51 706.18 C592.79 704.13 592.79 704.13 593.79 701.13 C593.92 699.56 594.01 697.99 594.07 696.42 C594.11 695.5 594.14 694.59 594.18 693.64 C594.22 692.69 594.25 691.73 594.29 690.75 C594.36 688.87 594.43 686.99 594.51 685.1 C594.55 683.85 594.55 683.85 594.6 682.57 C594.79 680.13 594.79 680.13 595.29 677.91 C595.88 674.63 595.91 671.55 595.92 668.23 C595.92 667.22 595.92 667.22 595.92 666.19 C595.93 663.97 595.92 661.75 595.92 659.54 C595.92 657.99 595.92 656.44 595.92 654.89 C595.92 651.65 595.92 648.41 595.92 645.17 C595.91 641.03 595.92 636.88 595.92 632.74 C595.92 629.55 595.92 626.35 595.92 623.15 C595.92 621.63 595.92 620.1 595.92 618.57 C595.93 616.43 595.92 614.29 595.92 612.15 C595.92 610.94 595.91 609.72 595.91 608.47 C595.79 605.27 595.37 602.28 594.79 599.13 C594.67 597.6 594.59 596.08 594.54 594.55 C594.51 593.73 594.48 592.9 594.45 592.05 C594.41 591.19 594.38 590.33 594.35 589.44 C594.08 583.03 593.6 576.88 592.26 570.6 C591.55 566.87 591.3 563.12 591.03 559.34 C590.91 557.09 590.91 557.09 589.79 555.13 C589.44 553.2 589.13 551.26 588.85 549.31 C588.67 548.14 588.5 546.97 588.31 545.76 C587.98 543.47 587.66 541.19 587.35 538.9 C586.33 531.61 584.71 524.7 582.69 517.63 C581.79 514.14 581.29 510.7 580.79 507.13 C580.46 506.8 580.13 506.47 579.79 506.13 C579.33 504.13 578.88 502.12 578.45 500.12 C576.45 491.05 574.45 482.15 570.78 473.6 C569.63 470.73 568.74 467.84 567.85 464.88 C565.02 455.47 561.87 446.19 557.75 437.26 C556.71 434.95 555.77 432.61 554.85 430.25 C553.05 425.7 551.04 421.26 548.99 416.82 C547.91 414.41 546.96 411.98 546.04 409.5 C543.84 403.88 540.95 398.64 538.09 393.33 C535.41 388.35 532.97 383.35 530.79 378.13 C530.13 378.13 529.47 378.13 528.79 378.13 C528.67 377.55 528.55 376.98 528.43 376.39 C527.75 373.99 526.81 372.14 525.58 369.98 C525.13 369.19 524.68 368.4 524.22 367.59 C511.59 345.87 498.03 324.83 482.35 305.16 C479.83 301.88 477.56 298.44 475.27 295 C474.78 294.38 474.29 293.76 473.79 293.13 C473.13 293.13 472.47 293.13 471.79 293.13 C471.55 292.59 471.31 292.04 471.07 291.49 C469.44 288.49 467.44 286.02 465.29 283.38 C464.49 282.39 463.7 281.41 462.88 280.39 C462.19 279.64 461.5 278.9 460.79 278.13 C460.13 278.13 459.47 278.13 458.79 278.13 C458.52 277.55 458.25 276.97 457.97 276.38 C456.76 274.07 455.48 272.11 453.79 270.13 C453.13 270.13 452.47 270.13 451.79 270.13 C451.52 269.53 451.25 268.93 450.97 268.32 C449.8 266.16 448.67 264.78 446.92 263.07 C446.37 262.52 445.81 261.97 445.23 261.4 C444.65 260.83 444.07 260.27 443.47 259.69 C442.62 258.85 442.62 258.85 441.75 257.99 C440.62 256.88 439.49 255.77 438.36 254.67 C435.04 251.42 431.77 248.12 428.53 244.79 C427.38 243.63 426.24 242.47 425.1 241.31 C424.52 240.72 423.94 240.12 423.34 239.5 C421.86 238.01 420.33 236.56 418.79 235.13 C418.13 235.13 417.47 235.13 416.79 235.13 C416.79 234.47 416.79 233.81 416.79 233.13 C413.31 229.49 413.31 229.49 408.79 228.13 C408.79 227.47 408.79 226.81 408.79 226.13 C407.09 224.56 405.33 223.07 403.54 221.63 C402.56 220.83 401.59 220.04 400.58 219.22 C398.34 217.54 396.34 216.25 393.79 215.13 C393.79 214.47 393.79 213.81 393.79 213.13 C391.85 211.49 391.85 211.49 389.29 209.75 C385.22 206.88 381.22 203.95 377.26 200.94 C358.75 186.87 339.23 174.3 319.29 162.38 C318.57 161.95 317.86 161.52 317.13 161.07 C313.23 158.72 313.23 158.72 308.79 158.13 C308.79 157.47 308.79 156.81 308.79 156.13 C308.28 155.89 307.78 155.66 307.27 155.41 C295.94 150.09 284.62 144.76 273.54 138.95 C268.97 136.57 264.31 134.84 259.45 133.13 C257.08 132.24 254.9 131.24 252.66 130.06 C249.24 128.28 245.8 127.06 242.12 125.9 C239.72 125.11 237.43 124.17 235.1 123.19 C229.9 121.06 224.57 119.62 219.15 118.13 C216.29 117.28 213.65 116.31 210.91 115.13 C201.95 111.36 192.14 109.61 182.67 107.56 C178.81 106.67 175.02 105.59 171.31 104.19 C166.3 102.68 161.2 101.91 156.04 101.06 C153.96 100.72 151.88 100.38 149.8 100.03 C148.89 99.88 147.97 99.73 147.03 99.58 C144.79 99.13 144.79 99.13 142.79 98.13 C140.96 97.92 139.12 97.76 137.29 97.63 C132.01 97.24 132.01 97.24 129.79 96.13 C128.45 95.92 127.11 95.76 125.76 95.63 C124.97 95.54 124.18 95.46 123.36 95.38 C122.12 95.25 122.12 95.25 120.85 95.13 C119.22 94.96 117.58 94.8 115.95 94.63 C115.22 94.55 114.5 94.48 113.75 94.41 C111.79 94.13 111.79 94.13 108.79 93.13 C107.23 92.99 105.67 92.9 104.11 92.85 C103.2 92.81 102.29 92.77 101.35 92.73 C100.4 92.7 99.45 92.66 98.47 92.63 C96.6 92.56 94.73 92.48 92.86 92.41 C92.03 92.38 91.2 92.35 90.35 92.32 C87.79 92.13 87.79 92.13 85.07 91.62 C81.58 91.1 78.3 91 74.78 91 C74.1 91 73.43 90.99 72.73 90.99 C70.52 90.99 68.31 90.99 66.1 90.99 C64.55 90.99 63.01 90.99 61.46 90.99 C58.23 90.99 54.99 90.99 51.76 91 C47.62 91 43.49 91 39.35 90.99 C36.16 90.99 32.97 90.99 29.78 90.99 C28.25 90.99 26.73 90.99 25.2 90.99 C23.07 90.99 20.93 90.99 18.8 91 C16.98 91 16.98 91 15.13 91 C11.92 91.12 8.93 91.54 5.79 92.13 Z " fill="#ffffff" transform="translate(593.212890625,-0.126983642578125)"/>
<path d="M0 0 C0.88 0.35 1.76 0.7 2.66 1.05 C13.68 5.7 22.59 12.8 28.88 23.06 C31.7 30.44 31.14 38.34 31.13 46.13 C31.14 47.47 31.14 48.81 31.14 50.15 C31.15 53.82 31.15 57.5 31.15 61.17 C31.15 65.14 31.15 69.1 31.16 73.07 C31.16 80.84 31.17 88.61 31.17 96.37 C31.17 102.69 31.17 109 31.17 115.31 C31.18 133.21 31.19 151.12 31.19 169.02 C31.19 169.98 31.19 170.95 31.19 171.94 C31.19 172.91 31.19 173.88 31.19 174.87 C31.18 190.53 31.19 206.19 31.21 221.85 C31.22 237.93 31.23 254.01 31.23 270.1 C31.23 279.12 31.23 288.15 31.24 297.18 C31.25 304.86 31.25 312.55 31.25 320.23 C31.24 324.15 31.24 328.07 31.25 331.99 C31.26 335.58 31.26 339.17 31.25 342.77 C31.25 344.67 31.25 346.58 31.26 348.49 C31.22 359.86 29.13 367.9 22 377 C15.61 383 15.61 383 12 383 C12 383.66 12 384.32 12 385 C6.03 388.68 0.11 391.14 -6.59 393.2 C-8.93 393.78 -8.93 393.78 -10 395 C-35.79 400.6 -61.3 398.99 -84.21 384.93 C-92.79 378.98 -98.38 371.82 -102 362 C-102.79 357.31 -102.8 352.73 -102.75 347.98 C-102.75 346.61 -102.76 345.23 -102.77 343.85 C-102.79 340.1 -102.78 336.35 -102.76 332.6 C-102.74 328.54 -102.75 324.49 -102.77 320.43 C-102.79 312.49 -102.77 304.56 -102.75 296.63 C-102.72 287.38 -102.72 278.13 -102.73 268.88 C-102.73 252.38 -102.71 235.87 -102.67 219.37 C-102.63 203.37 -102.62 187.37 -102.63 171.37 C-102.64 153.93 -102.64 136.48 -102.62 119.04 C-102.62 117.18 -102.62 115.32 -102.61 113.46 C-102.61 112.54 -102.61 111.63 -102.61 110.68 C-102.6 104.24 -102.6 97.8 -102.61 91.36 C-102.61 83.51 -102.6 75.66 -102.57 67.81 C-102.56 63.8 -102.55 59.8 -102.56 55.8 C-102.57 52.13 -102.56 48.46 -102.53 44.79 C-102.52 42.84 -102.53 40.9 -102.54 38.95 C-102.43 27.24 -99.39 19.62 -91.29 11.19 C-69.16 -9.99 -27.25 -11.24 0 0 Z " fill="#ffffff" transform="translate(676,538)"/>
<path d="M0 0 C1.09 0.41 2.19 0.82 3.31 1.25 C11.94 4.88 22.25 12.37 26.44 20.94 C26.62 21.62 26.81 22.3 27 23 C27.66 23 28.32 23 29 23 C37.26 37.6 40.57 51.87 36.69 68.6 C34.63 75.77 31.79 83.17 27 89 C26.34 89 25.68 89 25 89 C24.61 89.87 24.61 89.87 24.22 90.77 C22.9 93.18 21.45 94.82 19.5 96.75 C18.89 97.36 18.28 97.98 17.66 98.61 C16 100 16 100 14 100 C14 100.66 14 101.32 14 102 C-6.29 114.21 -27.26 119.83 -51 114 C-57.16 112.08 -63.1 109.62 -69 107 C-69 106.34 -69 105.68 -69 105 C-69.54 104.92 -70.07 104.83 -70.62 104.75 C-73.87 103.72 -76.29 102.03 -79 100 C-79 99.34 -79 98.68 -79 98 C-80.49 97.5 -80.49 97.5 -82 97 C-82 96.34 -82 95.68 -82 95 C-82.9 94.63 -82.9 94.63 -83.81 94.25 C-86.32 92.82 -87.48 91.43 -89 89 C-89 88.34 -89 87.68 -89 87 C-89.66 87 -90.32 87 -91 87 C-99.5 71.99 -103.81 58.6 -100.21 41.16 C-98.61 35.81 -96.56 30.96 -94 26 C-93.34 26 -92.68 26 -92 26 C-91.69 25.22 -91.38 24.43 -91.06 23.62 C-90 21 -90 21 -89 19 C-88.34 19 -87.68 19 -87 19 C-86.67 18.01 -86.34 17.02 -86 16 C-85.34 16 -84.68 16 -84 16 C-83.62 15.1 -83.62 15.1 -83.23 14.18 C-81.1 10.4 -77.52 8.41 -74 6 C-73.38 5.56 -72.76 5.13 -72.12 4.68 C-52.02 -8.69 -21.42 -12.46 0 0 Z " fill="#ffffff" transform="translate(671,341)"/>
</svg>
