<?xml version="1.0" encoding="UTF-8"?>
<!-- Generator: visioncortex VTracer 0.6.3 -->
<svg version="1.1" xmlns="http://www.w3.org/2000/svg" width="1280" height="1280">
<path d="M0 0 C1.27 -0 1.27 -0 2.57 -0.01 C3.95 -0.01 3.95 -0.01 5.35 -0 C6.29 -0 7.23 -0.01 8.2 -0.01 C10.2 -0.01 12.2 -0.01 14.19 -0 C17.24 0 20.3 -0 23.35 -0.01 C25.29 -0.01 27.23 -0.01 29.16 -0 C30.08 -0.01 30.99 -0.01 31.93 -0.01 C33.21 -0 33.21 -0 34.52 0 C35.64 0 35.64 0 36.79 0 C38.94 0.13 40.81 0.57 42.89 1.13 C43.96 1.27 45.03 1.42 46.14 1.57 C52.57 2.53 58.58 4.29 64.71 6.41 C66.75 7.08 68.8 7.65 70.89 8.19 C71.88 8.5 72.87 8.81 73.89 9.13 C74.22 9.79 74.55 10.45 74.89 11.13 C76.7 11.76 76.7 11.76 78.95 12.25 C86 14.25 92.25 17.67 98.73 21.03 C100.95 22.16 103.19 23.25 105.44 24.32 C106.17 24.68 106.91 25.03 107.67 25.4 C109.08 26.08 110.5 26.76 111.92 27.43 C113.62 28.25 115.26 29.18 116.89 30.13 C117.22 31.12 117.55 32.11 117.89 33.13 C118.61 33.25 119.33 33.38 120.08 33.5 C122.85 34.12 125.29 35.01 127.89 36.13 C127.89 36.79 127.89 37.45 127.89 38.13 C128.78 38.4 129.66 38.67 130.58 38.94 C133.69 40.06 136.1 41.38 138.89 43.13 C140.88 44.14 142.88 45.15 144.89 46.13 C145.55 46.46 146.21 46.79 146.89 47.13 C146.89 47.79 146.89 48.45 146.89 49.13 C147.72 49.28 147.72 49.28 148.58 49.44 C152.25 50.54 155.23 52.71 158.45 54.75 C160.66 56 162.42 56.67 164.89 57.13 C164.89 57.79 164.89 58.45 164.89 59.13 C165.45 59.23 166 59.34 166.58 59.44 C169.34 60.26 171.45 61.6 173.89 63.13 C175.93 64.18 177.99 65.17 180.08 66.13 C181.89 67.13 181.89 67.13 182.89 69.13 C184.53 69.85 186.2 70.52 187.89 71.13 C187.89 71.79 187.89 72.45 187.89 73.13 C189.02 73.25 190.16 73.38 191.33 73.5 C192.5 73.71 193.68 73.92 194.89 74.13 C195.22 74.79 195.55 75.45 195.89 76.13 C196.55 76.29 197.21 76.46 197.89 76.63 C198.55 76.79 199.21 76.96 199.89 77.13 C200.22 77.79 200.55 78.45 200.89 79.13 C202.73 80.05 202.73 80.05 204.95 80.88 C208.25 82.28 210.91 83.77 213.7 86 C219.35 90.47 225.96 93.66 232.69 96.18 C234.89 97.13 234.89 97.13 235.89 99.13 C237.91 100.26 237.91 100.26 239.89 101.13 C239.89 101.79 239.89 102.45 239.89 103.13 C240.71 103.01 241.54 102.88 242.39 102.75 C246.83 103.23 248.8 105.01 252.15 107.82 C253.79 109.33 253.79 109.33 255.89 109.13 C256.55 110.12 257.21 111.11 257.89 112.13 C259.7 113.31 259.7 113.31 261.76 114.25 C262.44 114.59 263.12 114.92 263.82 115.26 C265.87 116.19 265.87 116.19 268.08 116.62 C268.68 116.79 269.28 116.96 269.89 117.13 C270.22 117.79 270.55 118.45 270.89 119.13 C272.91 120.26 272.91 120.26 274.89 121.13 C274.89 121.79 274.89 122.45 274.89 123.13 C275.73 123.19 276.58 123.25 277.45 123.32 C280.98 124.15 282.93 125.48 285.77 127.66 C291.05 131.31 297.14 133.85 302.95 136.56 C305.93 138.15 308.28 140 310.89 142.13 C318.01 146.61 325.39 150.63 333.05 154.11 C334.89 155.13 334.89 155.13 335.89 157.13 C336.73 157.4 337.58 157.67 338.45 157.94 C342.05 159.19 344.8 160.83 347.96 162.91 C349.88 164.13 351.84 165.15 353.89 166.13 C353.89 166.79 353.89 167.45 353.89 168.13 C354.43 168.24 354.98 168.36 355.54 168.48 C358.34 169.25 360.87 170.36 363.51 171.57 C364.48 172 365.44 172.43 366.43 172.88 C368.89 174.13 368.89 174.13 370.89 176.13 C373.97 178.66 377.18 180.35 380.76 182.07 C385.05 184.17 388.94 186.44 392.89 189.13 C394.72 190.14 396.55 191.14 398.39 192.13 C401.32 193.7 404.08 195.26 406.83 197.13 C410.73 199.68 414.86 201.63 419.05 203.68 C421.27 204.81 423.29 205.96 425.33 207.38 C427.79 209.06 430.08 210.14 432.89 211.13 C432.89 211.79 432.89 212.45 432.89 213.13 C433.76 213.38 434.62 213.62 435.51 213.88 C438.42 214.95 440.48 216.14 442.97 217.92 C446.58 220.19 450.52 221.87 454.38 223.66 C456.89 225.13 456.89 225.13 457.89 228.13 C458.61 228.25 459.33 228.38 460.08 228.5 C462.85 229.12 465.29 230.01 467.89 231.13 C467.89 231.79 467.89 232.45 467.89 233.13 C468.78 233.4 469.66 233.67 470.58 233.94 C473.69 235.06 476.1 236.38 478.89 238.13 C479.82 238.56 480.75 239 481.7 239.44 C484.35 240.85 486.42 242.24 488.76 244.07 C493.7 247.87 498.78 250.76 504.89 252.13 C504.89 252.79 504.89 253.45 504.89 254.13 C505.72 254.28 505.72 254.28 506.58 254.44 C509.34 255.26 511.45 256.6 513.89 258.13 C515.93 259.18 517.99 260.17 520.08 261.13 C521.89 262.13 521.89 262.13 522.89 264.13 C524.63 265.22 524.63 265.22 526.7 266.19 C527.39 266.53 528.08 266.88 528.78 267.23 C530.86 268.19 530.86 268.19 533.09 268.63 C533.68 268.79 534.28 268.96 534.89 269.13 C535.22 269.79 535.55 270.45 535.89 271.13 C536.55 271.29 537.21 271.46 537.89 271.63 C538.55 271.79 539.21 271.96 539.89 272.13 C540.22 272.79 540.55 273.45 540.89 274.13 C542.73 275.05 542.73 275.05 544.95 275.88 C549.19 277.67 552.5 279.95 556.09 282.8 C558.23 284.38 560.36 285.34 562.89 286.13 C562.89 286.79 562.89 287.45 562.89 288.13 C563.57 288.23 564.25 288.34 564.95 288.44 C568.56 289.29 571.55 290.52 574.89 292.13 C575.22 292.79 575.55 293.45 575.89 294.13 C577.91 295.26 577.91 295.26 579.89 296.13 C579.89 296.79 579.89 297.45 579.89 298.13 C580.71 298.01 581.54 297.88 582.39 297.75 C586.83 298.23 588.8 300.01 592.15 302.82 C593.79 304.33 593.79 304.33 595.89 304.13 C595.89 304.79 595.89 305.45 595.89 306.13 C596.55 306.13 597.21 306.13 597.89 306.13 C597.89 306.79 597.89 307.45 597.89 308.13 C598.57 308.23 599.25 308.34 599.95 308.44 C603.56 309.29 606.55 310.52 609.89 312.13 C610.22 312.79 610.55 313.45 610.89 314.13 C612.91 315.26 612.91 315.26 614.89 316.13 C614.89 316.79 614.89 317.45 614.89 318.13 C615.73 318.19 616.58 318.25 617.45 318.32 C621.24 319.21 623.18 320.59 626.21 322.92 C628.3 324.43 630.45 325.32 632.89 326.13 C632.89 326.79 632.89 327.45 632.89 328.13 C633.59 328.23 634.29 328.34 635.01 328.44 C639.73 329.57 643.14 331.49 646.83 334.63 C650.09 337.3 653 338.55 656.89 340.13 C659.27 341.39 661.62 342.71 663.97 344.04 C665.26 344.77 666.57 345.47 667.89 346.13 C667.89 346.79 667.89 347.45 667.89 348.13 C670.2 348.46 672.51 348.79 674.89 349.13 C675.22 350.12 675.55 351.11 675.89 352.13 C677.88 352.81 679.89 353.47 681.89 354.13 C683.97 355.32 685.96 356.59 687.96 357.91 C689.88 359.13 691.84 360.15 693.89 361.13 C693.89 361.79 693.89 362.45 693.89 363.13 C694.47 363.25 695.05 363.38 695.64 363.51 C697.91 364.13 699.75 364.98 701.83 366.07 C704.8 367.59 707.76 368.96 710.89 370.13 C710.89 370.79 710.89 371.45 710.89 372.13 C711.71 372.36 712.54 372.58 713.39 372.82 C717.64 374.41 721.11 376.65 724.89 379.13 C732.01 383.72 739.34 387.9 746.95 391.63 C752.46 394.44 757.74 397.7 762.89 401.13 C762.89 401.79 762.89 402.45 762.89 403.13 C763.65 403.27 764.42 403.42 765.2 403.57 C767.89 404.13 767.89 404.13 770.89 405.13 C770.89 405.79 770.89 406.45 770.89 407.13 C772.53 407.53 772.53 407.53 774.2 407.94 C777.79 409.1 778.47 409.6 780.89 412.13 C781.78 412.42 782.66 412.71 783.58 413 C788.88 414.81 793.25 418.04 797.89 421.13 C797.89 421.79 797.89 422.45 797.89 423.13 C798.61 423.25 799.33 423.38 800.08 423.5 C802.85 424.12 805.29 425.01 807.89 426.13 C807.89 426.79 807.89 427.45 807.89 428.13 C808.78 428.4 809.66 428.67 810.58 428.94 C813.68 430.05 816.12 431.38 818.89 433.13 C819.49 433.43 820.09 433.73 820.71 434.04 C823.25 435.31 825.69 436.7 828.14 438.13 C829.03 438.65 829.92 439.16 830.84 439.69 C831.52 440.17 832.19 440.64 832.89 441.13 C832.89 441.79 832.89 442.45 832.89 443.13 C833.57 443.23 834.25 443.34 834.95 443.44 C838.56 444.29 841.55 445.52 844.89 447.13 C845.22 447.79 845.55 448.45 845.89 449.13 C847.79 450.19 849.74 451.18 851.7 452.13 C853.29 452.9 853.29 452.9 854.91 453.69 C856.67 454.54 858.44 455.38 860.21 456.19 C861.89 457.13 861.89 457.13 862.89 459.13 C864.77 460.19 866.7 461.18 868.64 462.13 C869.69 462.65 870.73 463.16 871.81 463.69 C874.82 465.14 874.82 465.14 877.72 466.19 C879.89 467.13 879.89 467.13 880.89 469.13 C882.63 470.18 882.63 470.18 884.7 471.13 C885.39 471.46 886.08 471.79 886.78 472.13 C888.19 472.8 889.59 473.46 891 474.13 C892.89 475.13 892.89 475.13 895.33 477.13 C897.81 479.07 899.93 480.12 902.89 481.13 C902.89 481.79 902.89 482.45 902.89 483.13 C903.55 483.21 904.21 483.29 904.89 483.38 C910 484.66 914.42 486.94 918.51 490.25 C920.81 492.29 920.81 492.29 923.83 493.07 C926.93 494.15 928.57 495.54 930.99 497.7 C935.91 501.41 941.94 504.03 947.7 506.18 C949.89 507.13 949.89 507.13 950.89 509.13 C952.91 509.78 952.91 509.78 954.89 510.13 C954.89 511.12 954.89 512.11 954.89 513.13 C956.16 513.22 956.16 513.22 957.45 513.32 C961.23 514.21 963.16 515.56 966.18 517.88 C968.01 519.29 968.01 519.29 970.76 520.57 C974.32 522.34 977.49 524.47 980.76 526.71 C982.45 527.83 984.19 528.87 985.95 529.88 C986.91 530.5 986.91 530.5 987.89 531.13 C987.89 531.79 987.89 532.45 987.89 533.13 C988.46 533.25 989.04 533.36 989.63 533.48 C992.08 534.18 993.91 535.16 996.08 536.5 C996.77 536.92 997.47 537.34 998.18 537.78 C999.89 539.13 999.89 539.13 1000.89 542.13 C1002.25 543.02 1003.62 543.9 1004.99 544.77 C1009.21 547.8 1012.74 551.7 1016.39 555.38 C1017.22 556.2 1018.05 557.02 1018.9 557.87 C1023.7 562.68 1027.97 567.58 1031.89 573.13 C1032.44 573.8 1032.99 574.48 1033.55 575.17 C1034.89 577.13 1034.89 577.13 1034.89 580.13 C1035.88 580.46 1036.87 580.79 1037.89 581.13 C1039.35 583.64 1040.64 586.08 1041.89 588.69 C1042.23 589.38 1042.57 590.08 1042.93 590.79 C1045.99 597.05 1048.55 603.26 1049.89 610.13 C1050.22 610.75 1050.55 611.37 1050.89 612 C1052.28 614.96 1052.44 617.91 1052.89 621.13 C1053.22 621.95 1053.55 622.77 1053.9 623.61 C1055.34 628.74 1055.27 633.7 1055.26 639 C1055.26 640.11 1055.27 641.22 1055.27 642.36 C1055.14 651.82 1054.19 661.53 1049.89 670.13 C1049.7 671.18 1049.7 671.18 1049.51 672.25 C1047.23 682.75 1041.76 693.94 1034.89 702.13 C1034.41 702.93 1033.94 703.74 1033.45 704.57 C1031.55 707.69 1029.27 710.38 1026.89 713.13 C1026.44 713.67 1026 714.21 1025.54 714.76 C1021.37 719.7 1016.87 724.29 1012.33 728.88 C1011.69 729.53 1011.05 730.18 1010.4 730.85 C1006.79 734.47 1003.22 737.37 998.89 740.13 C996.78 741.95 994.75 743.83 992.72 745.74 C990.89 747.13 990.89 747.13 987.89 747.13 C987.89 747.79 987.89 748.45 987.89 749.13 C987.15 749.52 986.42 749.9 985.66 750.3 C980.72 752.94 976.16 755.48 971.89 759.13 C970.23 760.15 968.57 761.15 966.89 762.13 C965.93 762.7 964.97 763.26 963.99 763.85 C962.99 764.44 961.98 765.02 960.95 765.63 C959.95 766.22 958.95 766.81 957.92 767.41 C954.96 769.09 951.95 770.62 948.89 772.13 C943.85 774.81 938.95 777.68 934.13 780.74 C927.54 784.83 920.84 788.69 913.89 792.13 C908.85 794.81 903.95 797.68 899.13 800.74 C892.54 804.83 885.84 808.69 878.89 812.13 C873.85 814.81 868.95 817.68 864.13 820.74 C858.47 824.25 852.75 827.71 846.78 830.67 C843.59 832.28 840.69 834.16 837.72 836.14 C835.89 837.13 835.89 837.13 832.89 837.13 C832.89 837.79 832.89 838.45 832.89 839.13 C825.4 843.44 817.9 847.71 810.3 851.81 C808.13 853 806.01 854.24 803.89 855.5 C800.89 857.13 800.89 857.13 797.89 857.13 C797.56 858.12 797.23 859.11 796.89 860.13 C795.25 861.26 795.25 861.26 793.14 862.32 C792.39 862.71 791.63 863.1 790.86 863.49 C790.06 863.89 789.27 864.28 788.45 864.69 C786.89 865.48 785.33 866.27 783.77 867.07 C783.07 867.42 782.38 867.77 781.66 868.12 C779.72 869.12 779.72 869.12 777.89 871.13 C776.16 871.88 774.44 872.62 772.7 873.33 C770.68 874.17 770.68 874.17 768.14 875.82 C765.89 877.13 765.89 877.13 762.89 877.13 C762.56 878.12 762.23 879.11 761.89 880.13 C760.29 881.25 760.29 881.25 758.25 882.29 C757.51 882.67 756.77 883.05 756 883.45 C755.22 883.84 754.44 884.23 753.64 884.63 C752.11 885.41 750.59 886.19 749.06 886.97 C748.34 887.34 747.61 887.71 746.86 888.1 C742.33 890.47 738.1 893.29 733.85 896.14 C731.89 897.13 731.89 897.13 727.89 897.13 C727.56 898.12 727.23 899.11 726.89 900.13 C725.29 901.25 725.29 901.25 723.25 902.29 C722.51 902.67 721.77 903.05 721 903.45 C720.22 903.84 719.44 904.23 718.64 904.63 C717.11 905.41 715.59 906.19 714.06 906.97 C713.34 907.34 712.61 907.71 711.86 908.1 C707.33 910.47 703.1 913.29 698.85 916.14 C696.89 917.13 696.89 917.13 692.89 917.13 C692.56 918.12 692.23 919.11 691.89 920.13 C690.29 921.25 690.29 921.25 688.25 922.29 C687.51 922.67 686.77 923.05 686 923.45 C685.22 923.84 684.44 924.23 683.64 924.63 C682.11 925.41 680.59 926.19 679.06 926.97 C678.33 927.35 677.6 927.72 676.85 928.11 C673.84 929.67 670.98 931.43 668.12 933.25 C663.16 936.39 658.1 939.3 652.95 942.13 C652.2 942.54 651.46 942.95 650.69 943.38 C647.61 945.08 644.53 946.78 641.45 948.47 C640.66 948.91 639.87 949.34 639.06 949.79 C638.35 950.18 637.64 950.58 636.91 950.98 C634.26 952.49 631.7 954.11 629.13 955.74 C622.54 959.83 615.84 963.69 608.89 967.13 C603.85 969.81 598.95 972.68 594.13 975.74 C587.54 979.83 580.84 983.69 573.89 987.13 C568.85 989.81 563.95 992.68 559.13 995.74 C552.54 999.83 545.84 1003.69 538.89 1007.13 C533.85 1009.81 528.95 1012.68 524.13 1015.74 C517.54 1019.83 510.84 1023.69 503.89 1027.13 C497.41 1030.58 491.18 1034.38 485 1038.34 C480.28 1041.35 475.44 1044.06 470.51 1046.7 C468.27 1047.92 466.08 1049.19 463.89 1050.5 C460.89 1052.13 460.89 1052.13 457.89 1052.13 C457.56 1053.12 457.23 1054.11 456.89 1055.13 C455.25 1056.26 455.25 1056.26 453.14 1057.32 C452.39 1057.71 451.63 1058.1 450.86 1058.49 C450.06 1058.89 449.27 1059.28 448.45 1059.69 C446.89 1060.48 445.33 1061.27 443.77 1062.07 C443.07 1062.42 442.38 1062.77 441.66 1063.12 C439.72 1064.12 439.72 1064.12 437.89 1066.13 C436.16 1066.88 434.44 1067.62 432.7 1068.33 C430.68 1069.17 430.68 1069.17 428.14 1070.82 C425.89 1072.13 425.89 1072.13 422.89 1072.13 C422.56 1073.12 422.23 1074.11 421.89 1075.13 C420.29 1076.25 420.29 1076.25 418.25 1077.29 C417.51 1077.67 416.77 1078.05 416 1078.45 C414.83 1079.03 414.83 1079.03 413.64 1079.63 C412.11 1080.41 410.59 1081.19 409.06 1081.97 C407.97 1082.53 407.97 1082.53 406.86 1083.1 C402.33 1085.47 398.1 1088.29 393.85 1091.14 C391.89 1092.13 391.89 1092.13 387.89 1092.13 C387.56 1093.12 387.23 1094.11 386.89 1095.13 C385.29 1096.25 385.29 1096.25 383.25 1097.29 C382.51 1097.67 381.77 1098.05 381 1098.45 C379.83 1099.03 379.83 1099.03 378.64 1099.63 C377.11 1100.41 375.59 1101.19 374.06 1101.97 C372.97 1102.53 372.97 1102.53 371.86 1103.1 C367.33 1105.47 363.1 1108.29 358.85 1111.14 C356.89 1112.13 356.89 1112.13 352.89 1112.13 C352.56 1113.12 352.23 1114.11 351.89 1115.13 C350.29 1116.25 350.29 1116.25 348.25 1117.29 C347.51 1117.67 346.77 1118.05 346 1118.45 C344.83 1119.03 344.83 1119.03 343.64 1119.63 C342.11 1120.41 340.59 1121.19 339.06 1121.97 C337.97 1122.53 337.97 1122.53 336.86 1123.1 C332.33 1125.47 328.1 1128.29 323.85 1131.14 C321.89 1132.13 321.89 1132.13 317.89 1132.13 C317.56 1133.12 317.23 1134.11 316.89 1135.13 C314.26 1136.78 314.26 1136.78 310.89 1138.5 C309.7 1139.12 308.51 1139.74 307.31 1140.36 C306.18 1140.95 305.05 1141.53 303.89 1142.13 C298.86 1144.84 293.95 1147.68 289.13 1150.74 C282.54 1154.83 275.84 1158.69 268.89 1162.13 C263.85 1164.81 258.95 1167.68 254.13 1170.74 C247.54 1174.83 240.84 1178.69 233.89 1182.13 C228.85 1184.81 223.95 1187.68 219.13 1190.74 C212.54 1194.83 205.84 1198.69 198.89 1202.13 C193.85 1204.81 188.95 1207.68 184.13 1210.74 C177.54 1214.83 170.84 1218.69 163.89 1222.13 C157.41 1225.58 151.18 1229.38 145 1233.34 C140.28 1236.35 135.44 1239.06 130.51 1241.7 C128.27 1242.92 126.08 1244.19 123.89 1245.5 C120.89 1247.13 120.89 1247.13 117.89 1247.13 C117.56 1248.12 117.23 1249.11 116.89 1250.13 C114.9 1251.4 114.9 1251.4 112.3 1252.65 C110.87 1253.35 110.87 1253.35 109.42 1254.06 C108.42 1254.54 107.42 1255.01 106.39 1255.5 C104.44 1256.45 102.49 1257.39 100.55 1258.34 C99.12 1259.03 99.12 1259.03 97.66 1259.74 C94.32 1261.42 91.07 1263.24 87.84 1265.13 C85.27 1266.44 82.74 1267.02 79.93 1267.6 C77.56 1268.22 75.48 1269.15 73.26 1270.19 C69.77 1271.82 66.71 1272.56 62.89 1273.13 C61.75 1273.58 60.62 1274.04 59.45 1274.5 C54.76 1276.38 49.86 1277.23 44.91 1278.13 C41.61 1278.51 41.61 1278.51 38.89 1280.13 C37.55 1280.23 36.21 1280.27 34.88 1280.27 C33.6 1280.28 33.6 1280.28 32.3 1280.29 C31.37 1280.3 30.44 1280.3 29.49 1280.3 C28.54 1280.3 27.6 1280.3 26.62 1280.31 C24.62 1280.31 22.61 1280.31 20.61 1280.31 C17.53 1280.32 14.46 1280.34 11.39 1280.35 C9.44 1280.36 7.5 1280.36 5.55 1280.36 C4.17 1280.37 4.17 1280.37 2.76 1280.38 C1.9 1280.38 1.04 1280.38 0.16 1280.37 C-0.59 1280.37 -1.35 1280.38 -2.12 1280.38 C-4.11 1280.13 -4.11 1280.13 -7.11 1278.13 C-9.35 1277.57 -9.35 1277.57 -11.8 1277.19 C-19.75 1275.71 -26.79 1272.47 -34.11 1269.13 C-34.11 1268.47 -34.11 1267.81 -34.11 1267.13 C-34.81 1267.03 -35.51 1266.92 -36.24 1266.82 C-39.5 1266.04 -42.16 1264.71 -45.11 1263.13 C-45.11 1262.47 -45.11 1261.81 -45.11 1261.13 C-45.67 1260.86 -46.22 1260.59 -46.8 1260.32 C-53.94 1256.65 -53.94 1256.65 -55.11 1253.13 C-55.97 1252.71 -55.97 1252.71 -56.85 1252.28 C-60.01 1250.67 -61.92 1248.37 -64.3 1245.75 C-65.62 1244.32 -65.62 1244.32 -66.97 1242.86 C-68.88 1240.42 -69.75 1239.14 -70.11 1236.13 C-70.77 1236.13 -71.43 1236.13 -72.11 1236.13 C-73.77 1233.65 -73.77 1233.65 -75.61 1230.38 C-76.22 1229.31 -76.83 1228.24 -77.45 1227.15 C-78.41 1225.41 -79.34 1223.65 -80.2 1221.86 C-81.1 1219.94 -81.1 1219.94 -83.11 1218.13 C-83.98 1215.96 -84.78 1213.77 -85.55 1211.57 C-85.77 1210.94 -85.99 1210.31 -86.22 1209.66 C-87.67 1205.48 -89.06 1201.28 -90.42 1197.07 C-91.18 1194.84 -91.18 1194.84 -92.74 1191.69 C-94.26 1187.74 -94.59 1184.36 -94.8 1180.17 C-94.9 1179.5 -95.01 1178.82 -95.11 1178.13 C-95.77 1177.8 -96.43 1177.47 -97.11 1177.13 C-96.45 1177.13 -95.79 1177.13 -95.11 1177.13 C-95.59 1175.91 -96.06 1174.7 -96.55 1173.44 C-98.29 1168.31 -98.63 1163.33 -98.9 1157.95 C-99 1155.05 -99 1155.05 -100.11 1152.13 C-100.21 1149.81 -100.24 1147.49 -100.24 1145.17 C-100.24 1144.45 -100.24 1143.74 -100.24 1143 C-100.24 1140.57 -100.24 1138.14 -100.24 1135.72 C-100.24 1133.96 -100.24 1132.21 -100.24 1130.45 C-100.25 1125.59 -100.24 1120.73 -100.24 1115.87 C-100.24 1110.6 -100.24 1105.32 -100.24 1100.05 C-100.25 1090.79 -100.25 1081.54 -100.24 1072.28 C-100.24 1058.52 -100.24 1044.76 -100.24 1031 C-100.25 1007.85 -100.25 984.7 -100.25 961.55 C-100.25 960.49 -100.25 960.49 -100.25 959.42 C-100.25 958.71 -100.25 958 -100.25 957.27 C-100.24 935.77 -100.24 914.26 -100.24 892.76 C-100.24 891.32 -100.24 889.88 -100.24 888.44 C-100.25 882.66 -100.25 876.88 -100.25 871.1 C-100.25 854.93 -100.25 838.77 -100.25 822.61 C-100.25 821.87 -100.25 821.14 -100.25 820.38 C-100.25 796.91 -100.25 773.45 -100.24 749.99 C-100.24 749.23 -100.24 748.46 -100.24 747.68 C-100.24 735.32 -100.24 722.95 -100.24 710.59 C-100.24 661.55 -100.24 612.51 -100.24 563.48 C-100.24 551.12 -100.24 538.76 -100.24 526.41 C-100.24 525.65 -100.24 524.88 -100.24 524.1 C-100.25 500.66 -100.25 477.23 -100.25 453.79 C-100.25 453.05 -100.25 452.32 -100.25 451.56 C-100.25 435.41 -100.25 419.27 -100.25 403.12 C-100.25 397.35 -100.25 391.57 -100.24 385.79 C-100.24 384.36 -100.24 382.92 -100.24 381.48 C-100.24 359.98 -100.24 338.48 -100.25 316.98 C-100.25 316.27 -100.25 315.57 -100.25 314.84 C-100.25 313.79 -100.25 313.79 -100.25 312.71 C-100.25 288.99 -100.25 265.26 -100.24 241.54 C-100.24 227.85 -100.24 214.17 -100.24 200.48 C-100.25 191.35 -100.25 182.22 -100.24 173.09 C-100.24 167.88 -100.24 162.67 -100.24 157.46 C-100.24 152.73 -100.24 148 -100.24 143.26 C-100.24 141.55 -100.24 139.85 -100.24 138.14 C-100.24 135.83 -100.24 133.52 -100.24 131.21 C-100.24 129.93 -100.24 128.65 -100.24 127.33 C-100.13 124.69 -99.84 122.64 -99.11 120.13 C-98.85 116.83 -98.67 113.53 -98.49 110.22 C-98.13 107.28 -97.49 105.69 -96.11 103.13 C-95.67 101 -95.67 101 -95.49 98.88 C-95.3 97.02 -95.3 97.02 -95.11 95.13 C-94.78 95.13 -94.45 95.13 -94.11 95.13 C-94.06 94.49 -94.01 93.85 -93.96 93.2 C-93.89 92.37 -93.81 91.54 -93.74 90.69 C-93.67 89.87 -93.6 89.04 -93.52 88.2 C-93.39 87.51 -93.25 86.83 -93.11 86.13 C-92.12 85.63 -92.12 85.63 -91.11 85.13 C-90.75 82.8 -90.42 80.47 -90.11 78.13 C-88.53 72.55 -88.53 72.55 -86.11 70.13 C-85.76 68.47 -85.43 66.8 -85.11 65.13 C-84 62.54 -83.13 61.14 -81.11 59.13 C-80.27 57.08 -79.59 55.01 -78.89 52.91 C-78.11 51.13 -78.11 51.13 -76.11 50.13 C-75.64 49.02 -75.16 47.9 -74.67 46.75 C-72.62 41.98 -72.62 41.98 -70.11 40.13 C-69.45 40.13 -68.79 40.13 -68.11 40.13 C-67.78 38.81 -67.45 37.49 -67.11 36.13 C-66.78 36.46 -66.45 36.79 -66.11 37.13 C-65.83 36.08 -65.83 36.08 -65.55 35 C-63.83 31.56 -61.75 29.93 -58.78 27.56 C-56.95 26.11 -56.95 26.11 -55.42 23.75 C-54.99 23.22 -54.56 22.68 -54.11 22.13 C-52.79 22.13 -51.47 22.13 -50.11 22.13 C-49.88 21.55 -49.66 20.97 -49.42 20.38 C-46.42 15.23 -41.52 13.29 -36.25 11.07 C-33.96 10.12 -33.96 10.12 -31.42 8.44 C-28.67 6.88 -26.24 6.49 -23.11 6.13 C-23.11 5.47 -23.11 4.81 -23.11 4.13 C-22.15 4.06 -22.15 4.06 -21.18 3.98 C-20.35 3.91 -19.52 3.83 -18.67 3.75 C-17.85 3.68 -17.03 3.62 -16.18 3.54 C-15.5 3.41 -14.81 3.27 -14.11 3.13 C-13.78 2.47 -13.45 1.81 -13.11 1.13 C-12 1.15 -10.88 1.17 -9.74 1.19 C-6.17 1.13 -3.57 0 0 0 Z " fill="#000100" transform="translate(162.11083984375,-0.12939453125)"/>
<path d="" fill="#FDFDFD" transform="translate(0,0)"/>
<path d="" fill="#FDFDFD" transform="translate(0,0)"/>
<path d="" fill="#FDFDFD" transform="translate(0,0)"/>
<path d="" fill="#FDFDFD" transform="translate(0,0)"/>
<path d="" fill="#FDFDFD" transform="translate(0,0)"/>
<path d="" fill="#FDFDFD" transform="translate(0,0)"/>
<path d="" fill="#FDFDFD" transform="translate(0,0)"/>
<path d="" fill="#FDFDFD" transform="translate(0,0)"/>
<path d="" fill="#FDFDFD" transform="translate(0,0)"/>
<path d="" fill="#000100" transform="translate(0,0)"/>
<path d="" fill="#FDFDFD" transform="translate(0,0)"/>
<path d="" fill="#000100" transform="translate(0,0)"/>
<path d="" fill="#FDFDFD" transform="translate(0,0)"/>
<path d="" fill="#FDFDFD" transform="translate(0,0)"/>
<path d="" fill="#FDFDFD" transform="translate(0,0)"/>
<path d="" fill="#FDFDFD" transform="translate(0,0)"/>
<path d="" fill="#FDFDFD" transform="translate(0,0)"/>
<path d="" fill="#FDFDFD" transform="translate(0,0)"/>
<path d="" fill="#FDFDFD" transform="translate(0,0)"/>
<path d="" fill="#FDFDFD" transform="translate(0,0)"/>
<path d="" fill="#FDFDFD" transform="translate(0,0)"/>
<path d="" fill="#FDFDFD" transform="translate(0,0)"/>
<path d="" fill="#FDFDFD" transform="translate(0,0)"/>
<path d="" fill="#FDFDFD" transform="translate(0,0)"/>
<path d="" fill="#FDFDFD" transform="translate(0,0)"/>
<path d="" fill="#FDFDFD" transform="translate(0,0)"/>
<path d="" fill="#FDFDFD" transform="translate(0,0)"/>
<path d="" fill="#FDFDFD" transform="translate(0,0)"/>
<path d="" fill="#FDFDFD" transform="translate(0,0)"/>
<path d="" fill="#FDFDFD" transform="translate(0,0)"/>
<path d="" fill="#FDFDFD" transform="translate(0,0)"/>
<path d="" fill="#FDFDFD" transform="translate(0,0)"/>
<path d="" fill="#FDFDFD" transform="translate(0,0)"/>
<path d="" fill="#FDFDFD" transform="translate(0,0)"/>
<path d="" fill="#FDFDFD" transform="translate(0,0)"/>
<path d="" fill="#FDFDFD" transform="translate(0,0)"/>
<path d="" fill="#FDFDFD" transform="translate(0,0)"/>
<path d="" fill="#FDFDFD" transform="translate(0,0)"/>
<path d="" fill="#FDFDFD" transform="translate(0,0)"/>
<path d="" fill="#FDFDFD" transform="translate(0,0)"/>
<path d="" fill="#000100" transform="translate(0,0)"/>
<path d="" fill="#000100" transform="translate(0,0)"/>
<path d="" fill="#000100" transform="translate(0,0)"/>
<path d="" fill="#000100" transform="translate(0,0)"/>
<path d="" fill="#000100" transform="translate(0,0)"/>
<path d="" fill="#000100" transform="translate(0,0)"/>
<path d="" fill="#000100" transform="translate(0,0)"/>
<path d="" fill="#000100" transform="translate(0,0)"/>
<path d="" fill="#000100" transform="translate(0,0)"/>
<path d="" fill="#000100" transform="translate(0,0)"/>
<path d="" fill="#000100" transform="translate(0,0)"/>
<path d="" fill="#000100" transform="translate(0,0)"/>
<path d="" fill="#000100" transform="translate(0,0)"/>
<path d="" fill="#000100" transform="translate(0,0)"/>
<path d="" fill="#000100" transform="translate(0,0)"/>
<path d="" fill="#000100" transform="translate(0,0)"/>
<path d="" fill="#000100" transform="translate(0,0)"/>
<path d="" fill="#000100" transform="translate(0,0)"/>
<path d="" fill="#000100" transform="translate(0,0)"/>
<path d="" fill="#000100" transform="translate(0,0)"/>
<path d="" fill="#000100" transform="translate(0,0)"/>
<path d="" fill="#000100" transform="translate(0,0)"/>
<path d="" fill="#000100" transform="translate(0,0)"/>
<path d="" fill="#000100" transform="translate(0,0)"/>
</svg>
